M48
; DRILL file {KiCad 8.0.6} date 2026-03-19T20:17:08+0100
; FORMAT={-:-/ absolute / metric / decimal}
; #@! TF.CreationDate,2026-03-19T20:17:08+01:00
; #@! TF.GenerationSoftware,Kicad,Pcbnew,8.0.6
; #@! TF.FileFunction,Plated,1,4,PTH
FMAT,2
METRIC
; #@! TA.AperFunction,Plated,PTH,ComponentDrill
T1C0.762
; #@! TA.AperFunction,Plated,PTH,ComponentDrill
T2C0.800
; #@! TA.AperFunction,Plated,PTH,ComponentDrill
T3C0.900
; #@! TA.AperFunction,Plated,PTH,ComponentDrill
T4C1.000
; #@! TA.AperFunction,Plated,PTH,ComponentDrill
T5C1.100
; #@! TA.AperFunction,Plated,PTH,ComponentDrill
T6C1.200
%
G90
G05
T1
X127.12Y-91.4
X129.66Y-91.4
X132.2Y-91.4
X134.74Y-91.4
X137.28Y-91.4
X139.82Y-91.4
X142.36Y-91.4
X144.9Y-91.4
T2
X126.736Y-144.628
X126.786Y-96.423
X126.786Y-98.963
X126.786Y-101.503
X126.786Y-104.043
X126.786Y-106.583
X126.786Y-109.123
X126.786Y-111.663
X126.786Y-114.203
X126.786Y-116.743
X126.786Y-119.283
X126.786Y-121.823
X126.786Y-124.363
X126.786Y-126.903
X126.786Y-129.443
X126.786Y-131.983
X126.786Y-134.523
X126.786Y-137.063
X126.786Y-139.603
X126.786Y-142.143
X144.5Y-96.28
X144.5Y-98.82
X144.5Y-101.36
X144.5Y-103.9
X144.5Y-106.44
X144.5Y-108.98
X144.5Y-111.52
X144.5Y-114.06
X144.5Y-116.6
X144.5Y-119.14
X144.5Y-121.68
X144.5Y-124.22
X144.5Y-126.76
X144.5Y-129.3
X144.5Y-131.84
X144.5Y-134.38
X144.5Y-136.92
X144.5Y-139.46
X144.5Y-142.0
X144.5Y-144.54
T3
X152.6Y-134.7
X152.6Y-137.24
X162.0Y-134.8
X162.0Y-137.34
X171.6Y-134.9
X171.6Y-137.44
T4
X163.0Y-96.4
X163.0Y-104.0
T5
X115.75Y-117.75
X115.75Y-122.25
X122.25Y-117.75
X122.25Y-122.25
T6
X152.7Y-114.68
X152.7Y-129.92
X162.0Y-114.68
X162.0Y-129.92
X171.5Y-114.76
X171.5Y-130.0
M30
