G04 #@! TF.GenerationSoftware,KiCad,Pcbnew,8.0.6*
G04 #@! TF.CreationDate,2026-03-19T20:18:12+01:00*
G04 #@! TF.ProjectId,RFC522_PICO,52464335-3232-45f5-9049-434f2e6b6963,rev?*
G04 #@! TF.SameCoordinates,Original*
G04 #@! TF.FileFunction,Copper,L1,Top*
G04 #@! TF.FilePolarity,Positive*
%FSLAX46Y46*%
G04 Gerber Fmt 4.6, Leading zero omitted, Abs format (unit mm)*
G04 Created by KiCad (PCBNEW 8.0.6) date 2026-03-19 20:18:12*
%MOMM*%
%LPD*%
G01*
G04 APERTURE LIST*
G04 #@! TA.AperFunction,ComponentPad*
%ADD10R,1.524000X1.524000*%
G04 #@! TD*
G04 #@! TA.AperFunction,ComponentPad*
%ADD11C,1.524000*%
G04 #@! TD*
G04 #@! TA.AperFunction,ComponentPad*
%ADD12C,2.400000*%
G04 #@! TD*
G04 #@! TA.AperFunction,ComponentPad*
%ADD13O,2.400000X2.400000*%
G04 #@! TD*
G04 #@! TA.AperFunction,ComponentPad*
%ADD14R,2.000000X2.000000*%
G04 #@! TD*
G04 #@! TA.AperFunction,ComponentPad*
%ADD15C,2.000000*%
G04 #@! TD*
G04 #@! TA.AperFunction,ComponentPad*
%ADD16R,1.800000X1.800000*%
G04 #@! TD*
G04 #@! TA.AperFunction,ComponentPad*
%ADD17C,1.800000*%
G04 #@! TD*
G04 #@! TA.AperFunction,ComponentPad*
%ADD18R,1.500000X1.500000*%
G04 #@! TD*
G04 #@! TA.AperFunction,ComponentPad*
%ADD19C,1.500000*%
G04 #@! TD*
G04 #@! TA.AperFunction,Conductor*
%ADD20C,0.400000*%
G04 #@! TD*
G04 APERTURE END LIST*
D10*
X127120000Y-91400000D03*
D11*
X129660000Y-91400000D03*
X132200000Y-91400000D03*
X134740000Y-91400000D03*
X137280000Y-91400000D03*
X139820000Y-91400000D03*
X142360000Y-91400000D03*
X144900000Y-91400000D03*
D12*
X152700000Y-114680000D03*
D13*
X152700000Y-129920000D03*
D14*
X163000000Y-96400000D03*
D15*
X163000000Y-104000000D03*
D16*
X152600000Y-137240000D03*
D17*
X152600000Y-134700000D03*
D16*
X162000000Y-137340000D03*
D17*
X162000000Y-134800000D03*
D15*
X122250000Y-122250000D03*
X115750000Y-122250000D03*
X122250000Y-117750000D03*
X115750000Y-117750000D03*
D12*
X162000000Y-114680000D03*
D13*
X162000000Y-129920000D03*
D18*
X144500000Y-144540000D03*
D19*
X144500000Y-142000000D03*
X144500000Y-139460000D03*
X144500000Y-136920000D03*
X144500000Y-134380000D03*
X144500000Y-131840000D03*
X144500000Y-129300000D03*
X144500000Y-126760000D03*
X144500000Y-124220000D03*
X144500000Y-121680000D03*
X144500000Y-119140000D03*
X144500000Y-116600000D03*
X144500000Y-114060000D03*
X144500000Y-111520000D03*
X144500000Y-108980000D03*
X144500000Y-106440000D03*
X144500000Y-103900000D03*
X144500000Y-101360000D03*
X144500000Y-98820000D03*
X144500000Y-96280000D03*
X126735800Y-144627600D03*
X126785800Y-142142600D03*
X126785800Y-139602600D03*
X126785800Y-137062600D03*
X126785800Y-134522600D03*
X126785800Y-131982600D03*
X126785800Y-129442600D03*
X126785800Y-126902600D03*
X126785800Y-124362600D03*
X126785800Y-121822600D03*
X126785800Y-119282600D03*
X126785800Y-116742600D03*
X126785800Y-114202600D03*
X126785800Y-111662600D03*
X126785800Y-109122600D03*
X126785800Y-106582600D03*
X126785800Y-104042600D03*
X126785800Y-101502600D03*
X126785800Y-98962600D03*
X126785800Y-96422600D03*
D16*
X171600000Y-137440000D03*
D17*
X171600000Y-134900000D03*
D12*
X171500000Y-114760000D03*
D13*
X171500000Y-130000000D03*
D20*
X126400000Y-91400000D02*
X127120000Y-91400000D01*
X124000000Y-93800000D02*
X126400000Y-91400000D01*
X124000000Y-97900000D02*
X124000000Y-93800000D01*
X125062600Y-98962600D02*
X124000000Y-97900000D01*
X126785800Y-98962600D02*
X125062600Y-98962600D01*
X126648400Y-124500000D02*
X126785800Y-124362600D01*
X123500000Y-124500000D02*
X126648400Y-124500000D01*
X122250000Y-123250000D02*
X123500000Y-124500000D01*
X122250000Y-122250000D02*
X122250000Y-123250000D01*
X123257400Y-116742600D02*
X126785800Y-116742600D01*
X122250000Y-117750000D02*
X123257400Y-116742600D01*
X115750000Y-117750000D02*
X122250000Y-117750000D01*
X122250000Y-122250000D02*
X115750000Y-122250000D01*
X162700000Y-110000000D02*
X156600000Y-103900000D01*
X170100000Y-110000000D02*
X162700000Y-110000000D01*
X171500000Y-111400000D02*
X170100000Y-110000000D01*
X171500000Y-114760000D02*
X171500000Y-111400000D01*
X156600000Y-103900000D02*
X144500000Y-103900000D01*
X155640000Y-106440000D02*
X144500000Y-106440000D01*
X162000000Y-112800000D02*
X155640000Y-106440000D01*
X162000000Y-114680000D02*
X162000000Y-112800000D01*
X149280000Y-108980000D02*
X144500000Y-108980000D01*
X152700000Y-112400000D02*
X149280000Y-108980000D01*
X152700000Y-114680000D02*
X152700000Y-112400000D01*
X162000000Y-134800000D02*
X162000000Y-129920000D01*
X171600000Y-130100000D02*
X171500000Y-130000000D01*
X171600000Y-134900000D02*
X171600000Y-130100000D01*
X152600000Y-130020000D02*
X152700000Y-129920000D01*
X152600000Y-134700000D02*
X152600000Y-130020000D01*
X141100000Y-149300000D02*
X159740000Y-149300000D01*
X159740000Y-149300000D02*
X171600000Y-137440000D01*
X138900000Y-147100000D02*
X141100000Y-149300000D01*
X138900000Y-117200000D02*
X138900000Y-147100000D01*
X144500000Y-114060000D02*
X142040000Y-114060000D01*
X142040000Y-114060000D02*
X138900000Y-117200000D01*
X144500000Y-101360000D02*
X160360000Y-101360000D01*
X160360000Y-101360000D02*
X163000000Y-104000000D01*
X160580000Y-98820000D02*
X163000000Y-96400000D01*
X144500000Y-98820000D02*
X160580000Y-98820000D01*
X150380000Y-139460000D02*
X152600000Y-137240000D01*
X144500000Y-139460000D02*
X150380000Y-139460000D01*
X142200000Y-147100000D02*
X152240000Y-147100000D01*
X152240000Y-147100000D02*
X162000000Y-137340000D01*
X141500000Y-146400000D02*
X142200000Y-147100000D01*
X141560000Y-129700000D02*
X141500000Y-129700000D01*
X144500000Y-126760000D02*
X141560000Y-129700000D01*
X141500000Y-129700000D02*
X141500000Y-146400000D01*
X136600000Y-124708400D02*
X126785800Y-134522600D01*
X136600000Y-99700000D02*
X136600000Y-124708400D01*
X144900000Y-91400000D02*
X136600000Y-99700000D01*
X132200000Y-101168400D02*
X126785800Y-106582600D01*
X132200000Y-91400000D02*
X132200000Y-101168400D01*
X129660000Y-101168400D02*
X126785800Y-104042600D01*
X129660000Y-91400000D02*
X129660000Y-101168400D01*
G04 #@! TA.AperFunction,NonConductor*
G36*
X129181619Y-90020185D02*
G01*
X129227374Y-90072989D01*
X129237318Y-90142147D01*
X129208293Y-90205703D01*
X129166986Y-90236881D01*
X129110208Y-90263357D01*
X129026340Y-90302465D01*
X129026338Y-90302466D01*
X128845377Y-90429175D01*
X128689175Y-90585377D01*
X128608074Y-90701203D01*
X128553497Y-90744828D01*
X128483999Y-90752022D01*
X128421644Y-90720499D01*
X128386230Y-90660270D01*
X128382499Y-90630080D01*
X128382499Y-90590129D01*
X128382498Y-90590123D01*
X128382497Y-90590116D01*
X128376091Y-90530517D01*
X128325796Y-90395669D01*
X128325795Y-90395668D01*
X128325793Y-90395664D01*
X128239547Y-90280455D01*
X128163821Y-90223766D01*
X128121951Y-90167832D01*
X128116967Y-90098141D01*
X128150453Y-90036818D01*
X128211776Y-90003333D01*
X128238133Y-90000500D01*
X129114580Y-90000500D01*
X129181619Y-90020185D01*
G37*
G04 #@! TD.AperFunction*
G04 #@! TA.AperFunction,NonConductor*
G36*
X144421619Y-90020185D02*
G01*
X144467374Y-90072989D01*
X144477318Y-90142147D01*
X144448293Y-90205703D01*
X144406986Y-90236881D01*
X144350208Y-90263357D01*
X144266340Y-90302465D01*
X144266338Y-90302466D01*
X144085377Y-90429175D01*
X143929175Y-90585377D01*
X143802466Y-90766338D01*
X143802465Y-90766340D01*
X143742382Y-90895189D01*
X143696209Y-90947628D01*
X143629016Y-90966780D01*
X143562135Y-90946564D01*
X143517618Y-90895189D01*
X143457534Y-90766340D01*
X143457533Y-90766338D01*
X143330827Y-90585381D01*
X143275962Y-90530516D01*
X143174620Y-90429174D01*
X143174616Y-90429171D01*
X143174615Y-90429170D01*
X142993666Y-90302468D01*
X142993662Y-90302466D01*
X142853016Y-90236882D01*
X142800577Y-90190710D01*
X142781425Y-90123516D01*
X142801641Y-90056635D01*
X142854806Y-90011301D01*
X142905421Y-90000500D01*
X144354580Y-90000500D01*
X144421619Y-90020185D01*
G37*
G04 #@! TD.AperFunction*
G04 #@! TA.AperFunction,NonConductor*
G36*
X141881619Y-90020185D02*
G01*
X141927374Y-90072989D01*
X141937318Y-90142147D01*
X141908293Y-90205703D01*
X141866986Y-90236881D01*
X141810208Y-90263357D01*
X141726340Y-90302465D01*
X141726338Y-90302466D01*
X141545377Y-90429175D01*
X141389175Y-90585377D01*
X141262466Y-90766338D01*
X141262465Y-90766340D01*
X141202382Y-90895189D01*
X141156209Y-90947628D01*
X141089016Y-90966780D01*
X141022135Y-90946564D01*
X140977618Y-90895189D01*
X140917534Y-90766340D01*
X140917533Y-90766338D01*
X140790827Y-90585381D01*
X140735962Y-90530516D01*
X140634620Y-90429174D01*
X140634616Y-90429171D01*
X140634615Y-90429170D01*
X140453666Y-90302468D01*
X140453662Y-90302466D01*
X140313016Y-90236882D01*
X140260577Y-90190710D01*
X140241425Y-90123516D01*
X140261641Y-90056635D01*
X140314806Y-90011301D01*
X140365421Y-90000500D01*
X141814580Y-90000500D01*
X141881619Y-90020185D01*
G37*
G04 #@! TD.AperFunction*
G04 #@! TA.AperFunction,NonConductor*
G36*
X139341619Y-90020185D02*
G01*
X139387374Y-90072989D01*
X139397318Y-90142147D01*
X139368293Y-90205703D01*
X139326986Y-90236881D01*
X139270208Y-90263357D01*
X139186340Y-90302465D01*
X139186338Y-90302466D01*
X139005377Y-90429175D01*
X138849175Y-90585377D01*
X138722466Y-90766338D01*
X138722465Y-90766340D01*
X138662382Y-90895189D01*
X138616209Y-90947628D01*
X138549016Y-90966780D01*
X138482135Y-90946564D01*
X138437618Y-90895189D01*
X138377534Y-90766340D01*
X138377533Y-90766338D01*
X138250827Y-90585381D01*
X138195962Y-90530516D01*
X138094620Y-90429174D01*
X138094616Y-90429171D01*
X138094615Y-90429170D01*
X137913666Y-90302468D01*
X137913662Y-90302466D01*
X137773016Y-90236882D01*
X137720577Y-90190710D01*
X137701425Y-90123516D01*
X137721641Y-90056635D01*
X137774806Y-90011301D01*
X137825421Y-90000500D01*
X139274580Y-90000500D01*
X139341619Y-90020185D01*
G37*
G04 #@! TD.AperFunction*
G04 #@! TA.AperFunction,NonConductor*
G36*
X136801619Y-90020185D02*
G01*
X136847374Y-90072989D01*
X136857318Y-90142147D01*
X136828293Y-90205703D01*
X136786986Y-90236881D01*
X136730208Y-90263357D01*
X136646340Y-90302465D01*
X136646338Y-90302466D01*
X136465377Y-90429175D01*
X136309175Y-90585377D01*
X136182466Y-90766338D01*
X136182465Y-90766340D01*
X136122382Y-90895189D01*
X136076209Y-90947628D01*
X136009016Y-90966780D01*
X135942135Y-90946564D01*
X135897618Y-90895189D01*
X135837534Y-90766340D01*
X135837533Y-90766338D01*
X135710827Y-90585381D01*
X135655962Y-90530516D01*
X135554620Y-90429174D01*
X135554616Y-90429171D01*
X135554615Y-90429170D01*
X135373666Y-90302468D01*
X135373662Y-90302466D01*
X135233016Y-90236882D01*
X135180577Y-90190710D01*
X135161425Y-90123516D01*
X135181641Y-90056635D01*
X135234806Y-90011301D01*
X135285421Y-90000500D01*
X136734580Y-90000500D01*
X136801619Y-90020185D01*
G37*
G04 #@! TD.AperFunction*
G04 #@! TA.AperFunction,NonConductor*
G36*
X134261619Y-90020185D02*
G01*
X134307374Y-90072989D01*
X134317318Y-90142147D01*
X134288293Y-90205703D01*
X134246986Y-90236881D01*
X134190208Y-90263357D01*
X134106340Y-90302465D01*
X134106338Y-90302466D01*
X133925377Y-90429175D01*
X133769175Y-90585377D01*
X133642466Y-90766338D01*
X133642465Y-90766340D01*
X133582382Y-90895189D01*
X133536209Y-90947628D01*
X133469016Y-90966780D01*
X133402135Y-90946564D01*
X133357618Y-90895189D01*
X133297534Y-90766340D01*
X133297533Y-90766338D01*
X133170827Y-90585381D01*
X133115962Y-90530516D01*
X133014620Y-90429174D01*
X133014616Y-90429171D01*
X133014615Y-90429170D01*
X132833666Y-90302468D01*
X132833662Y-90302466D01*
X132693016Y-90236882D01*
X132640577Y-90190710D01*
X132621425Y-90123516D01*
X132641641Y-90056635D01*
X132694806Y-90011301D01*
X132745421Y-90000500D01*
X134194580Y-90000500D01*
X134261619Y-90020185D01*
G37*
G04 #@! TD.AperFunction*
G04 #@! TA.AperFunction,NonConductor*
G36*
X131721619Y-90020185D02*
G01*
X131767374Y-90072989D01*
X131777318Y-90142147D01*
X131748293Y-90205703D01*
X131706986Y-90236881D01*
X131650208Y-90263357D01*
X131566340Y-90302465D01*
X131566338Y-90302466D01*
X131385377Y-90429175D01*
X131229175Y-90585377D01*
X131102466Y-90766338D01*
X131102465Y-90766340D01*
X131042382Y-90895189D01*
X130996209Y-90947628D01*
X130929016Y-90966780D01*
X130862135Y-90946564D01*
X130817618Y-90895189D01*
X130757534Y-90766340D01*
X130757533Y-90766338D01*
X130630827Y-90585381D01*
X130575962Y-90530516D01*
X130474620Y-90429174D01*
X130474616Y-90429171D01*
X130474615Y-90429170D01*
X130293666Y-90302468D01*
X130293662Y-90302466D01*
X130153016Y-90236882D01*
X130100577Y-90190710D01*
X130081425Y-90123516D01*
X130101641Y-90056635D01*
X130154806Y-90011301D01*
X130205421Y-90000500D01*
X131654580Y-90000500D01*
X131721619Y-90020185D01*
G37*
G04 #@! TD.AperFunction*
G04 #@! TA.AperFunction,NonConductor*
G36*
X128587700Y-92076206D02*
G01*
X128608073Y-92098796D01*
X128689174Y-92214620D01*
X128845380Y-92370826D01*
X128906623Y-92413708D01*
X128950248Y-92468284D01*
X128959500Y-92515283D01*
X128959500Y-100826880D01*
X128939815Y-100893919D01*
X128923181Y-100914561D01*
X128252758Y-101584984D01*
X128191435Y-101618469D01*
X128121743Y-101613485D01*
X128065810Y-101571613D01*
X128042063Y-101507947D01*
X128041549Y-101507993D01*
X128029715Y-101372732D01*
X128022007Y-101284623D01*
X127965375Y-101073270D01*
X127872902Y-100874962D01*
X127872900Y-100874959D01*
X127872899Y-100874957D01*
X127747399Y-100695724D01*
X127691490Y-100639815D01*
X127592677Y-100541002D01*
X127413439Y-100415498D01*
X127262214Y-100344981D01*
X127209777Y-100298810D01*
X127190625Y-100231616D01*
X127210841Y-100164735D01*
X127262214Y-100120218D01*
X127413439Y-100049702D01*
X127592677Y-99924198D01*
X127747398Y-99769477D01*
X127872902Y-99590239D01*
X127965375Y-99391930D01*
X128022007Y-99180577D01*
X128041077Y-98962600D01*
X128022007Y-98744623D01*
X127965375Y-98533270D01*
X127872902Y-98334962D01*
X127872900Y-98334959D01*
X127872899Y-98334957D01*
X127747399Y-98155724D01*
X127674856Y-98083181D01*
X127592677Y-98001002D01*
X127413439Y-97875498D01*
X127262214Y-97804981D01*
X127209777Y-97758810D01*
X127190625Y-97691616D01*
X127210841Y-97624735D01*
X127262214Y-97580218D01*
X127413439Y-97509702D01*
X127592677Y-97384198D01*
X127747398Y-97229477D01*
X127872902Y-97050239D01*
X127965375Y-96851930D01*
X128022007Y-96640577D01*
X128041077Y-96422600D01*
X128022007Y-96204623D01*
X127965375Y-95993270D01*
X127872902Y-95794962D01*
X127872900Y-95794959D01*
X127872899Y-95794957D01*
X127747399Y-95615724D01*
X127747396Y-95615721D01*
X127592677Y-95461002D01*
X127437199Y-95352135D01*
X127413438Y-95335497D01*
X127314284Y-95289261D01*
X127215130Y-95243025D01*
X127215126Y-95243024D01*
X127215122Y-95243022D01*
X127003777Y-95186393D01*
X126785802Y-95167323D01*
X126785798Y-95167323D01*
X126643355Y-95179785D01*
X126567823Y-95186393D01*
X126567820Y-95186393D01*
X126356477Y-95243022D01*
X126356468Y-95243026D01*
X126158161Y-95335498D01*
X126158157Y-95335500D01*
X125978921Y-95461002D01*
X125824202Y-95615721D01*
X125698700Y-95794957D01*
X125698698Y-95794961D01*
X125606226Y-95993268D01*
X125606222Y-95993277D01*
X125549593Y-96204620D01*
X125549593Y-96204624D01*
X125530523Y-96422597D01*
X125530523Y-96422602D01*
X125537117Y-96497975D01*
X125542825Y-96563222D01*
X125549593Y-96640575D01*
X125549593Y-96640579D01*
X125606222Y-96851922D01*
X125606224Y-96851926D01*
X125606225Y-96851930D01*
X125632202Y-96907638D01*
X125698697Y-97050238D01*
X125698698Y-97050239D01*
X125824202Y-97229477D01*
X125978923Y-97384198D01*
X126121155Y-97483790D01*
X126158161Y-97509702D01*
X126309383Y-97580218D01*
X126361822Y-97626390D01*
X126380974Y-97693584D01*
X126360758Y-97760465D01*
X126309383Y-97804982D01*
X126158161Y-97875498D01*
X126158157Y-97875500D01*
X125978924Y-98001000D01*
X125824198Y-98155727D01*
X125786741Y-98209223D01*
X125732165Y-98252848D01*
X125685166Y-98262100D01*
X125404118Y-98262100D01*
X125337079Y-98242415D01*
X125316437Y-98225781D01*
X124736819Y-97646162D01*
X124703334Y-97584839D01*
X124700500Y-97558481D01*
X124700500Y-94141518D01*
X124720185Y-94074479D01*
X124736814Y-94053842D01*
X126109716Y-92680939D01*
X126171037Y-92647456D01*
X126240727Y-92652439D01*
X126250517Y-92656091D01*
X126310127Y-92662500D01*
X127929872Y-92662499D01*
X127989483Y-92656091D01*
X128124331Y-92605796D01*
X128239546Y-92519546D01*
X128325796Y-92404331D01*
X128376091Y-92269483D01*
X128382500Y-92209873D01*
X128382499Y-92169920D01*
X128402182Y-92102884D01*
X128454985Y-92057128D01*
X128524143Y-92047183D01*
X128587700Y-92076206D01*
G37*
G04 #@! TD.AperFunction*
G04 #@! TA.AperFunction,NonConductor*
G36*
X130997865Y-91853435D02*
G01*
X131042382Y-91904811D01*
X131102464Y-92033658D01*
X131102468Y-92033666D01*
X131225850Y-92209873D01*
X131229174Y-92214620D01*
X131385380Y-92370826D01*
X131446623Y-92413708D01*
X131490248Y-92468284D01*
X131499500Y-92515283D01*
X131499500Y-100826880D01*
X131479815Y-100893919D01*
X131463181Y-100914561D01*
X128252758Y-104124984D01*
X128191435Y-104158469D01*
X128121743Y-104153485D01*
X128065810Y-104111613D01*
X128042064Y-104047948D01*
X128041549Y-104047994D01*
X128040245Y-104033099D01*
X128024827Y-103856865D01*
X128038593Y-103788370D01*
X128060671Y-103758384D01*
X130204114Y-101614943D01*
X130280775Y-101500211D01*
X130333580Y-101372728D01*
X130351105Y-101284624D01*
X130360500Y-101237396D01*
X130360500Y-92515283D01*
X130380185Y-92448244D01*
X130413375Y-92413709D01*
X130474620Y-92370826D01*
X130630826Y-92214620D01*
X130757534Y-92033662D01*
X130817618Y-91904811D01*
X130863790Y-91852371D01*
X130930983Y-91833219D01*
X130997865Y-91853435D01*
G37*
G04 #@! TD.AperFunction*
G04 #@! TA.AperFunction,NonConductor*
G36*
X141157865Y-91853435D02*
G01*
X141202382Y-91904811D01*
X141262464Y-92033658D01*
X141262468Y-92033666D01*
X141389170Y-92214615D01*
X141389175Y-92214621D01*
X141545378Y-92370824D01*
X141545384Y-92370829D01*
X141726333Y-92497531D01*
X141726335Y-92497532D01*
X141726338Y-92497534D01*
X141926550Y-92590894D01*
X142139932Y-92648070D01*
X142354423Y-92666835D01*
X142419492Y-92692287D01*
X142460471Y-92748878D01*
X142464349Y-92818640D01*
X142431297Y-92878044D01*
X136055887Y-99253454D01*
X135979222Y-99368192D01*
X135926421Y-99495667D01*
X135926418Y-99495679D01*
X135900324Y-99626863D01*
X135900323Y-99626868D01*
X135899501Y-99630998D01*
X135899500Y-99631011D01*
X135899500Y-124366880D01*
X135879815Y-124433919D01*
X135863181Y-124454561D01*
X128252758Y-132064984D01*
X128191435Y-132098469D01*
X128121743Y-132093485D01*
X128065810Y-132051613D01*
X128042063Y-131987947D01*
X128041549Y-131987993D01*
X128038689Y-131955306D01*
X128022007Y-131764623D01*
X127965375Y-131553270D01*
X127872902Y-131354962D01*
X127872900Y-131354959D01*
X127872899Y-131354957D01*
X127747399Y-131175724D01*
X127731551Y-131159876D01*
X127592677Y-131021002D01*
X127413439Y-130895498D01*
X127262214Y-130824981D01*
X127209777Y-130778810D01*
X127190625Y-130711616D01*
X127210841Y-130644735D01*
X127262214Y-130600218D01*
X127413439Y-130529702D01*
X127592677Y-130404198D01*
X127747398Y-130249477D01*
X127872902Y-130070239D01*
X127965375Y-129871930D01*
X128022007Y-129660577D01*
X128041077Y-129442600D01*
X128022007Y-129224623D01*
X127965375Y-129013270D01*
X127872902Y-128814962D01*
X127872900Y-128814959D01*
X127872899Y-128814957D01*
X127747399Y-128635724D01*
X127698443Y-128586768D01*
X127592677Y-128481002D01*
X127413439Y-128355498D01*
X127262214Y-128284981D01*
X127209777Y-128238810D01*
X127190625Y-128171616D01*
X127210841Y-128104735D01*
X127262214Y-128060218D01*
X127413439Y-127989702D01*
X127592677Y-127864198D01*
X127747398Y-127709477D01*
X127872902Y-127530239D01*
X127965375Y-127331930D01*
X128022007Y-127120577D01*
X128041077Y-126902600D01*
X128022007Y-126684623D01*
X127965375Y-126473270D01*
X127872902Y-126274962D01*
X127872900Y-126274959D01*
X127872899Y-126274957D01*
X127747399Y-126095724D01*
X127747396Y-126095721D01*
X127592677Y-125941002D01*
X127413439Y-125815498D01*
X127262214Y-125744981D01*
X127209777Y-125698810D01*
X127190625Y-125631616D01*
X127210841Y-125564735D01*
X127262214Y-125520218D01*
X127413439Y-125449702D01*
X127592677Y-125324198D01*
X127747398Y-125169477D01*
X127872902Y-124990239D01*
X127965375Y-124791930D01*
X128022007Y-124580577D01*
X128041077Y-124362600D01*
X128022007Y-124144623D01*
X127965375Y-123933270D01*
X127872902Y-123734962D01*
X127872900Y-123734959D01*
X127872899Y-123734957D01*
X127747399Y-123555724D01*
X127702149Y-123510474D01*
X127592677Y-123401002D01*
X127413439Y-123275498D01*
X127262214Y-123204981D01*
X127209777Y-123158810D01*
X127190625Y-123091616D01*
X127210841Y-123024735D01*
X127262214Y-122980218D01*
X127413439Y-122909702D01*
X127592677Y-122784198D01*
X127747398Y-122629477D01*
X127872902Y-122450239D01*
X127965375Y-122251930D01*
X128022007Y-122040577D01*
X128041077Y-121822600D01*
X128022007Y-121604623D01*
X127965375Y-121393270D01*
X127872902Y-121194962D01*
X127872900Y-121194959D01*
X127872899Y-121194957D01*
X127747399Y-121015724D01*
X127721199Y-120989524D01*
X127592677Y-120861002D01*
X127413439Y-120735498D01*
X127262214Y-120664981D01*
X127209777Y-120618810D01*
X127190625Y-120551616D01*
X127210841Y-120484735D01*
X127262214Y-120440218D01*
X127413439Y-120369702D01*
X127592677Y-120244198D01*
X127747398Y-120089477D01*
X127872902Y-119910239D01*
X127965375Y-119711930D01*
X128022007Y-119500577D01*
X128041077Y-119282600D01*
X128022007Y-119064623D01*
X127965375Y-118853270D01*
X127872902Y-118654962D01*
X127872900Y-118654959D01*
X127872899Y-118654957D01*
X127747399Y-118475724D01*
X127722175Y-118450500D01*
X127592677Y-118321002D01*
X127413439Y-118195498D01*
X127262214Y-118124981D01*
X127209777Y-118078810D01*
X127190625Y-118011616D01*
X127210841Y-117944735D01*
X127262214Y-117900218D01*
X127413439Y-117829702D01*
X127592677Y-117704198D01*
X127747398Y-117549477D01*
X127872902Y-117370239D01*
X127965375Y-117171930D01*
X128022007Y-116960577D01*
X128040127Y-116753457D01*
X128041077Y-116742602D01*
X128041077Y-116742597D01*
X128037369Y-116700218D01*
X128022007Y-116524623D01*
X127965375Y-116313270D01*
X127872902Y-116114962D01*
X127872900Y-116114959D01*
X127872899Y-116114957D01*
X127747399Y-115935724D01*
X127731551Y-115919876D01*
X127592677Y-115781002D01*
X127413439Y-115655498D01*
X127262214Y-115584981D01*
X127209777Y-115538810D01*
X127190625Y-115471616D01*
X127210841Y-115404735D01*
X127262214Y-115360218D01*
X127413439Y-115289702D01*
X127592677Y-115164198D01*
X127747398Y-115009477D01*
X127872902Y-114830239D01*
X127965375Y-114631930D01*
X128022007Y-114420577D01*
X128041077Y-114202600D01*
X128022007Y-113984623D01*
X127965375Y-113773270D01*
X127872902Y-113574962D01*
X127872900Y-113574959D01*
X127872899Y-113574957D01*
X127747399Y-113395724D01*
X127698443Y-113346768D01*
X127592677Y-113241002D01*
X127413439Y-113115498D01*
X127262214Y-113044981D01*
X127209777Y-112998810D01*
X127190625Y-112931616D01*
X127210841Y-112864735D01*
X127262214Y-112820218D01*
X127413439Y-112749702D01*
X127592677Y-112624198D01*
X127747398Y-112469477D01*
X127872902Y-112290239D01*
X127965375Y-112091930D01*
X128022007Y-111880577D01*
X128041077Y-111662600D01*
X128040310Y-111653838D01*
X128037369Y-111620218D01*
X128022007Y-111444623D01*
X127983797Y-111302020D01*
X127965377Y-111233277D01*
X127965376Y-111233276D01*
X127965375Y-111233270D01*
X127872902Y-111034962D01*
X127872900Y-111034959D01*
X127872899Y-111034957D01*
X127747399Y-110855724D01*
X127747396Y-110855721D01*
X127592677Y-110701002D01*
X127413439Y-110575498D01*
X127262214Y-110504981D01*
X127209777Y-110458810D01*
X127190625Y-110391616D01*
X127210841Y-110324735D01*
X127262214Y-110280218D01*
X127413439Y-110209702D01*
X127592677Y-110084198D01*
X127747398Y-109929477D01*
X127872902Y-109750239D01*
X127965375Y-109551930D01*
X128022007Y-109340577D01*
X128041077Y-109122600D01*
X128022007Y-108904623D01*
X127965375Y-108693270D01*
X127872902Y-108494962D01*
X127872900Y-108494959D01*
X127872899Y-108494957D01*
X127747399Y-108315724D01*
X127691490Y-108259815D01*
X127592677Y-108161002D01*
X127413439Y-108035498D01*
X127262214Y-107964981D01*
X127209777Y-107918810D01*
X127190625Y-107851616D01*
X127210841Y-107784735D01*
X127262214Y-107740218D01*
X127413439Y-107669702D01*
X127592677Y-107544198D01*
X127747398Y-107389477D01*
X127872902Y-107210239D01*
X127965375Y-107011930D01*
X128022007Y-106800577D01*
X128041077Y-106582600D01*
X128024827Y-106396865D01*
X128038593Y-106328370D01*
X128060671Y-106298384D01*
X132744114Y-101614943D01*
X132820775Y-101500211D01*
X132873580Y-101372728D01*
X132891105Y-101284624D01*
X132900500Y-101237396D01*
X132900500Y-92515283D01*
X132920185Y-92448244D01*
X132953375Y-92413709D01*
X133014620Y-92370826D01*
X133170826Y-92214620D01*
X133297534Y-92033662D01*
X133357618Y-91904811D01*
X133403790Y-91852371D01*
X133470983Y-91833219D01*
X133537865Y-91853435D01*
X133582382Y-91904811D01*
X133642464Y-92033658D01*
X133642468Y-92033666D01*
X133769170Y-92214615D01*
X133769175Y-92214621D01*
X133925378Y-92370824D01*
X133925384Y-92370829D01*
X134106333Y-92497531D01*
X134106335Y-92497532D01*
X134106338Y-92497534D01*
X134306550Y-92590894D01*
X134519932Y-92648070D01*
X134677123Y-92661822D01*
X134739998Y-92667323D01*
X134740000Y-92667323D01*
X134740002Y-92667323D01*
X134795151Y-92662498D01*
X134960068Y-92648070D01*
X135173450Y-92590894D01*
X135373662Y-92497534D01*
X135554620Y-92370826D01*
X135710826Y-92214620D01*
X135837534Y-92033662D01*
X135897618Y-91904811D01*
X135943790Y-91852371D01*
X136010983Y-91833219D01*
X136077865Y-91853435D01*
X136122382Y-91904811D01*
X136182464Y-92033658D01*
X136182468Y-92033666D01*
X136309170Y-92214615D01*
X136309175Y-92214621D01*
X136465378Y-92370824D01*
X136465384Y-92370829D01*
X136646333Y-92497531D01*
X136646335Y-92497532D01*
X136646338Y-92497534D01*
X136846550Y-92590894D01*
X137059932Y-92648070D01*
X137217123Y-92661822D01*
X137279998Y-92667323D01*
X137280000Y-92667323D01*
X137280002Y-92667323D01*
X137335151Y-92662498D01*
X137500068Y-92648070D01*
X137713450Y-92590894D01*
X137913662Y-92497534D01*
X138094620Y-92370826D01*
X138250826Y-92214620D01*
X138377534Y-92033662D01*
X138437618Y-91904811D01*
X138483790Y-91852371D01*
X138550983Y-91833219D01*
X138617865Y-91853435D01*
X138662382Y-91904811D01*
X138722464Y-92033658D01*
X138722468Y-92033666D01*
X138849170Y-92214615D01*
X138849175Y-92214621D01*
X139005378Y-92370824D01*
X139005384Y-92370829D01*
X139186333Y-92497531D01*
X139186335Y-92497532D01*
X139186338Y-92497534D01*
X139386550Y-92590894D01*
X139599932Y-92648070D01*
X139757123Y-92661822D01*
X139819998Y-92667323D01*
X139820000Y-92667323D01*
X139820002Y-92667323D01*
X139875151Y-92662498D01*
X140040068Y-92648070D01*
X140253450Y-92590894D01*
X140453662Y-92497534D01*
X140634620Y-92370826D01*
X140790826Y-92214620D01*
X140917534Y-92033662D01*
X140977618Y-91904811D01*
X141023790Y-91852371D01*
X141090983Y-91833219D01*
X141157865Y-91853435D01*
G37*
G04 #@! TD.AperFunction*
G04 #@! TA.AperFunction,NonConductor*
G36*
X126068906Y-90020185D02*
G01*
X126114661Y-90072989D01*
X126124605Y-90142147D01*
X126095580Y-90205703D01*
X126076179Y-90223766D01*
X126000452Y-90280455D01*
X125914206Y-90395664D01*
X125914202Y-90395671D01*
X125863908Y-90530517D01*
X125858010Y-90585380D01*
X125857501Y-90590123D01*
X125857500Y-90590135D01*
X125857500Y-90900480D01*
X125837815Y-90967519D01*
X125821181Y-90988161D01*
X123455889Y-93353452D01*
X123455888Y-93353453D01*
X123452808Y-93358064D01*
X123379228Y-93468182D01*
X123379221Y-93468195D01*
X123326421Y-93595667D01*
X123326418Y-93595677D01*
X123299500Y-93731004D01*
X123299500Y-93731007D01*
X123299500Y-97831006D01*
X123299500Y-97968994D01*
X123299500Y-97968996D01*
X123299499Y-97968996D01*
X123326418Y-98104322D01*
X123326421Y-98104332D01*
X123379222Y-98231807D01*
X123455887Y-98346545D01*
X123455888Y-98346546D01*
X124518486Y-99409142D01*
X124602922Y-99493578D01*
X124616059Y-99506715D01*
X124730782Y-99583371D01*
X124730786Y-99583373D01*
X124730789Y-99583375D01*
X124805466Y-99614307D01*
X124805467Y-99614307D01*
X124805469Y-99614309D01*
X124845792Y-99631011D01*
X124858271Y-99636180D01*
X124858280Y-99636181D01*
X124858281Y-99636182D01*
X124885145Y-99641525D01*
X124885151Y-99641526D01*
X124885191Y-99641534D01*
X124975537Y-99659505D01*
X124993606Y-99663100D01*
X124993607Y-99663100D01*
X125685166Y-99663100D01*
X125752205Y-99682785D01*
X125786740Y-99715976D01*
X125824202Y-99769477D01*
X125978923Y-99924198D01*
X126121155Y-100023790D01*
X126158161Y-100049702D01*
X126309383Y-100120218D01*
X126361822Y-100166390D01*
X126380974Y-100233584D01*
X126360758Y-100300465D01*
X126309383Y-100344982D01*
X126158161Y-100415498D01*
X126158157Y-100415500D01*
X125978921Y-100541002D01*
X125824202Y-100695721D01*
X125698700Y-100874957D01*
X125698698Y-100874961D01*
X125606226Y-101073268D01*
X125606222Y-101073277D01*
X125549593Y-101284620D01*
X125549593Y-101284624D01*
X125530523Y-101502597D01*
X125530523Y-101502602D01*
X125549593Y-101720575D01*
X125549593Y-101720579D01*
X125606222Y-101931922D01*
X125606224Y-101931926D01*
X125606225Y-101931930D01*
X125632202Y-101987638D01*
X125698697Y-102130238D01*
X125698698Y-102130239D01*
X125824202Y-102309477D01*
X125978923Y-102464198D01*
X126121155Y-102563790D01*
X126158161Y-102589702D01*
X126309383Y-102660218D01*
X126361822Y-102706390D01*
X126380974Y-102773584D01*
X126360758Y-102840465D01*
X126309383Y-102884982D01*
X126158161Y-102955498D01*
X126158157Y-102955500D01*
X125978921Y-103081002D01*
X125824202Y-103235721D01*
X125698700Y-103414957D01*
X125698698Y-103414961D01*
X125606226Y-103613268D01*
X125606222Y-103613277D01*
X125549593Y-103824620D01*
X125549593Y-103824624D01*
X125530523Y-104042597D01*
X125530523Y-104042602D01*
X125549593Y-104260575D01*
X125549593Y-104260579D01*
X125606222Y-104471922D01*
X125606224Y-104471926D01*
X125606225Y-104471930D01*
X125632202Y-104527638D01*
X125698697Y-104670238D01*
X125698698Y-104670239D01*
X125824202Y-104849477D01*
X125978923Y-105004198D01*
X126158161Y-105129702D01*
X126309383Y-105200218D01*
X126361822Y-105246390D01*
X126380974Y-105313584D01*
X126360758Y-105380465D01*
X126309383Y-105424982D01*
X126158161Y-105495498D01*
X126158157Y-105495500D01*
X125978921Y-105621002D01*
X125824202Y-105775721D01*
X125698700Y-105954957D01*
X125698698Y-105954961D01*
X125606226Y-106153268D01*
X125606222Y-106153277D01*
X125549593Y-106364620D01*
X125549593Y-106364624D01*
X125530523Y-106582597D01*
X125530523Y-106582602D01*
X125549593Y-106800575D01*
X125549593Y-106800579D01*
X125606222Y-107011922D01*
X125606224Y-107011926D01*
X125606225Y-107011930D01*
X125632202Y-107067638D01*
X125698697Y-107210238D01*
X125698698Y-107210239D01*
X125824202Y-107389477D01*
X125978923Y-107544198D01*
X126121155Y-107643790D01*
X126158161Y-107669702D01*
X126309383Y-107740218D01*
X126361822Y-107786390D01*
X126380974Y-107853584D01*
X126360758Y-107920465D01*
X126309383Y-107964982D01*
X126158161Y-108035498D01*
X126158157Y-108035500D01*
X125978921Y-108161002D01*
X125824202Y-108315721D01*
X125698700Y-108494957D01*
X125698698Y-108494961D01*
X125606226Y-108693268D01*
X125606222Y-108693277D01*
X125549593Y-108904620D01*
X125549593Y-108904623D01*
X125530523Y-109122600D01*
X125548354Y-109326420D01*
X125549593Y-109340575D01*
X125549593Y-109340579D01*
X125606222Y-109551922D01*
X125606224Y-109551926D01*
X125606225Y-109551930D01*
X125632202Y-109607638D01*
X125698697Y-109750238D01*
X125698698Y-109750239D01*
X125824202Y-109929477D01*
X125978923Y-110084198D01*
X126121155Y-110183790D01*
X126158161Y-110209702D01*
X126309383Y-110280218D01*
X126361822Y-110326390D01*
X126380974Y-110393584D01*
X126360758Y-110460465D01*
X126309383Y-110504982D01*
X126158161Y-110575498D01*
X126158157Y-110575500D01*
X125978921Y-110701002D01*
X125824202Y-110855721D01*
X125698700Y-111034957D01*
X125698698Y-111034961D01*
X125606226Y-111233268D01*
X125606222Y-111233277D01*
X125549593Y-111444620D01*
X125549593Y-111444624D01*
X125530523Y-111662597D01*
X125530523Y-111662602D01*
X125549593Y-111880575D01*
X125549593Y-111880579D01*
X125606222Y-112091922D01*
X125606224Y-112091926D01*
X125606225Y-112091930D01*
X125622308Y-112126420D01*
X125698697Y-112290238D01*
X125698698Y-112290239D01*
X125824202Y-112469477D01*
X125978923Y-112624198D01*
X126121155Y-112723790D01*
X126158161Y-112749702D01*
X126309383Y-112820218D01*
X126361822Y-112866390D01*
X126380974Y-112933584D01*
X126360758Y-113000465D01*
X126309383Y-113044982D01*
X126158161Y-113115498D01*
X126158157Y-113115500D01*
X125978921Y-113241002D01*
X125824202Y-113395721D01*
X125698700Y-113574957D01*
X125698698Y-113574961D01*
X125606226Y-113773268D01*
X125606222Y-113773277D01*
X125549593Y-113984620D01*
X125549593Y-113984624D01*
X125530523Y-114202597D01*
X125530523Y-114202602D01*
X125549593Y-114420575D01*
X125549593Y-114420579D01*
X125606222Y-114631922D01*
X125606224Y-114631926D01*
X125606225Y-114631930D01*
X125632202Y-114687638D01*
X125698697Y-114830238D01*
X125698698Y-114830239D01*
X125824202Y-115009477D01*
X125978923Y-115164198D01*
X126121155Y-115263790D01*
X126158161Y-115289702D01*
X126309383Y-115360218D01*
X126361822Y-115406390D01*
X126380974Y-115473584D01*
X126360758Y-115540465D01*
X126309383Y-115584982D01*
X126158161Y-115655498D01*
X126158157Y-115655500D01*
X125978924Y-115781000D01*
X125824198Y-115935727D01*
X125786741Y-115989223D01*
X125732165Y-116032848D01*
X125685166Y-116042100D01*
X123188404Y-116042100D01*
X123053077Y-116069018D01*
X123053067Y-116069021D01*
X122925591Y-116121823D01*
X122810858Y-116198485D01*
X122748268Y-116261074D01*
X122686944Y-116294558D01*
X122624774Y-116290935D01*
X122624584Y-116291687D01*
X122620672Y-116290696D01*
X122620340Y-116290677D01*
X122619619Y-116290429D01*
X122374335Y-116249500D01*
X122125665Y-116249500D01*
X121880383Y-116290429D01*
X121645197Y-116371169D01*
X121645188Y-116371172D01*
X121426493Y-116489524D01*
X121230257Y-116642261D01*
X121061833Y-116825217D01*
X120952007Y-116993321D01*
X120898861Y-117038678D01*
X120848198Y-117049500D01*
X117151802Y-117049500D01*
X117084763Y-117029815D01*
X117047993Y-116993321D01*
X116938166Y-116825217D01*
X116862113Y-116742602D01*
X116769744Y-116642262D01*
X116573509Y-116489526D01*
X116573507Y-116489525D01*
X116573506Y-116489524D01*
X116354811Y-116371172D01*
X116354802Y-116371169D01*
X116119616Y-116290429D01*
X115874335Y-116249500D01*
X115625665Y-116249500D01*
X115380383Y-116290429D01*
X115145197Y-116371169D01*
X115145188Y-116371172D01*
X114926493Y-116489524D01*
X114730257Y-116642261D01*
X114561833Y-116825217D01*
X114425826Y-117033393D01*
X114325936Y-117261118D01*
X114264892Y-117502175D01*
X114264890Y-117502187D01*
X114244357Y-117749994D01*
X114244357Y-117750005D01*
X114264890Y-117997812D01*
X114264892Y-117997824D01*
X114325936Y-118238881D01*
X114425826Y-118466606D01*
X114561833Y-118674782D01*
X114561836Y-118674785D01*
X114730256Y-118857738D01*
X114926491Y-119010474D01*
X115145190Y-119128828D01*
X115380386Y-119209571D01*
X115625665Y-119250500D01*
X115874335Y-119250500D01*
X116119614Y-119209571D01*
X116354810Y-119128828D01*
X116573509Y-119010474D01*
X116769744Y-118857738D01*
X116938164Y-118674785D01*
X117047993Y-118506679D01*
X117101139Y-118461322D01*
X117151802Y-118450500D01*
X120848198Y-118450500D01*
X120915237Y-118470185D01*
X120952007Y-118506679D01*
X121061833Y-118674782D01*
X121061836Y-118674785D01*
X121230256Y-118857738D01*
X121426491Y-119010474D01*
X121645190Y-119128828D01*
X121880386Y-119209571D01*
X122125665Y-119250500D01*
X122374335Y-119250500D01*
X122619614Y-119209571D01*
X122854810Y-119128828D01*
X123073509Y-119010474D01*
X123269744Y-118857738D01*
X123438164Y-118674785D01*
X123574173Y-118466607D01*
X123674063Y-118238881D01*
X123735108Y-117997821D01*
X123735109Y-117997812D01*
X123755643Y-117750005D01*
X123755643Y-117750004D01*
X123755642Y-117749994D01*
X123741336Y-117577339D01*
X123755418Y-117508903D01*
X123804263Y-117458944D01*
X123864913Y-117443100D01*
X125685166Y-117443100D01*
X125752205Y-117462785D01*
X125786741Y-117495977D01*
X125818629Y-117541519D01*
X125824202Y-117549477D01*
X125978923Y-117704198D01*
X126121155Y-117803790D01*
X126158161Y-117829702D01*
X126309383Y-117900218D01*
X126361822Y-117946390D01*
X126380974Y-118013584D01*
X126360758Y-118080465D01*
X126309383Y-118124982D01*
X126158161Y-118195498D01*
X126158157Y-118195500D01*
X125978921Y-118321002D01*
X125824202Y-118475721D01*
X125698700Y-118654957D01*
X125698698Y-118654961D01*
X125606226Y-118853268D01*
X125606222Y-118853277D01*
X125549593Y-119064620D01*
X125549593Y-119064624D01*
X125530523Y-119282597D01*
X125530523Y-119282602D01*
X125549593Y-119500575D01*
X125549593Y-119500579D01*
X125606222Y-119711922D01*
X125606224Y-119711926D01*
X125606225Y-119711930D01*
X125632202Y-119767638D01*
X125698697Y-119910238D01*
X125698698Y-119910239D01*
X125824202Y-120089477D01*
X125978923Y-120244198D01*
X126121155Y-120343790D01*
X126158161Y-120369702D01*
X126309383Y-120440218D01*
X126361822Y-120486390D01*
X126380974Y-120553584D01*
X126360758Y-120620465D01*
X126309383Y-120664982D01*
X126158161Y-120735498D01*
X126158157Y-120735500D01*
X125978921Y-120861002D01*
X125824202Y-121015721D01*
X125698700Y-121194957D01*
X125698698Y-121194961D01*
X125606226Y-121393268D01*
X125606222Y-121393277D01*
X125549593Y-121604620D01*
X125549593Y-121604623D01*
X125530523Y-121822600D01*
X125546234Y-122002187D01*
X125549593Y-122040575D01*
X125549593Y-122040579D01*
X125606222Y-122251922D01*
X125606224Y-122251926D01*
X125606225Y-122251930D01*
X125632202Y-122307638D01*
X125698697Y-122450238D01*
X125698698Y-122450239D01*
X125824202Y-122629477D01*
X125978923Y-122784198D01*
X126121155Y-122883790D01*
X126158161Y-122909702D01*
X126309383Y-122980218D01*
X126361822Y-123026390D01*
X126380974Y-123093584D01*
X126360758Y-123160465D01*
X126309383Y-123204982D01*
X126158161Y-123275498D01*
X126158157Y-123275500D01*
X125978921Y-123401002D01*
X125824202Y-123555721D01*
X125698695Y-123734964D01*
X125697229Y-123737505D01*
X125696290Y-123738399D01*
X125695593Y-123739396D01*
X125695392Y-123739255D01*
X125646659Y-123785718D01*
X125589845Y-123799500D01*
X123841519Y-123799500D01*
X123774480Y-123779815D01*
X123753838Y-123763181D01*
X123391572Y-123400915D01*
X123358087Y-123339592D01*
X123363071Y-123269900D01*
X123388022Y-123229252D01*
X123438164Y-123174785D01*
X123574173Y-122966607D01*
X123674063Y-122738881D01*
X123735108Y-122497821D01*
X123755643Y-122250000D01*
X123743986Y-122109322D01*
X123735109Y-122002187D01*
X123735107Y-122002175D01*
X123674063Y-121761118D01*
X123574173Y-121533393D01*
X123438166Y-121325217D01*
X123369547Y-121250677D01*
X123269744Y-121142262D01*
X123073509Y-120989526D01*
X123073507Y-120989525D01*
X123073506Y-120989524D01*
X122854811Y-120871172D01*
X122854802Y-120871169D01*
X122619616Y-120790429D01*
X122374335Y-120749500D01*
X122125665Y-120749500D01*
X121880383Y-120790429D01*
X121645197Y-120871169D01*
X121645188Y-120871172D01*
X121426493Y-120989524D01*
X121230257Y-121142261D01*
X121061833Y-121325217D01*
X120952007Y-121493321D01*
X120898861Y-121538678D01*
X120848198Y-121549500D01*
X117151802Y-121549500D01*
X117084763Y-121529815D01*
X117047993Y-121493321D01*
X116938166Y-121325217D01*
X116869547Y-121250677D01*
X116769744Y-121142262D01*
X116573509Y-120989526D01*
X116573507Y-120989525D01*
X116573506Y-120989524D01*
X116354811Y-120871172D01*
X116354802Y-120871169D01*
X116119616Y-120790429D01*
X115874335Y-120749500D01*
X115625665Y-120749500D01*
X115380383Y-120790429D01*
X115145197Y-120871169D01*
X115145188Y-120871172D01*
X114926493Y-120989524D01*
X114730257Y-121142261D01*
X114561833Y-121325217D01*
X114425826Y-121533393D01*
X114325936Y-121761118D01*
X114264892Y-122002175D01*
X114264890Y-122002187D01*
X114244357Y-122249994D01*
X114244357Y-122250005D01*
X114264890Y-122497812D01*
X114264892Y-122497824D01*
X114325936Y-122738881D01*
X114425826Y-122966606D01*
X114561833Y-123174782D01*
X114561836Y-123174785D01*
X114730256Y-123357738D01*
X114926491Y-123510474D01*
X114926493Y-123510475D01*
X115077797Y-123592357D01*
X115145190Y-123628828D01*
X115380386Y-123709571D01*
X115625665Y-123750500D01*
X115874335Y-123750500D01*
X116119614Y-123709571D01*
X116354810Y-123628828D01*
X116573509Y-123510474D01*
X116769744Y-123357738D01*
X116938164Y-123174785D01*
X117013936Y-123058807D01*
X117047993Y-123006679D01*
X117101139Y-122961322D01*
X117151802Y-122950500D01*
X120848198Y-122950500D01*
X120915237Y-122970185D01*
X120952007Y-123006679D01*
X121061833Y-123174782D01*
X121061836Y-123174785D01*
X121230256Y-123357738D01*
X121426491Y-123510474D01*
X121426493Y-123510475D01*
X121642374Y-123627304D01*
X121686458Y-123667467D01*
X121705888Y-123696546D01*
X123053454Y-125044112D01*
X123168192Y-125120777D01*
X123250685Y-125154946D01*
X123295672Y-125173580D01*
X123295676Y-125173580D01*
X123295677Y-125173581D01*
X123431003Y-125200500D01*
X123431006Y-125200500D01*
X123431007Y-125200500D01*
X125803863Y-125200500D01*
X125870902Y-125220185D01*
X125891544Y-125236819D01*
X125978923Y-125324198D01*
X126121155Y-125423790D01*
X126158161Y-125449702D01*
X126309383Y-125520218D01*
X126361822Y-125566390D01*
X126380974Y-125633584D01*
X126360758Y-125700465D01*
X126309383Y-125744982D01*
X126158161Y-125815498D01*
X126158157Y-125815500D01*
X125978921Y-125941002D01*
X125824202Y-126095721D01*
X125698700Y-126274957D01*
X125698698Y-126274961D01*
X125606226Y-126473268D01*
X125606222Y-126473277D01*
X125549593Y-126684620D01*
X125549593Y-126684624D01*
X125530523Y-126902597D01*
X125530523Y-126902602D01*
X125549593Y-127120575D01*
X125549593Y-127120579D01*
X125606222Y-127331922D01*
X125606224Y-127331926D01*
X125606225Y-127331930D01*
X125632202Y-127387638D01*
X125698697Y-127530238D01*
X125698698Y-127530239D01*
X125824202Y-127709477D01*
X125978923Y-127864198D01*
X126158160Y-127989701D01*
X126158161Y-127989702D01*
X126309383Y-128060218D01*
X126361822Y-128106390D01*
X126380974Y-128173584D01*
X126360758Y-128240465D01*
X126309383Y-128284982D01*
X126158161Y-128355498D01*
X126158157Y-128355500D01*
X125978921Y-128481002D01*
X125824202Y-128635721D01*
X125698700Y-128814957D01*
X125698698Y-128814961D01*
X125606226Y-129013268D01*
X125606222Y-129013277D01*
X125549593Y-129224620D01*
X125549593Y-129224624D01*
X125530523Y-129442597D01*
X125530523Y-129442602D01*
X125549593Y-129660575D01*
X125549593Y-129660579D01*
X125606222Y-129871922D01*
X125606224Y-129871926D01*
X125606225Y-129871930D01*
X125632202Y-129927638D01*
X125698697Y-130070238D01*
X125698698Y-130070239D01*
X125824202Y-130249477D01*
X125978923Y-130404198D01*
X126121155Y-130503790D01*
X126158161Y-130529702D01*
X126309383Y-130600218D01*
X126361822Y-130646390D01*
X126380974Y-130713584D01*
X126360758Y-130780465D01*
X126309383Y-130824982D01*
X126158161Y-130895498D01*
X126158157Y-130895500D01*
X125978921Y-131021002D01*
X125824202Y-131175721D01*
X125698700Y-131354957D01*
X125698698Y-131354961D01*
X125606226Y-131553268D01*
X125606222Y-131553277D01*
X125549593Y-131764620D01*
X125549593Y-131764624D01*
X125530523Y-131982597D01*
X125530523Y-131982602D01*
X125549593Y-132200575D01*
X125549593Y-132200579D01*
X125606222Y-132411922D01*
X125606224Y-132411926D01*
X125606225Y-132411930D01*
X125632202Y-132467638D01*
X125698697Y-132610238D01*
X125698698Y-132610239D01*
X125824202Y-132789477D01*
X125978923Y-132944198D01*
X126121155Y-133043790D01*
X126158161Y-133069702D01*
X126309383Y-133140218D01*
X126361822Y-133186390D01*
X126380974Y-133253584D01*
X126360758Y-133320465D01*
X126309383Y-133364982D01*
X126158161Y-133435498D01*
X126158157Y-133435500D01*
X125978921Y-133561002D01*
X125824202Y-133715721D01*
X125698700Y-133894957D01*
X125698698Y-133894961D01*
X125606226Y-134093268D01*
X125606222Y-134093277D01*
X125549593Y-134304620D01*
X125549593Y-134304623D01*
X125530523Y-134522600D01*
X125546042Y-134699993D01*
X125549593Y-134740575D01*
X125549593Y-134740579D01*
X125606222Y-134951922D01*
X125606224Y-134951926D01*
X125606225Y-134951930D01*
X125643238Y-135031305D01*
X125698697Y-135150238D01*
X125698698Y-135150239D01*
X125824202Y-135329477D01*
X125978923Y-135484198D01*
X126121155Y-135583790D01*
X126158161Y-135609702D01*
X126309383Y-135680218D01*
X126361822Y-135726390D01*
X126380974Y-135793584D01*
X126360758Y-135860465D01*
X126309383Y-135904982D01*
X126158161Y-135975498D01*
X126158157Y-135975500D01*
X125978921Y-136101002D01*
X125824202Y-136255721D01*
X125698700Y-136434957D01*
X125698698Y-136434961D01*
X125606226Y-136633268D01*
X125606222Y-136633277D01*
X125549593Y-136844620D01*
X125549593Y-136844624D01*
X125530523Y-137062597D01*
X125530523Y-137062602D01*
X125549593Y-137280575D01*
X125549593Y-137280579D01*
X125606222Y-137491922D01*
X125606224Y-137491926D01*
X125606225Y-137491930D01*
X125632202Y-137547638D01*
X125698697Y-137690238D01*
X125698698Y-137690239D01*
X125824202Y-137869477D01*
X125978923Y-138024198D01*
X126121155Y-138123790D01*
X126158161Y-138149702D01*
X126309383Y-138220218D01*
X126361822Y-138266390D01*
X126380974Y-138333584D01*
X126360758Y-138400465D01*
X126309383Y-138444982D01*
X126158161Y-138515498D01*
X126158157Y-138515500D01*
X125978921Y-138641002D01*
X125824202Y-138795721D01*
X125698700Y-138974957D01*
X125698698Y-138974961D01*
X125606226Y-139173268D01*
X125606222Y-139173277D01*
X125549593Y-139384620D01*
X125549593Y-139384624D01*
X125530523Y-139602597D01*
X125530523Y-139602602D01*
X125549593Y-139820575D01*
X125549593Y-139820579D01*
X125606222Y-140031922D01*
X125606224Y-140031926D01*
X125606225Y-140031930D01*
X125629002Y-140080775D01*
X125698697Y-140230238D01*
X125698698Y-140230239D01*
X125824202Y-140409477D01*
X125978923Y-140564198D01*
X126121155Y-140663790D01*
X126158161Y-140689702D01*
X126309383Y-140760218D01*
X126361822Y-140806390D01*
X126380974Y-140873584D01*
X126360758Y-140940465D01*
X126309383Y-140984982D01*
X126158161Y-141055498D01*
X126158157Y-141055500D01*
X125978921Y-141181002D01*
X125824202Y-141335721D01*
X125698700Y-141514957D01*
X125698698Y-141514961D01*
X125606226Y-141713268D01*
X125606222Y-141713277D01*
X125549593Y-141924620D01*
X125549593Y-141924624D01*
X125530523Y-142142597D01*
X125530523Y-142142602D01*
X125549593Y-142360575D01*
X125549593Y-142360579D01*
X125606222Y-142571922D01*
X125606224Y-142571926D01*
X125606225Y-142571930D01*
X125632202Y-142627638D01*
X125698697Y-142770238D01*
X125698698Y-142770239D01*
X125824202Y-142949477D01*
X125978923Y-143104198D01*
X126158161Y-143229702D01*
X126225409Y-143261060D01*
X126277848Y-143307232D01*
X126297000Y-143374426D01*
X126276784Y-143441307D01*
X126225410Y-143485824D01*
X126108157Y-143540500D01*
X125928921Y-143666002D01*
X125774202Y-143820721D01*
X125648700Y-143999957D01*
X125648698Y-143999961D01*
X125556226Y-144198268D01*
X125556222Y-144198277D01*
X125499593Y-144409620D01*
X125499593Y-144409624D01*
X125480523Y-144627597D01*
X125480523Y-144627602D01*
X125499593Y-144845575D01*
X125499593Y-144845579D01*
X125556222Y-145056922D01*
X125556224Y-145056926D01*
X125556225Y-145056930D01*
X125595794Y-145141785D01*
X125648697Y-145255238D01*
X125648698Y-145255239D01*
X125774202Y-145434477D01*
X125928923Y-145589198D01*
X126108161Y-145714702D01*
X126306470Y-145807175D01*
X126306476Y-145807176D01*
X126306477Y-145807177D01*
X126337164Y-145815399D01*
X126517823Y-145863807D01*
X126700726Y-145879808D01*
X126735798Y-145882877D01*
X126735800Y-145882877D01*
X126735802Y-145882877D01*
X126764054Y-145880405D01*
X126953777Y-145863807D01*
X127165130Y-145807175D01*
X127363439Y-145714702D01*
X127542677Y-145589198D01*
X127697398Y-145434477D01*
X127822902Y-145255239D01*
X127915375Y-145056930D01*
X127972007Y-144845577D01*
X127991077Y-144627600D01*
X127972007Y-144409623D01*
X127915375Y-144198270D01*
X127822902Y-143999962D01*
X127822900Y-143999959D01*
X127822899Y-143999957D01*
X127697399Y-143820724D01*
X127626381Y-143749706D01*
X127542677Y-143666002D01*
X127387382Y-143557263D01*
X127363438Y-143540497D01*
X127296190Y-143509139D01*
X127243751Y-143462966D01*
X127224599Y-143395772D01*
X127244815Y-143328891D01*
X127296189Y-143284376D01*
X127413439Y-143229702D01*
X127592677Y-143104198D01*
X127747398Y-142949477D01*
X127872902Y-142770239D01*
X127965375Y-142571930D01*
X128022007Y-142360577D01*
X128041077Y-142142600D01*
X128022007Y-141924623D01*
X127965375Y-141713270D01*
X127872902Y-141514962D01*
X127872900Y-141514959D01*
X127872899Y-141514957D01*
X127747399Y-141335724D01*
X127747396Y-141335721D01*
X127592677Y-141181002D01*
X127413439Y-141055498D01*
X127262214Y-140984981D01*
X127209777Y-140938810D01*
X127190625Y-140871616D01*
X127210841Y-140804735D01*
X127262214Y-140760218D01*
X127413439Y-140689702D01*
X127592677Y-140564198D01*
X127747398Y-140409477D01*
X127872902Y-140230239D01*
X127965375Y-140031930D01*
X128022007Y-139820577D01*
X128041077Y-139602600D01*
X128022007Y-139384623D01*
X127965375Y-139173270D01*
X127872902Y-138974962D01*
X127872900Y-138974959D01*
X127872899Y-138974957D01*
X127747399Y-138795724D01*
X127674856Y-138723181D01*
X127592677Y-138641002D01*
X127413439Y-138515498D01*
X127262214Y-138444981D01*
X127209777Y-138398810D01*
X127190625Y-138331616D01*
X127210841Y-138264735D01*
X127262214Y-138220218D01*
X127413439Y-138149702D01*
X127592677Y-138024198D01*
X127747398Y-137869477D01*
X127872902Y-137690239D01*
X127965375Y-137491930D01*
X128022007Y-137280577D01*
X128041077Y-137062600D01*
X128022007Y-136844623D01*
X127965375Y-136633270D01*
X127872902Y-136434962D01*
X127872900Y-136434959D01*
X127872899Y-136434957D01*
X127747399Y-136255724D01*
X127674127Y-136182452D01*
X127592677Y-136101002D01*
X127413439Y-135975498D01*
X127262214Y-135904981D01*
X127209777Y-135858810D01*
X127190625Y-135791616D01*
X127210841Y-135724735D01*
X127262214Y-135680218D01*
X127413439Y-135609702D01*
X127592677Y-135484198D01*
X127747398Y-135329477D01*
X127872902Y-135150239D01*
X127965375Y-134951930D01*
X128022007Y-134740577D01*
X128041077Y-134522600D01*
X128024827Y-134336865D01*
X128038593Y-134268370D01*
X128060671Y-134238384D01*
X137144114Y-125154943D01*
X137220775Y-125040211D01*
X137226297Y-125026881D01*
X137273578Y-124912732D01*
X137273580Y-124912728D01*
X137286527Y-124847638D01*
X137300500Y-124777396D01*
X137300500Y-100041518D01*
X137320185Y-99974479D01*
X137336814Y-99953842D01*
X142511944Y-94778711D01*
X169649500Y-94778711D01*
X169649500Y-95021288D01*
X169681161Y-95261785D01*
X169743947Y-95496104D01*
X169836773Y-95720205D01*
X169836776Y-95720212D01*
X169958064Y-95930289D01*
X169958066Y-95930292D01*
X169958067Y-95930293D01*
X170105733Y-96122736D01*
X170105739Y-96122743D01*
X170277256Y-96294260D01*
X170277262Y-96294265D01*
X170469711Y-96441936D01*
X170679788Y-96563224D01*
X170903900Y-96656054D01*
X171138211Y-96718838D01*
X171318586Y-96742584D01*
X171378711Y-96750500D01*
X171378712Y-96750500D01*
X171621289Y-96750500D01*
X171669388Y-96744167D01*
X171861789Y-96718838D01*
X172096100Y-96656054D01*
X172320212Y-96563224D01*
X172530289Y-96441936D01*
X172722738Y-96294265D01*
X172894265Y-96122738D01*
X173041936Y-95930289D01*
X173163224Y-95720212D01*
X173256054Y-95496100D01*
X173318838Y-95261789D01*
X173350500Y-95021288D01*
X173350500Y-94778712D01*
X173318838Y-94538211D01*
X173256054Y-94303900D01*
X173163224Y-94079788D01*
X173041936Y-93869711D01*
X172894265Y-93677262D01*
X172894260Y-93677256D01*
X172722743Y-93505739D01*
X172722736Y-93505733D01*
X172530293Y-93358067D01*
X172530292Y-93358066D01*
X172530289Y-93358064D01*
X172320212Y-93236776D01*
X172320205Y-93236773D01*
X172096104Y-93143947D01*
X171861785Y-93081161D01*
X171621289Y-93049500D01*
X171621288Y-93049500D01*
X171378712Y-93049500D01*
X171378711Y-93049500D01*
X171138214Y-93081161D01*
X170903895Y-93143947D01*
X170679794Y-93236773D01*
X170679785Y-93236777D01*
X170497851Y-93341817D01*
X170477698Y-93353453D01*
X170469706Y-93358067D01*
X170277263Y-93505733D01*
X170277256Y-93505739D01*
X170105739Y-93677256D01*
X170105733Y-93677263D01*
X169958067Y-93869706D01*
X169836777Y-94079785D01*
X169836773Y-94079794D01*
X169743947Y-94303895D01*
X169681161Y-94538214D01*
X169649500Y-94778711D01*
X142511944Y-94778711D01*
X144604706Y-92685949D01*
X144666027Y-92652466D01*
X144703186Y-92650104D01*
X144884531Y-92665969D01*
X144899999Y-92667323D01*
X144900000Y-92667323D01*
X144900002Y-92667323D01*
X144955151Y-92662498D01*
X145120068Y-92648070D01*
X145333450Y-92590894D01*
X145533662Y-92497534D01*
X145714620Y-92370826D01*
X145870826Y-92214620D01*
X145997534Y-92033662D01*
X146090894Y-91833450D01*
X146148070Y-91620068D01*
X146167323Y-91400000D01*
X146148070Y-91179932D01*
X146090894Y-90966550D01*
X145997534Y-90766339D01*
X145902125Y-90630080D01*
X145870827Y-90585381D01*
X145815962Y-90530516D01*
X145714620Y-90429174D01*
X145714616Y-90429171D01*
X145714615Y-90429170D01*
X145533666Y-90302468D01*
X145533662Y-90302466D01*
X145393016Y-90236882D01*
X145340577Y-90190710D01*
X145321425Y-90123516D01*
X145341641Y-90056635D01*
X145394806Y-90011301D01*
X145445421Y-90000500D01*
X175375500Y-90000500D01*
X175442539Y-90020185D01*
X175488294Y-90072989D01*
X175499500Y-90124500D01*
X175499500Y-150175500D01*
X175479815Y-150242539D01*
X175427011Y-150288294D01*
X175375500Y-150299500D01*
X113927565Y-150299500D01*
X113860526Y-150279815D01*
X113814771Y-150227011D01*
X113803566Y-150174893D01*
X113818277Y-147168996D01*
X138199499Y-147168996D01*
X138226418Y-147304322D01*
X138226421Y-147304332D01*
X138279222Y-147431807D01*
X138355885Y-147546542D01*
X138355888Y-147546546D01*
X140653454Y-149844112D01*
X140768192Y-149920777D01*
X140895667Y-149973578D01*
X140895672Y-149973580D01*
X140895676Y-149973580D01*
X140895677Y-149973581D01*
X141031003Y-150000500D01*
X141031006Y-150000500D01*
X159808996Y-150000500D01*
X159900040Y-149982389D01*
X159944328Y-149973580D01*
X160008069Y-149947177D01*
X160071807Y-149920777D01*
X160071808Y-149920776D01*
X160071811Y-149920775D01*
X160186543Y-149844114D01*
X165371945Y-144658711D01*
X169649500Y-144658711D01*
X169649500Y-144901288D01*
X169681161Y-145141785D01*
X169743947Y-145376104D01*
X169808659Y-145532331D01*
X169836776Y-145600212D01*
X169958064Y-145810289D01*
X169958066Y-145810292D01*
X169958067Y-145810293D01*
X170105733Y-146002736D01*
X170105739Y-146002743D01*
X170277256Y-146174260D01*
X170277262Y-146174265D01*
X170469711Y-146321936D01*
X170679788Y-146443224D01*
X170903900Y-146536054D01*
X171138211Y-146598838D01*
X171318586Y-146622584D01*
X171378711Y-146630500D01*
X171378712Y-146630500D01*
X171621289Y-146630500D01*
X171669388Y-146624167D01*
X171861789Y-146598838D01*
X172096100Y-146536054D01*
X172320212Y-146443224D01*
X172530289Y-146321936D01*
X172722738Y-146174265D01*
X172894265Y-146002738D01*
X173041936Y-145810289D01*
X173163224Y-145600212D01*
X173256054Y-145376100D01*
X173318838Y-145141789D01*
X173350500Y-144901288D01*
X173350500Y-144658712D01*
X173318838Y-144418211D01*
X173256054Y-144183900D01*
X173163224Y-143959788D01*
X173041936Y-143749711D01*
X172894265Y-143557262D01*
X172894260Y-143557256D01*
X172722743Y-143385739D01*
X172722736Y-143385733D01*
X172530293Y-143238067D01*
X172530292Y-143238066D01*
X172530289Y-143238064D01*
X172320212Y-143116776D01*
X172289834Y-143104193D01*
X172096104Y-143023947D01*
X171863416Y-142961598D01*
X171861789Y-142961162D01*
X171861788Y-142961161D01*
X171861785Y-142961161D01*
X171621289Y-142929500D01*
X171621288Y-142929500D01*
X171378712Y-142929500D01*
X171378711Y-142929500D01*
X171138214Y-142961161D01*
X170903895Y-143023947D01*
X170679794Y-143116773D01*
X170679785Y-143116777D01*
X170556424Y-143188000D01*
X170472928Y-143236207D01*
X170469706Y-143238067D01*
X170277263Y-143385733D01*
X170277256Y-143385739D01*
X170105739Y-143557256D01*
X170105733Y-143557263D01*
X169958067Y-143749706D01*
X169836777Y-143959785D01*
X169836773Y-143959794D01*
X169743947Y-144183895D01*
X169681161Y-144418214D01*
X169649500Y-144658711D01*
X165371945Y-144658711D01*
X171153838Y-138876817D01*
X171215161Y-138843333D01*
X171241519Y-138840499D01*
X172547871Y-138840499D01*
X172547872Y-138840499D01*
X172607483Y-138834091D01*
X172742331Y-138783796D01*
X172857546Y-138697546D01*
X172943796Y-138582331D01*
X172994091Y-138447483D01*
X173000500Y-138387873D01*
X173000499Y-136492128D01*
X172994091Y-136432517D01*
X172979027Y-136392129D01*
X172943797Y-136297671D01*
X172943793Y-136297664D01*
X172857547Y-136182455D01*
X172857544Y-136182452D01*
X172742335Y-136096206D01*
X172742328Y-136096202D01*
X172662094Y-136066277D01*
X172606160Y-136024406D01*
X172581743Y-135958941D01*
X172596595Y-135890668D01*
X172614190Y-135866121D01*
X172708979Y-135763153D01*
X172835924Y-135568849D01*
X172929157Y-135356300D01*
X172986134Y-135131305D01*
X172996381Y-135007639D01*
X173005300Y-134900006D01*
X173005300Y-134899993D01*
X172986135Y-134668702D01*
X172986133Y-134668691D01*
X172929157Y-134443699D01*
X172835924Y-134231151D01*
X172708983Y-134036852D01*
X172708980Y-134036849D01*
X172708979Y-134036847D01*
X172551784Y-133866087D01*
X172551779Y-133866083D01*
X172551777Y-133866081D01*
X172368634Y-133723535D01*
X172368622Y-133723527D01*
X172365473Y-133721823D01*
X172364433Y-133720790D01*
X172364334Y-133720726D01*
X172364347Y-133720705D01*
X172315887Y-133672599D01*
X172300500Y-133612773D01*
X172300500Y-131577884D01*
X172320185Y-131510845D01*
X172354645Y-131475433D01*
X172563217Y-131333232D01*
X172750050Y-131159877D01*
X172908959Y-130960612D01*
X173036393Y-130739888D01*
X173129508Y-130502637D01*
X173186222Y-130254157D01*
X173197259Y-130106877D01*
X173205268Y-130000004D01*
X173205268Y-129999995D01*
X173186222Y-129745845D01*
X173167962Y-129665843D01*
X173129508Y-129497363D01*
X173036393Y-129260112D01*
X172908959Y-129039388D01*
X172750050Y-128840123D01*
X172563217Y-128666768D01*
X172352634Y-128523195D01*
X172352630Y-128523193D01*
X172352627Y-128523191D01*
X172352626Y-128523190D01*
X172123006Y-128412612D01*
X172123008Y-128412612D01*
X171879466Y-128337489D01*
X171879462Y-128337488D01*
X171879458Y-128337487D01*
X171758231Y-128319214D01*
X171627440Y-128299500D01*
X171627435Y-128299500D01*
X171372565Y-128299500D01*
X171372559Y-128299500D01*
X171215609Y-128323157D01*
X171120542Y-128337487D01*
X171120539Y-128337488D01*
X171120533Y-128337489D01*
X170876992Y-128412612D01*
X170647373Y-128523190D01*
X170647372Y-128523191D01*
X170436782Y-128666768D01*
X170249952Y-128840121D01*
X170249950Y-128840123D01*
X170091041Y-129039388D01*
X169963608Y-129260109D01*
X169870492Y-129497362D01*
X169870490Y-129497369D01*
X169813777Y-129745845D01*
X169794732Y-129999995D01*
X169794732Y-130000004D01*
X169813777Y-130254154D01*
X169860216Y-130457618D01*
X169870492Y-130502637D01*
X169953283Y-130713584D01*
X169963608Y-130739890D01*
X169971118Y-130752898D01*
X170091041Y-130960612D01*
X170249950Y-131159877D01*
X170436783Y-131333232D01*
X170647366Y-131476805D01*
X170647369Y-131476806D01*
X170647370Y-131476807D01*
X170829302Y-131564421D01*
X170881161Y-131611243D01*
X170899500Y-131676141D01*
X170899500Y-133612773D01*
X170879815Y-133679812D01*
X170834527Y-133721823D01*
X170831377Y-133723527D01*
X170831365Y-133723535D01*
X170648222Y-133866081D01*
X170648219Y-133866084D01*
X170648216Y-133866086D01*
X170648216Y-133866087D01*
X170621636Y-133894961D01*
X170491016Y-134036852D01*
X170364075Y-134231151D01*
X170270842Y-134443699D01*
X170213866Y-134668691D01*
X170213864Y-134668702D01*
X170194700Y-134899993D01*
X170194700Y-134900006D01*
X170213864Y-135131297D01*
X170213866Y-135131308D01*
X170270842Y-135356300D01*
X170364075Y-135568848D01*
X170491016Y-135763147D01*
X170491019Y-135763151D01*
X170491021Y-135763153D01*
X170585803Y-135866114D01*
X170616724Y-135928767D01*
X170608864Y-135998193D01*
X170564716Y-136052348D01*
X170537906Y-136066277D01*
X170457669Y-136096203D01*
X170457664Y-136096206D01*
X170342455Y-136182452D01*
X170342452Y-136182455D01*
X170256206Y-136297664D01*
X170256202Y-136297671D01*
X170205908Y-136432517D01*
X170199656Y-136490677D01*
X170199501Y-136492123D01*
X170199500Y-136492135D01*
X170199500Y-137798480D01*
X170179815Y-137865519D01*
X170163181Y-137886161D01*
X159486162Y-148563181D01*
X159424839Y-148596666D01*
X159398481Y-148599500D01*
X141441519Y-148599500D01*
X141374480Y-148579815D01*
X141353838Y-148563181D01*
X139636819Y-146846162D01*
X139603334Y-146784839D01*
X139600500Y-146758481D01*
X139600500Y-117541519D01*
X139620185Y-117474480D01*
X139636819Y-117453838D01*
X142293838Y-114796819D01*
X142355161Y-114763334D01*
X142381519Y-114760500D01*
X143399366Y-114760500D01*
X143466405Y-114780185D01*
X143500940Y-114813376D01*
X143538402Y-114866877D01*
X143693123Y-115021598D01*
X143872360Y-115147101D01*
X143872361Y-115147102D01*
X144023583Y-115217618D01*
X144076022Y-115263790D01*
X144095174Y-115330984D01*
X144074958Y-115397865D01*
X144023583Y-115442382D01*
X143872361Y-115512898D01*
X143872357Y-115512900D01*
X143693121Y-115638402D01*
X143538402Y-115793121D01*
X143412900Y-115972357D01*
X143412898Y-115972361D01*
X143320426Y-116170668D01*
X143320422Y-116170677D01*
X143263793Y-116382020D01*
X143263793Y-116382024D01*
X143244723Y-116599997D01*
X143244723Y-116600002D01*
X143263793Y-116817975D01*
X143263793Y-116817979D01*
X143320422Y-117029322D01*
X143320424Y-117029326D01*
X143320425Y-117029330D01*
X143366661Y-117128484D01*
X143412897Y-117227638D01*
X143412898Y-117227639D01*
X143538402Y-117406877D01*
X143693123Y-117561598D01*
X143872360Y-117687101D01*
X143872361Y-117687102D01*
X144023583Y-117757618D01*
X144076022Y-117803790D01*
X144095174Y-117870984D01*
X144074958Y-117937865D01*
X144023583Y-117982382D01*
X143872361Y-118052898D01*
X143872357Y-118052900D01*
X143693121Y-118178402D01*
X143538402Y-118333121D01*
X143412900Y-118512357D01*
X143412898Y-118512361D01*
X143320426Y-118710668D01*
X143320422Y-118710677D01*
X143263793Y-118922020D01*
X143263793Y-118922024D01*
X143244723Y-119139997D01*
X143244723Y-119140002D01*
X143263793Y-119357975D01*
X143263793Y-119357979D01*
X143320422Y-119569322D01*
X143320424Y-119569326D01*
X143320425Y-119569330D01*
X143366661Y-119668484D01*
X143412897Y-119767638D01*
X143412898Y-119767639D01*
X143538402Y-119946877D01*
X143693123Y-120101598D01*
X143872360Y-120227101D01*
X143872361Y-120227102D01*
X144023583Y-120297618D01*
X144076022Y-120343790D01*
X144095174Y-120410984D01*
X144074958Y-120477865D01*
X144023583Y-120522382D01*
X143872361Y-120592898D01*
X143872357Y-120592900D01*
X143693121Y-120718402D01*
X143538402Y-120873121D01*
X143412900Y-121052357D01*
X143412898Y-121052361D01*
X143320426Y-121250668D01*
X143320422Y-121250677D01*
X143263793Y-121462020D01*
X143263793Y-121462024D01*
X143244723Y-121679997D01*
X143244723Y-121680002D01*
X143263793Y-121897975D01*
X143263793Y-121897979D01*
X143320422Y-122109322D01*
X143320424Y-122109326D01*
X143320425Y-122109330D01*
X143366661Y-122208484D01*
X143412897Y-122307638D01*
X143412898Y-122307639D01*
X143538402Y-122486877D01*
X143693123Y-122641598D01*
X143872360Y-122767101D01*
X143872361Y-122767102D01*
X144023583Y-122837618D01*
X144076022Y-122883790D01*
X144095174Y-122950984D01*
X144074958Y-123017865D01*
X144023583Y-123062382D01*
X143872361Y-123132898D01*
X143872357Y-123132900D01*
X143693121Y-123258402D01*
X143538402Y-123413121D01*
X143412900Y-123592357D01*
X143412898Y-123592361D01*
X143320426Y-123790668D01*
X143320422Y-123790677D01*
X143263793Y-124002020D01*
X143263793Y-124002024D01*
X143244723Y-124219997D01*
X143244723Y-124220002D01*
X143263793Y-124437975D01*
X143263793Y-124437979D01*
X143320422Y-124649322D01*
X143320424Y-124649326D01*
X143320425Y-124649330D01*
X143366661Y-124748484D01*
X143412897Y-124847638D01*
X143412898Y-124847639D01*
X143538402Y-125026877D01*
X143693123Y-125181598D01*
X143872360Y-125307101D01*
X143872361Y-125307102D01*
X144023583Y-125377618D01*
X144076022Y-125423790D01*
X144095174Y-125490984D01*
X144074958Y-125557865D01*
X144023583Y-125602382D01*
X143872361Y-125672898D01*
X143872357Y-125672900D01*
X143693121Y-125798402D01*
X143538402Y-125953121D01*
X143412900Y-126132357D01*
X143412898Y-126132361D01*
X143320426Y-126330668D01*
X143320422Y-126330677D01*
X143263793Y-126542020D01*
X143263793Y-126542024D01*
X143244723Y-126759997D01*
X143244723Y-126760002D01*
X143260971Y-126945729D01*
X143247204Y-127014229D01*
X143225124Y-127044217D01*
X141223064Y-129046277D01*
X141182841Y-129073155D01*
X141168190Y-129079224D01*
X141168186Y-129079225D01*
X141053462Y-129155882D01*
X141053454Y-129155888D01*
X140955888Y-129253454D01*
X140955885Y-129253458D01*
X140879228Y-129368182D01*
X140879221Y-129368195D01*
X140826421Y-129495667D01*
X140826418Y-129495677D01*
X140799500Y-129631004D01*
X140799500Y-129631007D01*
X140799500Y-146331006D01*
X140799500Y-146468994D01*
X140799500Y-146468996D01*
X140799499Y-146468996D01*
X140826418Y-146604322D01*
X140826421Y-146604332D01*
X140879222Y-146731807D01*
X140955887Y-146846545D01*
X140955888Y-146846546D01*
X141655886Y-147546542D01*
X141753455Y-147644111D01*
X141753459Y-147644115D01*
X141868182Y-147720771D01*
X141868186Y-147720773D01*
X141868189Y-147720775D01*
X141942866Y-147751707D01*
X141942867Y-147751707D01*
X141942869Y-147751709D01*
X141995666Y-147773578D01*
X141995671Y-147773580D01*
X141995680Y-147773581D01*
X141995681Y-147773582D01*
X142022545Y-147778925D01*
X142022551Y-147778926D01*
X142022591Y-147778934D01*
X142112937Y-147796905D01*
X142131006Y-147800500D01*
X142131007Y-147800500D01*
X152308996Y-147800500D01*
X152417457Y-147778925D01*
X152444328Y-147773580D01*
X152508069Y-147747177D01*
X152571807Y-147720777D01*
X152571808Y-147720776D01*
X152571811Y-147720775D01*
X152686543Y-147644114D01*
X161553837Y-138776817D01*
X161615160Y-138743333D01*
X161641518Y-138740499D01*
X162947871Y-138740499D01*
X162947872Y-138740499D01*
X163007483Y-138734091D01*
X163142331Y-138683796D01*
X163257546Y-138597546D01*
X163343796Y-138482331D01*
X163394091Y-138347483D01*
X163400500Y-138287873D01*
X163400499Y-136392128D01*
X163394091Y-136332517D01*
X163381094Y-136297671D01*
X163343797Y-136197671D01*
X163343793Y-136197664D01*
X163257547Y-136082455D01*
X163257544Y-136082452D01*
X163142335Y-135996206D01*
X163142328Y-135996202D01*
X163062094Y-135966277D01*
X163006160Y-135924406D01*
X162981743Y-135858941D01*
X162996595Y-135790668D01*
X163014190Y-135766121D01*
X163108979Y-135663153D01*
X163235924Y-135468849D01*
X163329157Y-135256300D01*
X163386134Y-135031305D01*
X163394421Y-134931297D01*
X163405300Y-134800006D01*
X163405300Y-134799993D01*
X163386135Y-134568702D01*
X163386133Y-134568691D01*
X163329157Y-134343699D01*
X163235924Y-134131151D01*
X163108983Y-133936852D01*
X163108980Y-133936849D01*
X163108979Y-133936847D01*
X162951784Y-133766087D01*
X162951779Y-133766083D01*
X162951777Y-133766081D01*
X162768634Y-133623535D01*
X162768622Y-133623527D01*
X162765473Y-133621823D01*
X162764433Y-133620790D01*
X162764334Y-133620726D01*
X162764347Y-133620705D01*
X162715887Y-133572599D01*
X162700500Y-133512773D01*
X162700500Y-131547982D01*
X162720185Y-131480943D01*
X162770695Y-131436263D01*
X162852634Y-131396805D01*
X163063217Y-131253232D01*
X163250050Y-131079877D01*
X163408959Y-130880612D01*
X163536393Y-130659888D01*
X163629508Y-130422637D01*
X163686222Y-130174157D01*
X163705268Y-129920000D01*
X163686222Y-129665843D01*
X163629508Y-129417363D01*
X163536393Y-129180112D01*
X163408959Y-128959388D01*
X163250050Y-128760123D01*
X163063217Y-128586768D01*
X162852634Y-128443195D01*
X162852630Y-128443193D01*
X162852627Y-128443191D01*
X162852626Y-128443190D01*
X162623006Y-128332612D01*
X162623008Y-128332612D01*
X162379466Y-128257489D01*
X162379462Y-128257488D01*
X162379458Y-128257487D01*
X162255546Y-128238810D01*
X162127440Y-128219500D01*
X162127435Y-128219500D01*
X161872565Y-128219500D01*
X161872559Y-128219500D01*
X161715609Y-128243157D01*
X161620542Y-128257487D01*
X161620539Y-128257488D01*
X161620533Y-128257489D01*
X161376992Y-128332612D01*
X161147373Y-128443190D01*
X161147372Y-128443191D01*
X160936782Y-128586768D01*
X160749952Y-128760121D01*
X160749950Y-128760123D01*
X160591041Y-128959388D01*
X160463608Y-129180109D01*
X160370492Y-129417362D01*
X160370490Y-129417369D01*
X160313777Y-129665845D01*
X160294732Y-129919995D01*
X160294732Y-129920004D01*
X160313777Y-130174154D01*
X160333734Y-130261593D01*
X160370492Y-130422637D01*
X160463607Y-130659888D01*
X160591041Y-130880612D01*
X160749950Y-131079877D01*
X160936783Y-131253232D01*
X161147366Y-131396805D01*
X161229304Y-131436263D01*
X161281161Y-131483084D01*
X161299500Y-131547982D01*
X161299500Y-133512773D01*
X161279815Y-133579812D01*
X161234527Y-133621823D01*
X161231377Y-133623527D01*
X161231365Y-133623535D01*
X161048222Y-133766081D01*
X161048219Y-133766084D01*
X160891016Y-133936852D01*
X160764075Y-134131151D01*
X160670842Y-134343699D01*
X160613866Y-134568691D01*
X160613864Y-134568702D01*
X160594700Y-134799993D01*
X160594700Y-134800006D01*
X160613864Y-135031297D01*
X160613866Y-135031308D01*
X160670842Y-135256300D01*
X160764075Y-135468848D01*
X160891016Y-135663147D01*
X160891019Y-135663151D01*
X160891021Y-135663153D01*
X160985803Y-135766114D01*
X161016724Y-135828767D01*
X161008864Y-135898193D01*
X160964716Y-135952348D01*
X160937906Y-135966277D01*
X160857669Y-135996203D01*
X160857664Y-135996206D01*
X160742455Y-136082452D01*
X160742452Y-136082455D01*
X160656206Y-136197664D01*
X160656202Y-136197671D01*
X160605908Y-136332517D01*
X160599501Y-136392116D01*
X160599501Y-136392123D01*
X160599500Y-136392135D01*
X160599500Y-137698481D01*
X160579815Y-137765520D01*
X160563181Y-137786162D01*
X151986162Y-146363181D01*
X151924839Y-146396666D01*
X151898481Y-146399500D01*
X142541518Y-146399500D01*
X142474479Y-146379815D01*
X142453837Y-146363181D01*
X142236819Y-146146162D01*
X142203334Y-146084839D01*
X142200500Y-146058481D01*
X142200500Y-130101518D01*
X142220185Y-130034479D01*
X142236814Y-130013841D01*
X143033042Y-129217613D01*
X143094365Y-129184129D01*
X143164057Y-129189113D01*
X143219990Y-129230985D01*
X143243736Y-129294651D01*
X143244251Y-129294607D01*
X143244723Y-129299997D01*
X143244723Y-129300000D01*
X143261989Y-129497362D01*
X143263793Y-129517975D01*
X143263793Y-129517979D01*
X143320422Y-129729322D01*
X143320424Y-129729326D01*
X143320425Y-129729330D01*
X143366661Y-129828484D01*
X143412897Y-129927638D01*
X143412898Y-129927639D01*
X143538402Y-130106877D01*
X143693123Y-130261598D01*
X143872360Y-130387101D01*
X143872361Y-130387102D01*
X144023583Y-130457618D01*
X144076022Y-130503790D01*
X144095174Y-130570984D01*
X144074958Y-130637865D01*
X144023583Y-130682382D01*
X143872361Y-130752898D01*
X143872357Y-130752900D01*
X143693121Y-130878402D01*
X143538402Y-131033121D01*
X143412900Y-131212357D01*
X143412898Y-131212361D01*
X143320426Y-131410668D01*
X143320422Y-131410677D01*
X143263793Y-131622020D01*
X143263793Y-131622024D01*
X143244723Y-131839997D01*
X143244723Y-131840002D01*
X143263793Y-132057975D01*
X143263793Y-132057979D01*
X143320422Y-132269322D01*
X143320424Y-132269326D01*
X143320425Y-132269330D01*
X143348980Y-132330566D01*
X143412897Y-132467638D01*
X143412898Y-132467639D01*
X143538402Y-132646877D01*
X143693123Y-132801598D01*
X143872360Y-132927101D01*
X143872361Y-132927102D01*
X144023583Y-132997618D01*
X144076022Y-133043790D01*
X144095174Y-133110984D01*
X144074958Y-133177865D01*
X144023583Y-133222382D01*
X143872361Y-133292898D01*
X143872357Y-133292900D01*
X143693121Y-133418402D01*
X143538402Y-133573121D01*
X143412900Y-133752357D01*
X143412898Y-133752361D01*
X143346403Y-133894961D01*
X143326869Y-133936852D01*
X143320426Y-133950668D01*
X143320422Y-133950677D01*
X143263793Y-134162020D01*
X143263793Y-134162023D01*
X143244723Y-134380000D01*
X143257198Y-134522599D01*
X143263793Y-134597975D01*
X143263793Y-134597979D01*
X143320422Y-134809322D01*
X143320424Y-134809326D01*
X143320425Y-134809330D01*
X143362702Y-134899993D01*
X143412897Y-135007638D01*
X143429469Y-135031305D01*
X143538402Y-135186877D01*
X143693123Y-135341598D01*
X143872360Y-135467101D01*
X143872361Y-135467102D01*
X144023583Y-135537618D01*
X144076022Y-135583790D01*
X144095174Y-135650984D01*
X144074958Y-135717865D01*
X144023583Y-135762382D01*
X143872361Y-135832898D01*
X143872357Y-135832900D01*
X143693121Y-135958402D01*
X143538402Y-136113121D01*
X143412900Y-136292357D01*
X143412898Y-136292361D01*
X143320426Y-136490668D01*
X143320422Y-136490677D01*
X143263793Y-136702020D01*
X143263793Y-136702024D01*
X143244723Y-136919997D01*
X143244723Y-136920002D01*
X143263793Y-137137975D01*
X143263793Y-137137979D01*
X143320422Y-137349322D01*
X143320424Y-137349326D01*
X143320425Y-137349330D01*
X143366661Y-137448484D01*
X143412897Y-137547638D01*
X143412898Y-137547639D01*
X143538402Y-137726877D01*
X143693123Y-137881598D01*
X143872360Y-138007101D01*
X143872361Y-138007102D01*
X144023583Y-138077618D01*
X144076022Y-138123790D01*
X144095174Y-138190984D01*
X144074958Y-138257865D01*
X144023583Y-138302382D01*
X143872361Y-138372898D01*
X143872357Y-138372900D01*
X143693121Y-138498402D01*
X143538402Y-138653121D01*
X143412900Y-138832357D01*
X143412898Y-138832361D01*
X143320426Y-139030668D01*
X143320422Y-139030677D01*
X143263793Y-139242020D01*
X143263793Y-139242024D01*
X143244723Y-139459997D01*
X143244723Y-139460002D01*
X143263793Y-139677975D01*
X143263793Y-139677979D01*
X143320422Y-139889322D01*
X143320424Y-139889326D01*
X143320425Y-139889330D01*
X143366661Y-139988484D01*
X143412897Y-140087638D01*
X143412898Y-140087639D01*
X143538402Y-140266877D01*
X143693123Y-140421598D01*
X143872360Y-140547101D01*
X143872361Y-140547102D01*
X144023583Y-140617618D01*
X144076022Y-140663790D01*
X144095174Y-140730984D01*
X144074958Y-140797865D01*
X144023583Y-140842382D01*
X143872361Y-140912898D01*
X143872357Y-140912900D01*
X143693121Y-141038402D01*
X143538402Y-141193121D01*
X143412900Y-141372357D01*
X143412898Y-141372361D01*
X143320426Y-141570668D01*
X143320422Y-141570677D01*
X143263793Y-141782020D01*
X143263793Y-141782024D01*
X143244723Y-141999997D01*
X143244723Y-142000002D01*
X143263793Y-142217975D01*
X143263793Y-142217979D01*
X143320422Y-142429322D01*
X143320424Y-142429326D01*
X143320425Y-142429330D01*
X143366661Y-142528484D01*
X143412897Y-142627638D01*
X143412898Y-142627639D01*
X143538402Y-142806877D01*
X143693123Y-142961598D01*
X143839263Y-143063926D01*
X143882887Y-143118502D01*
X143890081Y-143188000D01*
X143858558Y-143250355D01*
X143798328Y-143285769D01*
X143768141Y-143289500D01*
X143702130Y-143289500D01*
X143702123Y-143289501D01*
X143642516Y-143295908D01*
X143507671Y-143346202D01*
X143507664Y-143346206D01*
X143392455Y-143432452D01*
X143392452Y-143432455D01*
X143306206Y-143547664D01*
X143306202Y-143547671D01*
X143255908Y-143682517D01*
X143249501Y-143742116D01*
X143249501Y-143742123D01*
X143249500Y-143742135D01*
X143249500Y-145337870D01*
X143249501Y-145337876D01*
X143255908Y-145397483D01*
X143306202Y-145532328D01*
X143306206Y-145532335D01*
X143392452Y-145647544D01*
X143392455Y-145647547D01*
X143507664Y-145733793D01*
X143507671Y-145733797D01*
X143642517Y-145784091D01*
X143642516Y-145784091D01*
X143649444Y-145784835D01*
X143702127Y-145790500D01*
X145297872Y-145790499D01*
X145357483Y-145784091D01*
X145492331Y-145733796D01*
X145607546Y-145647546D01*
X145693796Y-145532331D01*
X145744091Y-145397483D01*
X145750500Y-145337873D01*
X145750499Y-143742128D01*
X145744091Y-143682517D01*
X145737931Y-143666002D01*
X145693797Y-143547671D01*
X145693793Y-143547664D01*
X145607547Y-143432455D01*
X145607544Y-143432452D01*
X145492335Y-143346206D01*
X145492328Y-143346202D01*
X145357482Y-143295908D01*
X145357483Y-143295908D01*
X145297883Y-143289501D01*
X145297881Y-143289500D01*
X145297873Y-143289500D01*
X145297865Y-143289500D01*
X145231862Y-143289500D01*
X145164823Y-143269815D01*
X145119068Y-143217011D01*
X145109124Y-143147853D01*
X145138149Y-143084297D01*
X145160734Y-143063928D01*
X145306877Y-142961598D01*
X145461598Y-142806877D01*
X145587102Y-142627639D01*
X145679575Y-142429330D01*
X145736207Y-142217977D01*
X145755277Y-142000000D01*
X145736207Y-141782023D01*
X145679575Y-141570670D01*
X145587102Y-141372362D01*
X145587100Y-141372359D01*
X145587099Y-141372357D01*
X145461599Y-141193124D01*
X145449477Y-141181002D01*
X145306877Y-141038402D01*
X145127639Y-140912898D01*
X144976414Y-140842381D01*
X144923977Y-140796210D01*
X144904825Y-140729016D01*
X144925041Y-140662135D01*
X144976414Y-140617618D01*
X145127639Y-140547102D01*
X145306877Y-140421598D01*
X145461598Y-140266877D01*
X145499059Y-140213376D01*
X145553635Y-140169752D01*
X145600634Y-140160500D01*
X150448996Y-140160500D01*
X150540040Y-140142389D01*
X150584328Y-140133580D01*
X150695240Y-140087639D01*
X150711807Y-140080777D01*
X150711808Y-140080776D01*
X150711811Y-140080775D01*
X150826543Y-140004114D01*
X152153838Y-138676817D01*
X152215161Y-138643333D01*
X152241519Y-138640499D01*
X153547871Y-138640499D01*
X153547872Y-138640499D01*
X153607483Y-138634091D01*
X153742331Y-138583796D01*
X153857546Y-138497546D01*
X153943796Y-138382331D01*
X153994091Y-138247483D01*
X154000500Y-138187873D01*
X154000499Y-136292128D01*
X153994091Y-136232517D01*
X153981094Y-136197671D01*
X153943797Y-136097671D01*
X153943793Y-136097664D01*
X153857547Y-135982455D01*
X153857544Y-135982452D01*
X153742335Y-135896206D01*
X153742328Y-135896202D01*
X153662094Y-135866277D01*
X153606160Y-135824406D01*
X153581743Y-135758941D01*
X153596595Y-135690668D01*
X153614190Y-135666121D01*
X153708979Y-135563153D01*
X153835924Y-135368849D01*
X153929157Y-135156300D01*
X153986134Y-134931305D01*
X153986135Y-134931297D01*
X154005300Y-134700006D01*
X154005300Y-134699993D01*
X153986135Y-134468702D01*
X153986133Y-134468691D01*
X153929157Y-134243699D01*
X153835924Y-134031151D01*
X153708983Y-133836852D01*
X153708980Y-133836849D01*
X153708979Y-133836847D01*
X153551784Y-133666087D01*
X153551779Y-133666083D01*
X153551777Y-133666081D01*
X153368634Y-133523535D01*
X153368622Y-133523527D01*
X153365473Y-133521823D01*
X153364433Y-133520790D01*
X153364334Y-133520726D01*
X153364347Y-133520705D01*
X153315887Y-133472599D01*
X153300500Y-133412773D01*
X153300500Y-131596141D01*
X153320185Y-131529102D01*
X153370698Y-131484421D01*
X153470703Y-131436261D01*
X153552634Y-131396805D01*
X153763217Y-131253232D01*
X153950050Y-131079877D01*
X154108959Y-130880612D01*
X154236393Y-130659888D01*
X154329508Y-130422637D01*
X154386222Y-130174157D01*
X154405268Y-129920000D01*
X154386222Y-129665843D01*
X154329508Y-129417363D01*
X154236393Y-129180112D01*
X154108959Y-128959388D01*
X153950050Y-128760123D01*
X153763217Y-128586768D01*
X153552634Y-128443195D01*
X153552630Y-128443193D01*
X153552627Y-128443191D01*
X153552626Y-128443190D01*
X153323006Y-128332612D01*
X153323008Y-128332612D01*
X153079466Y-128257489D01*
X153079462Y-128257488D01*
X153079458Y-128257487D01*
X152955546Y-128238810D01*
X152827440Y-128219500D01*
X152827435Y-128219500D01*
X152572565Y-128219500D01*
X152572559Y-128219500D01*
X152415609Y-128243157D01*
X152320542Y-128257487D01*
X152320539Y-128257488D01*
X152320533Y-128257489D01*
X152076992Y-128332612D01*
X151847373Y-128443190D01*
X151847372Y-128443191D01*
X151636782Y-128586768D01*
X151449952Y-128760121D01*
X151449950Y-128760123D01*
X151291041Y-128959388D01*
X151163608Y-129180109D01*
X151070492Y-129417362D01*
X151070490Y-129417369D01*
X151013777Y-129665845D01*
X150994732Y-129919995D01*
X150994732Y-129920004D01*
X151013777Y-130174154D01*
X151033734Y-130261593D01*
X151070492Y-130422637D01*
X151163607Y-130659888D01*
X151291041Y-130880612D01*
X151449950Y-131079877D01*
X151636783Y-131253232D01*
X151845353Y-131395432D01*
X151889653Y-131449459D01*
X151899500Y-131497884D01*
X151899500Y-133412773D01*
X151879815Y-133479812D01*
X151834527Y-133521823D01*
X151831377Y-133523527D01*
X151831365Y-133523535D01*
X151648222Y-133666081D01*
X151648219Y-133666084D01*
X151648216Y-133666086D01*
X151648216Y-133666087D01*
X151597859Y-133720790D01*
X151491016Y-133836852D01*
X151364075Y-134031151D01*
X151270842Y-134243699D01*
X151213866Y-134468691D01*
X151213864Y-134468702D01*
X151194700Y-134699993D01*
X151194700Y-134700006D01*
X151213864Y-134931297D01*
X151213866Y-134931308D01*
X151270842Y-135156300D01*
X151364075Y-135368848D01*
X151491016Y-135563147D01*
X151491019Y-135563151D01*
X151491021Y-135563153D01*
X151585803Y-135666114D01*
X151616724Y-135728767D01*
X151608864Y-135798193D01*
X151564716Y-135852348D01*
X151537906Y-135866277D01*
X151457669Y-135896203D01*
X151457664Y-135896206D01*
X151342455Y-135982452D01*
X151342452Y-135982455D01*
X151256206Y-136097664D01*
X151256202Y-136097671D01*
X151205908Y-136232517D01*
X151199501Y-136292116D01*
X151199501Y-136292123D01*
X151199500Y-136292135D01*
X151199500Y-137598480D01*
X151179815Y-137665519D01*
X151163181Y-137686161D01*
X150126162Y-138723181D01*
X150064839Y-138756666D01*
X150038481Y-138759500D01*
X145600634Y-138759500D01*
X145533595Y-138739815D01*
X145499059Y-138706623D01*
X145461601Y-138653127D01*
X145461596Y-138653121D01*
X145306881Y-138498406D01*
X145306877Y-138498402D01*
X145127639Y-138372898D01*
X144976414Y-138302381D01*
X144923977Y-138256210D01*
X144904825Y-138189016D01*
X144925041Y-138122135D01*
X144976414Y-138077618D01*
X145127639Y-138007102D01*
X145306877Y-137881598D01*
X145461598Y-137726877D01*
X145587102Y-137547639D01*
X145679575Y-137349330D01*
X145736207Y-137137977D01*
X145755277Y-136920000D01*
X145736207Y-136702023D01*
X145679966Y-136492128D01*
X145679577Y-136490677D01*
X145679576Y-136490676D01*
X145679575Y-136490670D01*
X145587102Y-136292362D01*
X145587100Y-136292359D01*
X145587099Y-136292357D01*
X145461599Y-136113124D01*
X145387975Y-136039500D01*
X145306877Y-135958402D01*
X145127639Y-135832898D01*
X144976414Y-135762381D01*
X144923977Y-135716210D01*
X144904825Y-135649016D01*
X144925041Y-135582135D01*
X144976414Y-135537618D01*
X145127639Y-135467102D01*
X145306877Y-135341598D01*
X145461598Y-135186877D01*
X145587102Y-135007639D01*
X145679575Y-134809330D01*
X145736207Y-134597977D01*
X145755277Y-134380000D01*
X145736207Y-134162023D01*
X145679575Y-133950670D01*
X145587102Y-133752362D01*
X145587100Y-133752359D01*
X145587099Y-133752357D01*
X145461599Y-133573124D01*
X145401248Y-133512773D01*
X145306877Y-133418402D01*
X145127639Y-133292898D01*
X144976414Y-133222381D01*
X144923977Y-133176210D01*
X144904825Y-133109016D01*
X144925041Y-133042135D01*
X144976414Y-132997618D01*
X145127639Y-132927102D01*
X145306877Y-132801598D01*
X145461598Y-132646877D01*
X145587102Y-132467639D01*
X145679575Y-132269330D01*
X145736207Y-132057977D01*
X145755277Y-131840000D01*
X145736207Y-131622023D01*
X145679575Y-131410670D01*
X145587102Y-131212362D01*
X145587100Y-131212359D01*
X145587099Y-131212357D01*
X145461599Y-131033124D01*
X145389086Y-130960611D01*
X145306877Y-130878402D01*
X145127639Y-130752898D01*
X144976414Y-130682381D01*
X144923977Y-130636210D01*
X144904825Y-130569016D01*
X144925041Y-130502135D01*
X144976414Y-130457618D01*
X145127639Y-130387102D01*
X145306877Y-130261598D01*
X145461598Y-130106877D01*
X145587102Y-129927639D01*
X145679575Y-129729330D01*
X145736207Y-129517977D01*
X145755277Y-129300000D01*
X145736207Y-129082023D01*
X145679575Y-128870670D01*
X145587102Y-128672362D01*
X145587100Y-128672359D01*
X145587099Y-128672357D01*
X145461599Y-128493124D01*
X145411665Y-128443190D01*
X145306877Y-128338402D01*
X145127639Y-128212898D01*
X144976414Y-128142381D01*
X144923977Y-128096210D01*
X144904825Y-128029016D01*
X144925041Y-127962135D01*
X144976414Y-127917618D01*
X145127639Y-127847102D01*
X145306877Y-127721598D01*
X145461598Y-127566877D01*
X145587102Y-127387639D01*
X145679575Y-127189330D01*
X145736207Y-126977977D01*
X145755277Y-126760000D01*
X145736207Y-126542023D01*
X145679575Y-126330670D01*
X145587102Y-126132362D01*
X145587100Y-126132359D01*
X145587099Y-126132357D01*
X145461599Y-125953124D01*
X145449477Y-125941002D01*
X145306877Y-125798402D01*
X145127639Y-125672898D01*
X144976414Y-125602381D01*
X144923977Y-125556210D01*
X144904825Y-125489016D01*
X144925041Y-125422135D01*
X144976414Y-125377618D01*
X145127639Y-125307102D01*
X145306877Y-125181598D01*
X145461598Y-125026877D01*
X145587102Y-124847639D01*
X145679575Y-124649330D01*
X145736207Y-124437977D01*
X145755277Y-124220000D01*
X145736207Y-124002023D01*
X145679575Y-123790670D01*
X145587102Y-123592362D01*
X145587100Y-123592359D01*
X145587099Y-123592357D01*
X145461599Y-123413124D01*
X145388067Y-123339592D01*
X145306877Y-123258402D01*
X145127639Y-123132898D01*
X144976414Y-123062381D01*
X144923977Y-123016210D01*
X144904825Y-122949016D01*
X144925041Y-122882135D01*
X144976414Y-122837618D01*
X145127639Y-122767102D01*
X145306877Y-122641598D01*
X145461598Y-122486877D01*
X145587102Y-122307639D01*
X145679575Y-122109330D01*
X145736207Y-121897977D01*
X145755277Y-121680000D01*
X145736207Y-121462023D01*
X145679575Y-121250670D01*
X145587102Y-121052362D01*
X145587100Y-121052359D01*
X145587099Y-121052357D01*
X145461599Y-120873124D01*
X145449477Y-120861002D01*
X145306877Y-120718402D01*
X145127639Y-120592898D01*
X144976414Y-120522381D01*
X144923977Y-120476210D01*
X144904825Y-120409016D01*
X144925041Y-120342135D01*
X144976414Y-120297618D01*
X145127639Y-120227102D01*
X145306877Y-120101598D01*
X145461598Y-119946877D01*
X145587102Y-119767639D01*
X145679575Y-119569330D01*
X145736207Y-119357977D01*
X145755277Y-119140000D01*
X145736207Y-118922023D01*
X145679575Y-118710670D01*
X145587102Y-118512362D01*
X145587100Y-118512359D01*
X145587099Y-118512357D01*
X145461599Y-118333124D01*
X145449477Y-118321002D01*
X145306877Y-118178402D01*
X145127639Y-118052898D01*
X144976414Y-117982381D01*
X144923977Y-117936210D01*
X144904825Y-117869016D01*
X144925041Y-117802135D01*
X144976414Y-117757618D01*
X145127639Y-117687102D01*
X145306877Y-117561598D01*
X145461598Y-117406877D01*
X145587102Y-117227639D01*
X145679575Y-117029330D01*
X145736207Y-116817977D01*
X145755277Y-116600000D01*
X145736207Y-116382023D01*
X145679575Y-116170670D01*
X145587102Y-115972362D01*
X145587100Y-115972359D01*
X145587099Y-115972357D01*
X145461599Y-115793124D01*
X145389086Y-115720611D01*
X145306877Y-115638402D01*
X145127639Y-115512898D01*
X144976414Y-115442381D01*
X144923977Y-115396210D01*
X144904825Y-115329016D01*
X144925041Y-115262135D01*
X144976414Y-115217618D01*
X145127639Y-115147102D01*
X145306877Y-115021598D01*
X145461598Y-114866877D01*
X145587102Y-114687639D01*
X145679575Y-114489330D01*
X145736207Y-114277977D01*
X145755277Y-114060000D01*
X145736207Y-113842023D01*
X145679575Y-113630670D01*
X145587102Y-113432362D01*
X145587100Y-113432359D01*
X145587099Y-113432357D01*
X145461599Y-113253124D01*
X145388850Y-113180375D01*
X145306877Y-113098402D01*
X145127639Y-112972898D01*
X144976414Y-112902381D01*
X144923977Y-112856210D01*
X144904825Y-112789016D01*
X144925041Y-112722135D01*
X144976414Y-112677618D01*
X145127639Y-112607102D01*
X145306877Y-112481598D01*
X145461598Y-112326877D01*
X145587102Y-112147639D01*
X145679575Y-111949330D01*
X145736207Y-111737977D01*
X145755277Y-111520000D01*
X145736207Y-111302023D01*
X145679575Y-111090670D01*
X145587102Y-110892362D01*
X145587100Y-110892359D01*
X145587099Y-110892357D01*
X145461599Y-110713124D01*
X145422053Y-110673578D01*
X145306877Y-110558402D01*
X145127639Y-110432898D01*
X144976414Y-110362381D01*
X144923977Y-110316210D01*
X144904825Y-110249016D01*
X144925041Y-110182135D01*
X144976414Y-110137618D01*
X145127639Y-110067102D01*
X145306877Y-109941598D01*
X145461598Y-109786877D01*
X145499059Y-109733376D01*
X145553635Y-109689752D01*
X145600634Y-109680500D01*
X148938481Y-109680500D01*
X149005520Y-109700185D01*
X149026162Y-109716819D01*
X151963181Y-112653837D01*
X151996666Y-112715160D01*
X151999500Y-112741518D01*
X151999500Y-113052016D01*
X151979815Y-113119055D01*
X151929302Y-113163736D01*
X151847370Y-113203192D01*
X151636782Y-113346768D01*
X151449952Y-113520121D01*
X151449950Y-113520123D01*
X151291041Y-113719388D01*
X151163608Y-113940109D01*
X151070492Y-114177362D01*
X151070490Y-114177369D01*
X151013777Y-114425845D01*
X150994732Y-114679995D01*
X150994732Y-114680004D01*
X151013777Y-114934154D01*
X151033734Y-115021593D01*
X151070492Y-115182637D01*
X151163607Y-115419888D01*
X151291041Y-115640612D01*
X151449950Y-115839877D01*
X151636783Y-116013232D01*
X151847366Y-116156805D01*
X151847371Y-116156807D01*
X151847372Y-116156808D01*
X151847373Y-116156809D01*
X151876171Y-116170677D01*
X152076992Y-116267387D01*
X152076993Y-116267387D01*
X152076996Y-116267389D01*
X152320542Y-116342513D01*
X152572565Y-116380500D01*
X152827435Y-116380500D01*
X153079458Y-116342513D01*
X153323004Y-116267389D01*
X153552634Y-116156805D01*
X153763217Y-116013232D01*
X153950050Y-115839877D01*
X154108959Y-115640612D01*
X154236393Y-115419888D01*
X154329508Y-115182637D01*
X154386222Y-114934157D01*
X154399023Y-114763334D01*
X154405268Y-114680004D01*
X154405268Y-114679995D01*
X154386222Y-114425845D01*
X154385020Y-114420579D01*
X154329508Y-114177363D01*
X154236393Y-113940112D01*
X154108959Y-113719388D01*
X153950050Y-113520123D01*
X153763217Y-113346768D01*
X153552634Y-113203195D01*
X153552631Y-113203194D01*
X153552629Y-113203192D01*
X153470698Y-113163736D01*
X153418838Y-113116913D01*
X153400500Y-113052016D01*
X153400500Y-112331004D01*
X153400499Y-112331002D01*
X153373581Y-112195677D01*
X153373579Y-112195670D01*
X153366768Y-112179228D01*
X153366766Y-112179222D01*
X153344895Y-112126420D01*
X153320778Y-112068194D01*
X153320771Y-112068182D01*
X153244115Y-111953459D01*
X153239978Y-111949322D01*
X153146542Y-111855886D01*
X152325613Y-111034957D01*
X149726546Y-108435888D01*
X149726545Y-108435887D01*
X149611807Y-108359222D01*
X149484332Y-108306421D01*
X149484322Y-108306418D01*
X149348996Y-108279500D01*
X149348994Y-108279500D01*
X149348993Y-108279500D01*
X145600634Y-108279500D01*
X145533595Y-108259815D01*
X145499059Y-108226623D01*
X145461601Y-108173127D01*
X145461596Y-108173121D01*
X145306881Y-108018406D01*
X145306877Y-108018402D01*
X145127639Y-107892898D01*
X144976414Y-107822381D01*
X144923977Y-107776210D01*
X144904825Y-107709016D01*
X144925041Y-107642135D01*
X144976414Y-107597618D01*
X145127639Y-107527102D01*
X145306877Y-107401598D01*
X145461598Y-107246877D01*
X145499059Y-107193376D01*
X145553635Y-107149752D01*
X145600634Y-107140500D01*
X155298481Y-107140500D01*
X155365520Y-107160185D01*
X155386162Y-107176819D01*
X161202770Y-112993427D01*
X161236255Y-113054750D01*
X161231271Y-113124442D01*
X161189399Y-113180375D01*
X161168895Y-113192826D01*
X161147372Y-113203191D01*
X160936782Y-113346768D01*
X160749952Y-113520121D01*
X160749950Y-113520123D01*
X160591041Y-113719388D01*
X160463608Y-113940109D01*
X160370492Y-114177362D01*
X160370490Y-114177369D01*
X160313777Y-114425845D01*
X160294732Y-114679995D01*
X160294732Y-114680004D01*
X160313777Y-114934154D01*
X160333734Y-115021593D01*
X160370492Y-115182637D01*
X160463607Y-115419888D01*
X160591041Y-115640612D01*
X160749950Y-115839877D01*
X160936783Y-116013232D01*
X161147366Y-116156805D01*
X161147371Y-116156807D01*
X161147372Y-116156808D01*
X161147373Y-116156809D01*
X161176171Y-116170677D01*
X161376992Y-116267387D01*
X161376993Y-116267387D01*
X161376996Y-116267389D01*
X161620542Y-116342513D01*
X161872565Y-116380500D01*
X162127435Y-116380500D01*
X162379458Y-116342513D01*
X162623004Y-116267389D01*
X162852634Y-116156805D01*
X163063217Y-116013232D01*
X163250050Y-115839877D01*
X163408959Y-115640612D01*
X163536393Y-115419888D01*
X163629508Y-115182637D01*
X163686222Y-114934157D01*
X163699023Y-114763334D01*
X163705268Y-114680004D01*
X163705268Y-114679995D01*
X163686222Y-114425845D01*
X163685020Y-114420579D01*
X163629508Y-114177363D01*
X163536393Y-113940112D01*
X163408959Y-113719388D01*
X163250050Y-113520123D01*
X163063217Y-113346768D01*
X162852634Y-113203195D01*
X162852631Y-113203194D01*
X162852629Y-113203192D01*
X162770698Y-113163736D01*
X162718838Y-113116913D01*
X162700500Y-113052016D01*
X162700500Y-112731004D01*
X162673581Y-112595677D01*
X162673580Y-112595676D01*
X162673580Y-112595672D01*
X162660088Y-112563100D01*
X162620775Y-112468189D01*
X162544114Y-112353457D01*
X162544112Y-112353454D01*
X156086545Y-105895887D01*
X155971807Y-105819222D01*
X155844332Y-105766421D01*
X155844322Y-105766418D01*
X155708996Y-105739500D01*
X155708994Y-105739500D01*
X155708993Y-105739500D01*
X145600634Y-105739500D01*
X145533595Y-105719815D01*
X145499059Y-105686623D01*
X145461601Y-105633127D01*
X145461596Y-105633121D01*
X145306881Y-105478406D01*
X145306877Y-105478402D01*
X145127639Y-105352898D01*
X144976414Y-105282381D01*
X144923977Y-105236210D01*
X144904825Y-105169016D01*
X144925041Y-105102135D01*
X144976414Y-105057618D01*
X145127639Y-104987102D01*
X145306877Y-104861598D01*
X145461598Y-104706877D01*
X145499059Y-104653376D01*
X145553635Y-104609752D01*
X145600634Y-104600500D01*
X156258481Y-104600500D01*
X156325520Y-104620185D01*
X156346162Y-104636819D01*
X162253453Y-110544111D01*
X162253454Y-110544112D01*
X162368192Y-110620777D01*
X162495667Y-110673578D01*
X162495672Y-110673580D01*
X162495676Y-110673580D01*
X162495677Y-110673581D01*
X162631003Y-110700500D01*
X162631006Y-110700500D01*
X162631007Y-110700500D01*
X169758481Y-110700500D01*
X169825520Y-110720185D01*
X169846162Y-110736819D01*
X170763181Y-111653838D01*
X170796666Y-111715161D01*
X170799500Y-111741519D01*
X170799500Y-113132016D01*
X170779815Y-113199055D01*
X170729302Y-113243736D01*
X170647370Y-113283192D01*
X170436782Y-113426768D01*
X170249952Y-113600121D01*
X170249950Y-113600123D01*
X170091041Y-113799388D01*
X169963608Y-114020109D01*
X169870492Y-114257362D01*
X169870490Y-114257369D01*
X169813777Y-114505845D01*
X169794732Y-114759995D01*
X169794732Y-114760004D01*
X169813777Y-115014154D01*
X169860216Y-115217618D01*
X169870492Y-115262637D01*
X169953283Y-115473584D01*
X169963608Y-115499890D01*
X169971118Y-115512898D01*
X170091041Y-115720612D01*
X170249950Y-115919877D01*
X170436783Y-116093232D01*
X170647366Y-116236805D01*
X170647371Y-116236807D01*
X170647372Y-116236808D01*
X170647373Y-116236809D01*
X170710870Y-116267387D01*
X170876992Y-116347387D01*
X170876993Y-116347387D01*
X170876996Y-116347389D01*
X171120542Y-116422513D01*
X171372565Y-116460500D01*
X171627435Y-116460500D01*
X171879458Y-116422513D01*
X172123004Y-116347389D01*
X172352634Y-116236805D01*
X172563217Y-116093232D01*
X172750050Y-115919877D01*
X172908959Y-115720612D01*
X173036393Y-115499888D01*
X173129508Y-115262637D01*
X173186222Y-115014157D01*
X173197259Y-114866872D01*
X173205268Y-114760004D01*
X173205268Y-114759995D01*
X173186222Y-114505845D01*
X173167962Y-114425843D01*
X173129508Y-114257363D01*
X173036393Y-114020112D01*
X172908959Y-113799388D01*
X172750050Y-113600123D01*
X172563217Y-113426768D01*
X172352634Y-113283195D01*
X172352631Y-113283194D01*
X172352629Y-113283192D01*
X172270698Y-113243736D01*
X172218838Y-113196913D01*
X172200500Y-113132016D01*
X172200500Y-111331005D01*
X172185845Y-111257336D01*
X172185845Y-111257331D01*
X172173581Y-111195678D01*
X172173580Y-111195672D01*
X172120775Y-111068189D01*
X172044114Y-110953457D01*
X172044112Y-110953454D01*
X170546545Y-109455887D01*
X170431807Y-109379222D01*
X170304332Y-109326421D01*
X170304322Y-109326418D01*
X170168996Y-109299500D01*
X170168994Y-109299500D01*
X170168993Y-109299500D01*
X163041519Y-109299500D01*
X162974480Y-109279815D01*
X162953838Y-109263181D01*
X157046546Y-103355888D01*
X157046545Y-103355887D01*
X156931807Y-103279222D01*
X156804332Y-103226421D01*
X156804322Y-103226418D01*
X156668996Y-103199500D01*
X156668994Y-103199500D01*
X156668993Y-103199500D01*
X145600634Y-103199500D01*
X145533595Y-103179815D01*
X145499059Y-103146623D01*
X145461601Y-103093127D01*
X145461596Y-103093121D01*
X145306881Y-102938406D01*
X145306877Y-102938402D01*
X145127639Y-102812898D01*
X144976414Y-102742381D01*
X144923977Y-102696210D01*
X144904825Y-102629016D01*
X144925041Y-102562135D01*
X144976414Y-102517618D01*
X145127639Y-102447102D01*
X145306877Y-102321598D01*
X145461598Y-102166877D01*
X145499059Y-102113376D01*
X145553635Y-102069752D01*
X145600634Y-102060500D01*
X160018481Y-102060500D01*
X160085520Y-102080185D01*
X160106162Y-102096819D01*
X161514906Y-103505563D01*
X161548391Y-103566886D01*
X161547431Y-103623684D01*
X161514891Y-103752182D01*
X161494357Y-103999994D01*
X161494357Y-104000005D01*
X161514890Y-104247812D01*
X161514892Y-104247824D01*
X161575936Y-104488881D01*
X161675826Y-104716606D01*
X161811833Y-104924782D01*
X161811836Y-104924785D01*
X161980256Y-105107738D01*
X162176491Y-105260474D01*
X162245606Y-105297877D01*
X162347275Y-105352898D01*
X162395190Y-105378828D01*
X162630386Y-105459571D01*
X162875665Y-105500500D01*
X163124335Y-105500500D01*
X163369614Y-105459571D01*
X163604810Y-105378828D01*
X163823509Y-105260474D01*
X164019744Y-105107738D01*
X164188164Y-104924785D01*
X164324173Y-104716607D01*
X164424063Y-104488881D01*
X164485108Y-104247821D01*
X164495867Y-104117979D01*
X164505643Y-104000005D01*
X164505643Y-103999994D01*
X164485109Y-103752187D01*
X164485107Y-103752175D01*
X164424063Y-103511118D01*
X164324173Y-103283393D01*
X164188166Y-103075217D01*
X164166557Y-103051744D01*
X164019744Y-102892262D01*
X163823509Y-102739526D01*
X163823507Y-102739525D01*
X163823506Y-102739524D01*
X163604811Y-102621172D01*
X163604802Y-102621169D01*
X163369616Y-102540429D01*
X163124335Y-102499500D01*
X162875665Y-102499500D01*
X162630384Y-102540429D01*
X162629671Y-102540674D01*
X162629360Y-102540687D01*
X162625416Y-102541687D01*
X162625210Y-102540875D01*
X162559873Y-102543822D01*
X162501730Y-102511073D01*
X160806546Y-100815888D01*
X160806545Y-100815887D01*
X160691807Y-100739222D01*
X160564332Y-100686421D01*
X160564322Y-100686418D01*
X160428996Y-100659500D01*
X160428994Y-100659500D01*
X160428993Y-100659500D01*
X145600634Y-100659500D01*
X145533595Y-100639815D01*
X145499059Y-100606623D01*
X145461601Y-100553127D01*
X145461596Y-100553121D01*
X145306881Y-100398406D01*
X145306877Y-100398402D01*
X145127639Y-100272898D01*
X144976414Y-100202381D01*
X144923977Y-100156210D01*
X144904825Y-100089016D01*
X144925041Y-100022135D01*
X144976414Y-99977618D01*
X145127639Y-99907102D01*
X145306877Y-99781598D01*
X145461598Y-99626877D01*
X145461601Y-99626871D01*
X145461605Y-99626868D01*
X145499059Y-99573377D01*
X145553635Y-99529752D01*
X145600634Y-99520500D01*
X160648996Y-99520500D01*
X160740040Y-99502389D01*
X160784328Y-99493580D01*
X160895240Y-99447639D01*
X160911807Y-99440777D01*
X160911808Y-99440776D01*
X160911811Y-99440775D01*
X161026543Y-99364114D01*
X162453838Y-97936817D01*
X162515161Y-97903333D01*
X162541519Y-97900499D01*
X164047871Y-97900499D01*
X164047872Y-97900499D01*
X164107483Y-97894091D01*
X164242331Y-97843796D01*
X164357546Y-97757546D01*
X164443796Y-97642331D01*
X164494091Y-97507483D01*
X164500500Y-97447873D01*
X164500499Y-95352128D01*
X164494091Y-95292517D01*
X164482630Y-95261789D01*
X164443797Y-95157671D01*
X164443793Y-95157664D01*
X164357547Y-95042455D01*
X164357544Y-95042452D01*
X164242335Y-94956206D01*
X164242328Y-94956202D01*
X164107482Y-94905908D01*
X164107483Y-94905908D01*
X164047883Y-94899501D01*
X164047881Y-94899500D01*
X164047873Y-94899500D01*
X164047864Y-94899500D01*
X161952129Y-94899500D01*
X161952123Y-94899501D01*
X161892516Y-94905908D01*
X161757671Y-94956202D01*
X161757664Y-94956206D01*
X161642455Y-95042452D01*
X161642452Y-95042455D01*
X161556206Y-95157664D01*
X161556202Y-95157671D01*
X161505908Y-95292517D01*
X161499501Y-95352116D01*
X161499501Y-95352123D01*
X161499500Y-95352135D01*
X161499500Y-96858480D01*
X161479815Y-96925519D01*
X161463181Y-96946161D01*
X160326162Y-98083181D01*
X160264839Y-98116666D01*
X160238481Y-98119500D01*
X145600634Y-98119500D01*
X145533595Y-98099815D01*
X145499059Y-98066623D01*
X145461601Y-98013127D01*
X145461596Y-98013121D01*
X145306881Y-97858406D01*
X145306877Y-97858402D01*
X145127639Y-97732898D01*
X144976414Y-97662381D01*
X144923977Y-97616210D01*
X144904825Y-97549016D01*
X144925041Y-97482135D01*
X144976414Y-97437618D01*
X145127639Y-97367102D01*
X145306877Y-97241598D01*
X145461598Y-97086877D01*
X145587102Y-96907639D01*
X145679575Y-96709330D01*
X145736207Y-96497977D01*
X145754029Y-96294265D01*
X145755277Y-96280002D01*
X145755277Y-96279997D01*
X145751569Y-96237618D01*
X145736207Y-96062023D01*
X145679575Y-95850670D01*
X145587102Y-95652362D01*
X145587100Y-95652359D01*
X145587099Y-95652357D01*
X145461599Y-95473124D01*
X145392370Y-95403895D01*
X145306877Y-95318402D01*
X145127639Y-95192898D01*
X145127640Y-95192898D01*
X145127638Y-95192897D01*
X145028484Y-95146661D01*
X144929330Y-95100425D01*
X144929326Y-95100424D01*
X144929322Y-95100422D01*
X144717977Y-95043793D01*
X144500002Y-95024723D01*
X144499998Y-95024723D01*
X144354682Y-95037436D01*
X144282023Y-95043793D01*
X144282020Y-95043793D01*
X144070677Y-95100422D01*
X144070668Y-95100426D01*
X143872361Y-95192898D01*
X143872357Y-95192900D01*
X143693121Y-95318402D01*
X143538402Y-95473121D01*
X143412900Y-95652357D01*
X143412898Y-95652361D01*
X143320426Y-95850668D01*
X143320422Y-95850677D01*
X143263793Y-96062020D01*
X143263793Y-96062024D01*
X143244723Y-96279997D01*
X143244723Y-96280002D01*
X143263793Y-96497975D01*
X143263793Y-96497979D01*
X143320422Y-96709322D01*
X143320424Y-96709326D01*
X143320425Y-96709330D01*
X143324859Y-96718838D01*
X143412897Y-96907638D01*
X143425418Y-96925519D01*
X143538402Y-97086877D01*
X143693123Y-97241598D01*
X143872360Y-97367101D01*
X143872361Y-97367102D01*
X144023583Y-97437618D01*
X144076022Y-97483790D01*
X144095174Y-97550984D01*
X144074958Y-97617865D01*
X144023583Y-97662382D01*
X143872361Y-97732898D01*
X143872357Y-97732900D01*
X143693121Y-97858402D01*
X143538402Y-98013121D01*
X143412900Y-98192357D01*
X143412898Y-98192361D01*
X143320426Y-98390668D01*
X143320422Y-98390677D01*
X143263793Y-98602020D01*
X143263793Y-98602024D01*
X143244723Y-98819997D01*
X143244723Y-98820002D01*
X143263793Y-99037975D01*
X143263793Y-99037979D01*
X143320422Y-99249322D01*
X143320424Y-99249326D01*
X143320425Y-99249330D01*
X143366661Y-99348484D01*
X143412897Y-99447638D01*
X143412898Y-99447639D01*
X143538402Y-99626877D01*
X143693123Y-99781598D01*
X143872360Y-99907101D01*
X143872361Y-99907102D01*
X144023583Y-99977618D01*
X144076022Y-100023790D01*
X144095174Y-100090984D01*
X144074958Y-100157865D01*
X144023583Y-100202382D01*
X143872361Y-100272898D01*
X143872357Y-100272900D01*
X143693121Y-100398402D01*
X143538402Y-100553121D01*
X143412900Y-100732357D01*
X143412898Y-100732361D01*
X143320426Y-100930668D01*
X143320422Y-100930677D01*
X143263793Y-101142020D01*
X143263793Y-101142024D01*
X143244723Y-101359997D01*
X143244723Y-101360002D01*
X143263793Y-101577975D01*
X143263793Y-101577979D01*
X143320422Y-101789322D01*
X143320424Y-101789326D01*
X143320425Y-101789330D01*
X143348980Y-101850566D01*
X143412897Y-101987638D01*
X143412898Y-101987639D01*
X143538402Y-102166877D01*
X143693123Y-102321598D01*
X143872360Y-102447101D01*
X143872361Y-102447102D01*
X144023583Y-102517618D01*
X144076022Y-102563790D01*
X144095174Y-102630984D01*
X144074958Y-102697865D01*
X144023583Y-102742382D01*
X143872361Y-102812898D01*
X143872357Y-102812900D01*
X143693121Y-102938402D01*
X143538402Y-103093121D01*
X143412900Y-103272357D01*
X143412898Y-103272361D01*
X143320426Y-103470668D01*
X143320422Y-103470677D01*
X143263793Y-103682020D01*
X143263793Y-103682023D01*
X143244723Y-103900000D01*
X143257670Y-104047994D01*
X143263793Y-104117975D01*
X143263793Y-104117979D01*
X143320422Y-104329322D01*
X143320424Y-104329326D01*
X143320425Y-104329330D01*
X143348980Y-104390566D01*
X143412897Y-104527638D01*
X143412898Y-104527639D01*
X143538402Y-104706877D01*
X143693123Y-104861598D01*
X143872360Y-104987101D01*
X143872361Y-104987102D01*
X144023583Y-105057618D01*
X144076022Y-105103790D01*
X144095174Y-105170984D01*
X144074958Y-105237865D01*
X144023583Y-105282382D01*
X143872361Y-105352898D01*
X143872357Y-105352900D01*
X143693121Y-105478402D01*
X143538402Y-105633121D01*
X143412900Y-105812357D01*
X143412898Y-105812361D01*
X143320426Y-106010668D01*
X143320422Y-106010677D01*
X143263793Y-106222020D01*
X143263793Y-106222023D01*
X143244723Y-106440000D01*
X143257198Y-106582599D01*
X143263793Y-106657975D01*
X143263793Y-106657979D01*
X143320422Y-106869322D01*
X143320424Y-106869326D01*
X143320425Y-106869330D01*
X143366661Y-106968484D01*
X143412897Y-107067638D01*
X143412898Y-107067639D01*
X143538402Y-107246877D01*
X143693123Y-107401598D01*
X143872360Y-107527101D01*
X143872361Y-107527102D01*
X144023583Y-107597618D01*
X144076022Y-107643790D01*
X144095174Y-107710984D01*
X144074958Y-107777865D01*
X144023583Y-107822382D01*
X143872361Y-107892898D01*
X143872357Y-107892900D01*
X143693121Y-108018402D01*
X143538402Y-108173121D01*
X143412900Y-108352357D01*
X143412898Y-108352361D01*
X143320426Y-108550668D01*
X143320422Y-108550677D01*
X143263793Y-108762020D01*
X143263793Y-108762024D01*
X143244723Y-108979997D01*
X143244723Y-108980002D01*
X143263793Y-109197975D01*
X143263793Y-109197979D01*
X143320422Y-109409322D01*
X143320424Y-109409326D01*
X143320425Y-109409330D01*
X143342135Y-109455887D01*
X143412897Y-109607638D01*
X143412898Y-109607639D01*
X143538402Y-109786877D01*
X143693123Y-109941598D01*
X143872360Y-110067101D01*
X143872361Y-110067102D01*
X144023583Y-110137618D01*
X144076022Y-110183790D01*
X144095174Y-110250984D01*
X144074958Y-110317865D01*
X144023583Y-110362382D01*
X143872361Y-110432898D01*
X143872357Y-110432900D01*
X143693121Y-110558402D01*
X143538402Y-110713121D01*
X143412900Y-110892357D01*
X143412898Y-110892361D01*
X143320426Y-111090668D01*
X143320422Y-111090677D01*
X143263793Y-111302020D01*
X143263793Y-111302023D01*
X143244723Y-111520000D01*
X143259609Y-111690157D01*
X143263793Y-111737975D01*
X143263793Y-111737979D01*
X143320422Y-111949322D01*
X143320424Y-111949326D01*
X143320425Y-111949330D01*
X143366661Y-112048484D01*
X143412897Y-112147638D01*
X143412898Y-112147639D01*
X143538402Y-112326877D01*
X143693123Y-112481598D01*
X143872360Y-112607101D01*
X143872361Y-112607102D01*
X144023583Y-112677618D01*
X144076022Y-112723790D01*
X144095174Y-112790984D01*
X144074958Y-112857865D01*
X144023583Y-112902382D01*
X143872361Y-112972898D01*
X143872357Y-112972900D01*
X143693124Y-113098400D01*
X143538398Y-113253127D01*
X143500941Y-113306623D01*
X143446365Y-113350248D01*
X143399366Y-113359500D01*
X141971004Y-113359500D01*
X141835677Y-113386418D01*
X141835667Y-113386421D01*
X141708192Y-113439222D01*
X141593454Y-113515887D01*
X138355887Y-116753454D01*
X138279223Y-116868192D01*
X138226421Y-116995668D01*
X138226418Y-116995680D01*
X138220278Y-117026548D01*
X138220278Y-117026549D01*
X138199500Y-117131004D01*
X138199500Y-117131007D01*
X138199500Y-147031006D01*
X138199500Y-147168994D01*
X138199500Y-147168996D01*
X138199499Y-147168996D01*
X113818277Y-147168996D01*
X113830562Y-144658711D01*
X117249500Y-144658711D01*
X117249500Y-144901288D01*
X117281161Y-145141785D01*
X117343947Y-145376104D01*
X117408659Y-145532331D01*
X117436776Y-145600212D01*
X117558064Y-145810289D01*
X117558066Y-145810292D01*
X117558067Y-145810293D01*
X117705733Y-146002736D01*
X117705739Y-146002743D01*
X117877256Y-146174260D01*
X117877262Y-146174265D01*
X118069711Y-146321936D01*
X118279788Y-146443224D01*
X118503900Y-146536054D01*
X118738211Y-146598838D01*
X118918586Y-146622584D01*
X118978711Y-146630500D01*
X118978712Y-146630500D01*
X119221289Y-146630500D01*
X119269388Y-146624167D01*
X119461789Y-146598838D01*
X119696100Y-146536054D01*
X119920212Y-146443224D01*
X120130289Y-146321936D01*
X120322738Y-146174265D01*
X120494265Y-146002738D01*
X120641936Y-145810289D01*
X120763224Y-145600212D01*
X120856054Y-145376100D01*
X120918838Y-145141789D01*
X120950500Y-144901288D01*
X120950500Y-144658712D01*
X120918838Y-144418211D01*
X120856054Y-144183900D01*
X120763224Y-143959788D01*
X120641936Y-143749711D01*
X120494265Y-143557262D01*
X120494260Y-143557256D01*
X120322743Y-143385739D01*
X120322736Y-143385733D01*
X120130293Y-143238067D01*
X120130292Y-143238066D01*
X120130289Y-143238064D01*
X119920212Y-143116776D01*
X119889834Y-143104193D01*
X119696104Y-143023947D01*
X119463416Y-142961598D01*
X119461789Y-142961162D01*
X119461788Y-142961161D01*
X119461785Y-142961161D01*
X119221289Y-142929500D01*
X119221288Y-142929500D01*
X118978712Y-142929500D01*
X118978711Y-142929500D01*
X118738214Y-142961161D01*
X118503895Y-143023947D01*
X118279794Y-143116773D01*
X118279785Y-143116777D01*
X118156424Y-143188000D01*
X118072928Y-143236207D01*
X118069706Y-143238067D01*
X117877263Y-143385733D01*
X117877256Y-143385739D01*
X117705739Y-143557256D01*
X117705733Y-143557263D01*
X117558067Y-143749706D01*
X117436777Y-143959785D01*
X117436773Y-143959794D01*
X117343947Y-144183895D01*
X117281161Y-144418214D01*
X117249500Y-144658711D01*
X113830562Y-144658711D01*
X113985662Y-112966393D01*
X114069288Y-95878711D01*
X117349500Y-95878711D01*
X117349500Y-96121288D01*
X117381161Y-96361785D01*
X117443947Y-96596104D01*
X117507900Y-96750500D01*
X117536776Y-96820212D01*
X117658064Y-97030289D01*
X117658066Y-97030292D01*
X117658067Y-97030293D01*
X117805733Y-97222736D01*
X117805739Y-97222743D01*
X117977256Y-97394260D01*
X117977262Y-97394265D01*
X118169711Y-97541936D01*
X118379788Y-97663224D01*
X118603900Y-97756054D01*
X118838211Y-97818838D01*
X119018586Y-97842584D01*
X119078711Y-97850500D01*
X119078712Y-97850500D01*
X119321289Y-97850500D01*
X119372234Y-97843793D01*
X119561789Y-97818838D01*
X119796100Y-97756054D01*
X120020212Y-97663224D01*
X120230289Y-97541936D01*
X120422738Y-97394265D01*
X120594265Y-97222738D01*
X120741936Y-97030289D01*
X120863224Y-96820212D01*
X120956054Y-96596100D01*
X121018838Y-96361789D01*
X121050500Y-96121288D01*
X121050500Y-95878712D01*
X121018838Y-95638211D01*
X120956054Y-95403900D01*
X120863224Y-95179788D01*
X120741936Y-94969711D01*
X120594265Y-94777262D01*
X120594260Y-94777256D01*
X120422743Y-94605739D01*
X120422736Y-94605733D01*
X120230293Y-94458067D01*
X120230292Y-94458066D01*
X120230289Y-94458064D01*
X120020212Y-94336776D01*
X120020205Y-94336773D01*
X119796104Y-94243947D01*
X119561785Y-94181161D01*
X119321289Y-94149500D01*
X119321288Y-94149500D01*
X119078712Y-94149500D01*
X119078711Y-94149500D01*
X118838214Y-94181161D01*
X118603895Y-94243947D01*
X118379794Y-94336773D01*
X118379785Y-94336777D01*
X118169706Y-94458067D01*
X117977263Y-94605733D01*
X117977256Y-94605739D01*
X117805739Y-94777256D01*
X117805733Y-94777263D01*
X117658067Y-94969706D01*
X117536777Y-95179785D01*
X117536773Y-95179794D01*
X117443947Y-95403895D01*
X117381161Y-95638214D01*
X117349500Y-95878711D01*
X114069288Y-95878711D01*
X114097452Y-90123892D01*
X114117465Y-90056951D01*
X114170492Y-90011455D01*
X114221451Y-90000500D01*
X126001867Y-90000500D01*
X126068906Y-90020185D01*
G37*
G04 #@! TD.AperFunction*
M02*
