G04 #@! TF.GenerationSoftware,KiCad,Pcbnew,8.0.6*
G04 #@! TF.CreationDate,2026-03-19T20:18:12+01:00*
G04 #@! TF.ProjectId,RFC522_PICO,52464335-3232-45f5-9049-434f2e6b6963,rev?*
G04 #@! TF.SameCoordinates,Original*
G04 #@! TF.FileFunction,Soldermask,Top*
G04 #@! TF.FilePolarity,Negative*
%FSLAX46Y46*%
G04 Gerber Fmt 4.6, Leading zero omitted, Abs format (unit mm)*
G04 Created by KiCad (PCBNEW 8.0.6) date 2026-03-19 20:18:12*
%MOMM*%
%LPD*%
G01*
G04 APERTURE LIST*
G04 APERTURE END LIST*
G36*
X119350295Y-143199699D02*
G01*
X119594427Y-143258310D01*
X119826385Y-143354390D01*
X120040456Y-143485573D01*
X120231371Y-143648629D01*
X120394427Y-143839544D01*
X120525610Y-144053615D01*
X120621690Y-144285573D01*
X120680301Y-144529705D01*
X120700000Y-144780000D01*
X120680301Y-145030295D01*
X120621690Y-145274427D01*
X120525610Y-145506385D01*
X120394427Y-145720456D01*
X120231371Y-145911371D01*
X120040456Y-146074427D01*
X119826385Y-146205610D01*
X119594427Y-146301690D01*
X119350295Y-146360301D01*
X119100000Y-146380000D01*
X118849705Y-146360301D01*
X118605573Y-146301690D01*
X118373615Y-146205610D01*
X118159544Y-146074427D01*
X117968629Y-145911371D01*
X117805573Y-145720456D01*
X117674390Y-145506385D01*
X117578310Y-145274427D01*
X117519699Y-145030295D01*
X117500000Y-144780000D01*
X117519699Y-144529705D01*
X117578310Y-144285573D01*
X117674390Y-144053615D01*
X117805573Y-143839544D01*
X117968629Y-143648629D01*
X118159544Y-143485573D01*
X118373615Y-143354390D01*
X118605573Y-143258310D01*
X118849705Y-143199699D01*
X119100000Y-143180000D01*
X119350295Y-143199699D01*
G37*
G36*
X171750295Y-143199699D02*
G01*
X171994427Y-143258310D01*
X172226385Y-143354390D01*
X172440456Y-143485573D01*
X172631371Y-143648629D01*
X172794427Y-143839544D01*
X172925610Y-144053615D01*
X173021690Y-144285573D01*
X173080301Y-144529705D01*
X173100000Y-144780000D01*
X173080301Y-145030295D01*
X173021690Y-145274427D01*
X172925610Y-145506385D01*
X172794427Y-145720456D01*
X172631371Y-145911371D01*
X172440456Y-146074427D01*
X172226385Y-146205610D01*
X171994427Y-146301690D01*
X171750295Y-146360301D01*
X171500000Y-146380000D01*
X171249705Y-146360301D01*
X171005573Y-146301690D01*
X170773615Y-146205610D01*
X170559544Y-146074427D01*
X170368629Y-145911371D01*
X170205573Y-145720456D01*
X170074390Y-145506385D01*
X169978310Y-145274427D01*
X169919699Y-145030295D01*
X169900000Y-144780000D01*
X169919699Y-144529705D01*
X169978310Y-144285573D01*
X170074390Y-144053615D01*
X170205573Y-143839544D01*
X170368629Y-143648629D01*
X170559544Y-143485573D01*
X170773615Y-143354390D01*
X171005573Y-143258310D01*
X171249705Y-143199699D01*
X171500000Y-143180000D01*
X171750295Y-143199699D01*
G37*
G36*
X126902691Y-143896404D02*
G01*
X127061213Y-143951873D01*
X127203417Y-144041226D01*
X127322174Y-144159983D01*
X127411527Y-144302187D01*
X127466996Y-144460709D01*
X127485800Y-144627600D01*
X127466996Y-144794491D01*
X127411527Y-144953013D01*
X127322174Y-145095217D01*
X127203417Y-145213974D01*
X127061213Y-145303327D01*
X126902691Y-145358796D01*
X126735800Y-145377600D01*
X126568909Y-145358796D01*
X126410387Y-145303327D01*
X126268183Y-145213974D01*
X126149426Y-145095217D01*
X126060073Y-144953013D01*
X126004604Y-144794491D01*
X125985800Y-144627600D01*
X126004604Y-144460709D01*
X126060073Y-144302187D01*
X126149426Y-144159983D01*
X126268183Y-144041226D01*
X126410387Y-143951873D01*
X126568909Y-143896404D01*
X126735800Y-143877600D01*
X126902691Y-143896404D01*
G37*
G36*
X145250000Y-145290000D02*
G01*
X143750000Y-145290000D01*
X143750000Y-143790000D01*
X145250000Y-143790000D01*
X145250000Y-145290000D01*
G37*
G36*
X126952691Y-141411404D02*
G01*
X127111213Y-141466873D01*
X127253417Y-141556226D01*
X127372174Y-141674983D01*
X127461527Y-141817187D01*
X127516996Y-141975709D01*
X127535800Y-142142600D01*
X127516996Y-142309491D01*
X127461527Y-142468013D01*
X127372174Y-142610217D01*
X127253417Y-142728974D01*
X127111213Y-142818327D01*
X126952691Y-142873796D01*
X126785800Y-142892600D01*
X126618909Y-142873796D01*
X126460387Y-142818327D01*
X126318183Y-142728974D01*
X126199426Y-142610217D01*
X126110073Y-142468013D01*
X126054604Y-142309491D01*
X126035800Y-142142600D01*
X126054604Y-141975709D01*
X126110073Y-141817187D01*
X126199426Y-141674983D01*
X126318183Y-141556226D01*
X126460387Y-141466873D01*
X126618909Y-141411404D01*
X126785800Y-141392600D01*
X126952691Y-141411404D01*
G37*
G36*
X144666891Y-141268804D02*
G01*
X144825413Y-141324273D01*
X144967617Y-141413626D01*
X145086374Y-141532383D01*
X145175727Y-141674587D01*
X145231196Y-141833109D01*
X145250000Y-142000000D01*
X145231196Y-142166891D01*
X145175727Y-142325413D01*
X145086374Y-142467617D01*
X144967617Y-142586374D01*
X144825413Y-142675727D01*
X144666891Y-142731196D01*
X144500000Y-142750000D01*
X144333109Y-142731196D01*
X144174587Y-142675727D01*
X144032383Y-142586374D01*
X143913626Y-142467617D01*
X143824273Y-142325413D01*
X143768804Y-142166891D01*
X143750000Y-142000000D01*
X143768804Y-141833109D01*
X143824273Y-141674587D01*
X143913626Y-141532383D01*
X144032383Y-141413626D01*
X144174587Y-141324273D01*
X144333109Y-141268804D01*
X144500000Y-141250000D01*
X144666891Y-141268804D01*
G37*
G36*
X126952691Y-138871404D02*
G01*
X127111213Y-138926873D01*
X127253417Y-139016226D01*
X127372174Y-139134983D01*
X127461527Y-139277187D01*
X127516996Y-139435709D01*
X127535800Y-139602600D01*
X127516996Y-139769491D01*
X127461527Y-139928013D01*
X127372174Y-140070217D01*
X127253417Y-140188974D01*
X127111213Y-140278327D01*
X126952691Y-140333796D01*
X126785800Y-140352600D01*
X126618909Y-140333796D01*
X126460387Y-140278327D01*
X126318183Y-140188974D01*
X126199426Y-140070217D01*
X126110073Y-139928013D01*
X126054604Y-139769491D01*
X126035800Y-139602600D01*
X126054604Y-139435709D01*
X126110073Y-139277187D01*
X126199426Y-139134983D01*
X126318183Y-139016226D01*
X126460387Y-138926873D01*
X126618909Y-138871404D01*
X126785800Y-138852600D01*
X126952691Y-138871404D01*
G37*
G36*
X144666891Y-138728804D02*
G01*
X144825413Y-138784273D01*
X144967617Y-138873626D01*
X145086374Y-138992383D01*
X145175727Y-139134587D01*
X145231196Y-139293109D01*
X145250000Y-139460000D01*
X145231196Y-139626891D01*
X145175727Y-139785413D01*
X145086374Y-139927617D01*
X144967617Y-140046374D01*
X144825413Y-140135727D01*
X144666891Y-140191196D01*
X144500000Y-140210000D01*
X144333109Y-140191196D01*
X144174587Y-140135727D01*
X144032383Y-140046374D01*
X143913626Y-139927617D01*
X143824273Y-139785413D01*
X143768804Y-139626891D01*
X143750000Y-139460000D01*
X143768804Y-139293109D01*
X143824273Y-139134587D01*
X143913626Y-138992383D01*
X144032383Y-138873626D01*
X144174587Y-138784273D01*
X144333109Y-138728804D01*
X144500000Y-138710000D01*
X144666891Y-138728804D01*
G37*
G36*
X172500000Y-138340000D02*
G01*
X170700000Y-138340000D01*
X170700000Y-136540000D01*
X172500000Y-136540000D01*
X172500000Y-138340000D01*
G37*
G36*
X162900000Y-138240000D02*
G01*
X161100000Y-138240000D01*
X161100000Y-136440000D01*
X162900000Y-136440000D01*
X162900000Y-138240000D01*
G37*
G36*
X153500000Y-138140000D02*
G01*
X151700000Y-138140000D01*
X151700000Y-136340000D01*
X153500000Y-136340000D01*
X153500000Y-138140000D01*
G37*
G36*
X126952691Y-136331404D02*
G01*
X127111213Y-136386873D01*
X127253417Y-136476226D01*
X127372174Y-136594983D01*
X127461527Y-136737187D01*
X127516996Y-136895709D01*
X127535800Y-137062600D01*
X127516996Y-137229491D01*
X127461527Y-137388013D01*
X127372174Y-137530217D01*
X127253417Y-137648974D01*
X127111213Y-137738327D01*
X126952691Y-137793796D01*
X126785800Y-137812600D01*
X126618909Y-137793796D01*
X126460387Y-137738327D01*
X126318183Y-137648974D01*
X126199426Y-137530217D01*
X126110073Y-137388013D01*
X126054604Y-137229491D01*
X126035800Y-137062600D01*
X126054604Y-136895709D01*
X126110073Y-136737187D01*
X126199426Y-136594983D01*
X126318183Y-136476226D01*
X126460387Y-136386873D01*
X126618909Y-136331404D01*
X126785800Y-136312600D01*
X126952691Y-136331404D01*
G37*
G36*
X144666891Y-136188804D02*
G01*
X144825413Y-136244273D01*
X144967617Y-136333626D01*
X145086374Y-136452383D01*
X145175727Y-136594587D01*
X145231196Y-136753109D01*
X145250000Y-136920000D01*
X145231196Y-137086891D01*
X145175727Y-137245413D01*
X145086374Y-137387617D01*
X144967617Y-137506374D01*
X144825413Y-137595727D01*
X144666891Y-137651196D01*
X144500000Y-137670000D01*
X144333109Y-137651196D01*
X144174587Y-137595727D01*
X144032383Y-137506374D01*
X143913626Y-137387617D01*
X143824273Y-137245413D01*
X143768804Y-137086891D01*
X143750000Y-136920000D01*
X143768804Y-136753109D01*
X143824273Y-136594587D01*
X143913626Y-136452383D01*
X144032383Y-136333626D01*
X144174587Y-136244273D01*
X144333109Y-136188804D01*
X144500000Y-136170000D01*
X144666891Y-136188804D01*
G37*
G36*
X171647113Y-134004930D02*
G01*
X171694076Y-134004930D01*
X171734622Y-134013548D01*
X171775526Y-134017577D01*
X171826916Y-134033166D01*
X171878115Y-134044049D01*
X171910879Y-134058636D01*
X171944304Y-134068776D01*
X171997420Y-134097166D01*
X172050000Y-134120577D01*
X172074445Y-134138337D01*
X172099849Y-134151916D01*
X172151669Y-134194444D01*
X172202218Y-134231170D01*
X172218631Y-134249398D01*
X172236190Y-134263809D01*
X172283379Y-134321308D01*
X172328115Y-134370993D01*
X172337512Y-134387269D01*
X172348083Y-134400150D01*
X172387183Y-134473302D01*
X172422191Y-134533937D01*
X172426218Y-134546331D01*
X172431223Y-134555695D01*
X172458821Y-134646672D01*
X172480333Y-134712879D01*
X172481090Y-134720082D01*
X172482422Y-134724473D01*
X172495377Y-134856021D01*
X172500000Y-134900000D01*
X172495377Y-134943982D01*
X172482422Y-135075526D01*
X172481090Y-135079916D01*
X172480333Y-135087121D01*
X172458816Y-135153341D01*
X172431223Y-135244304D01*
X172426219Y-135253665D01*
X172422191Y-135266063D01*
X172387176Y-135326709D01*
X172348083Y-135399849D01*
X172337514Y-135412726D01*
X172328115Y-135429007D01*
X172283369Y-135478701D01*
X172236190Y-135536190D01*
X172218634Y-135550597D01*
X172202218Y-135568830D01*
X172151659Y-135605563D01*
X172099849Y-135648083D01*
X172074450Y-135661658D01*
X172050000Y-135679423D01*
X171997408Y-135702838D01*
X171944304Y-135731223D01*
X171910886Y-135741360D01*
X171878115Y-135755951D01*
X171826905Y-135766836D01*
X171775526Y-135782422D01*
X171734631Y-135786449D01*
X171694076Y-135795070D01*
X171647103Y-135795070D01*
X171600000Y-135799709D01*
X171552897Y-135795070D01*
X171505924Y-135795070D01*
X171465368Y-135786449D01*
X171424473Y-135782422D01*
X171373091Y-135766835D01*
X171321885Y-135755951D01*
X171289115Y-135741361D01*
X171255695Y-135731223D01*
X171202585Y-135702835D01*
X171150000Y-135679423D01*
X171125552Y-135661660D01*
X171100150Y-135648083D01*
X171048332Y-135605556D01*
X170997782Y-135568830D01*
X170981368Y-135550600D01*
X170963809Y-135536190D01*
X170916618Y-135478688D01*
X170871885Y-135429007D01*
X170862487Y-135412730D01*
X170851916Y-135399849D01*
X170812810Y-135326686D01*
X170777809Y-135266063D01*
X170773782Y-135253670D01*
X170768776Y-135244304D01*
X170741168Y-135153294D01*
X170719667Y-135087121D01*
X170718910Y-135079921D01*
X170717577Y-135075526D01*
X170704606Y-134943831D01*
X170700000Y-134900000D01*
X170704606Y-134856172D01*
X170717577Y-134724473D01*
X170718910Y-134720077D01*
X170719667Y-134712879D01*
X170741163Y-134646719D01*
X170768776Y-134555695D01*
X170773783Y-134546327D01*
X170777809Y-134533937D01*
X170812802Y-134473326D01*
X170851916Y-134400150D01*
X170862489Y-134387265D01*
X170871885Y-134370993D01*
X170916609Y-134321321D01*
X170963809Y-134263809D01*
X170981371Y-134249395D01*
X170997782Y-134231170D01*
X171048321Y-134194450D01*
X171100150Y-134151916D01*
X171125557Y-134138335D01*
X171150000Y-134120577D01*
X171202573Y-134097169D01*
X171255695Y-134068776D01*
X171289122Y-134058635D01*
X171321885Y-134044049D01*
X171373080Y-134033166D01*
X171424473Y-134017577D01*
X171465377Y-134013548D01*
X171505924Y-134004930D01*
X171552887Y-134004930D01*
X171600000Y-134000290D01*
X171647113Y-134004930D01*
G37*
G36*
X162047113Y-133904930D02*
G01*
X162094076Y-133904930D01*
X162134622Y-133913548D01*
X162175526Y-133917577D01*
X162226916Y-133933166D01*
X162278115Y-133944049D01*
X162310879Y-133958636D01*
X162344304Y-133968776D01*
X162397420Y-133997166D01*
X162450000Y-134020577D01*
X162474445Y-134038337D01*
X162499849Y-134051916D01*
X162551669Y-134094444D01*
X162602218Y-134131170D01*
X162618631Y-134149398D01*
X162636190Y-134163809D01*
X162683379Y-134221308D01*
X162728115Y-134270993D01*
X162737512Y-134287269D01*
X162748083Y-134300150D01*
X162787183Y-134373302D01*
X162822191Y-134433937D01*
X162826218Y-134446331D01*
X162831223Y-134455695D01*
X162858821Y-134546672D01*
X162880333Y-134612879D01*
X162881090Y-134620082D01*
X162882422Y-134624473D01*
X162895377Y-134756021D01*
X162900000Y-134800000D01*
X162895377Y-134843982D01*
X162882422Y-134975526D01*
X162881090Y-134979916D01*
X162880333Y-134987121D01*
X162858816Y-135053341D01*
X162831223Y-135144304D01*
X162826219Y-135153665D01*
X162822191Y-135166063D01*
X162787176Y-135226709D01*
X162748083Y-135299849D01*
X162737514Y-135312726D01*
X162728115Y-135329007D01*
X162683369Y-135378701D01*
X162636190Y-135436190D01*
X162618634Y-135450597D01*
X162602218Y-135468830D01*
X162551659Y-135505563D01*
X162499849Y-135548083D01*
X162474450Y-135561658D01*
X162450000Y-135579423D01*
X162397408Y-135602838D01*
X162344304Y-135631223D01*
X162310886Y-135641360D01*
X162278115Y-135655951D01*
X162226905Y-135666836D01*
X162175526Y-135682422D01*
X162134631Y-135686449D01*
X162094076Y-135695070D01*
X162047103Y-135695070D01*
X162000000Y-135699709D01*
X161952897Y-135695070D01*
X161905924Y-135695070D01*
X161865368Y-135686449D01*
X161824473Y-135682422D01*
X161773091Y-135666835D01*
X161721885Y-135655951D01*
X161689115Y-135641361D01*
X161655695Y-135631223D01*
X161602585Y-135602835D01*
X161550000Y-135579423D01*
X161525552Y-135561660D01*
X161500150Y-135548083D01*
X161448332Y-135505556D01*
X161397782Y-135468830D01*
X161381368Y-135450600D01*
X161363809Y-135436190D01*
X161316618Y-135378688D01*
X161271885Y-135329007D01*
X161262487Y-135312730D01*
X161251916Y-135299849D01*
X161212810Y-135226686D01*
X161177809Y-135166063D01*
X161173782Y-135153670D01*
X161168776Y-135144304D01*
X161141168Y-135053294D01*
X161119667Y-134987121D01*
X161118910Y-134979921D01*
X161117577Y-134975526D01*
X161104606Y-134843831D01*
X161100000Y-134800000D01*
X161104606Y-134756172D01*
X161117577Y-134624473D01*
X161118910Y-134620077D01*
X161119667Y-134612879D01*
X161141163Y-134546719D01*
X161168776Y-134455695D01*
X161173783Y-134446327D01*
X161177809Y-134433937D01*
X161212802Y-134373326D01*
X161251916Y-134300150D01*
X161262489Y-134287265D01*
X161271885Y-134270993D01*
X161316609Y-134221321D01*
X161363809Y-134163809D01*
X161381371Y-134149395D01*
X161397782Y-134131170D01*
X161448321Y-134094450D01*
X161500150Y-134051916D01*
X161525557Y-134038335D01*
X161550000Y-134020577D01*
X161602573Y-133997169D01*
X161655695Y-133968776D01*
X161689122Y-133958635D01*
X161721885Y-133944049D01*
X161773080Y-133933166D01*
X161824473Y-133917577D01*
X161865377Y-133913548D01*
X161905924Y-133904930D01*
X161952887Y-133904930D01*
X162000000Y-133900290D01*
X162047113Y-133904930D01*
G37*
G36*
X152647113Y-133804930D02*
G01*
X152694076Y-133804930D01*
X152734622Y-133813548D01*
X152775526Y-133817577D01*
X152826916Y-133833166D01*
X152878115Y-133844049D01*
X152910879Y-133858636D01*
X152944304Y-133868776D01*
X152997420Y-133897166D01*
X153050000Y-133920577D01*
X153074445Y-133938337D01*
X153099849Y-133951916D01*
X153151669Y-133994444D01*
X153202218Y-134031170D01*
X153218631Y-134049398D01*
X153236190Y-134063809D01*
X153283379Y-134121308D01*
X153328115Y-134170993D01*
X153337512Y-134187269D01*
X153348083Y-134200150D01*
X153387183Y-134273302D01*
X153422191Y-134333937D01*
X153426218Y-134346331D01*
X153431223Y-134355695D01*
X153458821Y-134446672D01*
X153480333Y-134512879D01*
X153481090Y-134520082D01*
X153482422Y-134524473D01*
X153495377Y-134656021D01*
X153500000Y-134700000D01*
X153495377Y-134743982D01*
X153482422Y-134875526D01*
X153481090Y-134879916D01*
X153480333Y-134887121D01*
X153458816Y-134953341D01*
X153431223Y-135044304D01*
X153426219Y-135053665D01*
X153422191Y-135066063D01*
X153387176Y-135126709D01*
X153348083Y-135199849D01*
X153337514Y-135212726D01*
X153328115Y-135229007D01*
X153283369Y-135278701D01*
X153236190Y-135336190D01*
X153218634Y-135350597D01*
X153202218Y-135368830D01*
X153151659Y-135405563D01*
X153099849Y-135448083D01*
X153074450Y-135461658D01*
X153050000Y-135479423D01*
X152997408Y-135502838D01*
X152944304Y-135531223D01*
X152910886Y-135541360D01*
X152878115Y-135555951D01*
X152826905Y-135566836D01*
X152775526Y-135582422D01*
X152734631Y-135586449D01*
X152694076Y-135595070D01*
X152647103Y-135595070D01*
X152600000Y-135599709D01*
X152552897Y-135595070D01*
X152505924Y-135595070D01*
X152465368Y-135586449D01*
X152424473Y-135582422D01*
X152373091Y-135566835D01*
X152321885Y-135555951D01*
X152289115Y-135541361D01*
X152255695Y-135531223D01*
X152202585Y-135502835D01*
X152150000Y-135479423D01*
X152125552Y-135461660D01*
X152100150Y-135448083D01*
X152048332Y-135405556D01*
X151997782Y-135368830D01*
X151981368Y-135350600D01*
X151963809Y-135336190D01*
X151916618Y-135278688D01*
X151871885Y-135229007D01*
X151862487Y-135212730D01*
X151851916Y-135199849D01*
X151812810Y-135126686D01*
X151777809Y-135066063D01*
X151773782Y-135053670D01*
X151768776Y-135044304D01*
X151741168Y-134953294D01*
X151719667Y-134887121D01*
X151718910Y-134879921D01*
X151717577Y-134875526D01*
X151704606Y-134743831D01*
X151700000Y-134700000D01*
X151704606Y-134656172D01*
X151717577Y-134524473D01*
X151718910Y-134520077D01*
X151719667Y-134512879D01*
X151741163Y-134446719D01*
X151768776Y-134355695D01*
X151773783Y-134346327D01*
X151777809Y-134333937D01*
X151812802Y-134273326D01*
X151851916Y-134200150D01*
X151862489Y-134187265D01*
X151871885Y-134170993D01*
X151916609Y-134121321D01*
X151963809Y-134063809D01*
X151981371Y-134049395D01*
X151997782Y-134031170D01*
X152048321Y-133994450D01*
X152100150Y-133951916D01*
X152125557Y-133938335D01*
X152150000Y-133920577D01*
X152202573Y-133897169D01*
X152255695Y-133868776D01*
X152289122Y-133858635D01*
X152321885Y-133844049D01*
X152373080Y-133833166D01*
X152424473Y-133817577D01*
X152465377Y-133813548D01*
X152505924Y-133804930D01*
X152552887Y-133804930D01*
X152600000Y-133800290D01*
X152647113Y-133804930D01*
G37*
G36*
X126952691Y-133791404D02*
G01*
X127111213Y-133846873D01*
X127253417Y-133936226D01*
X127372174Y-134054983D01*
X127461527Y-134197187D01*
X127516996Y-134355709D01*
X127535800Y-134522600D01*
X127516996Y-134689491D01*
X127461527Y-134848013D01*
X127372174Y-134990217D01*
X127253417Y-135108974D01*
X127111213Y-135198327D01*
X126952691Y-135253796D01*
X126785800Y-135272600D01*
X126618909Y-135253796D01*
X126460387Y-135198327D01*
X126318183Y-135108974D01*
X126199426Y-134990217D01*
X126110073Y-134848013D01*
X126054604Y-134689491D01*
X126035800Y-134522600D01*
X126054604Y-134355709D01*
X126110073Y-134197187D01*
X126199426Y-134054983D01*
X126318183Y-133936226D01*
X126460387Y-133846873D01*
X126618909Y-133791404D01*
X126785800Y-133772600D01*
X126952691Y-133791404D01*
G37*
G36*
X144666891Y-133648804D02*
G01*
X144825413Y-133704273D01*
X144967617Y-133793626D01*
X145086374Y-133912383D01*
X145175727Y-134054587D01*
X145231196Y-134213109D01*
X145250000Y-134380000D01*
X145231196Y-134546891D01*
X145175727Y-134705413D01*
X145086374Y-134847617D01*
X144967617Y-134966374D01*
X144825413Y-135055727D01*
X144666891Y-135111196D01*
X144500000Y-135130000D01*
X144333109Y-135111196D01*
X144174587Y-135055727D01*
X144032383Y-134966374D01*
X143913626Y-134847617D01*
X143824273Y-134705413D01*
X143768804Y-134546891D01*
X143750000Y-134380000D01*
X143768804Y-134213109D01*
X143824273Y-134054587D01*
X143913626Y-133912383D01*
X144032383Y-133793626D01*
X144174587Y-133704273D01*
X144333109Y-133648804D01*
X144500000Y-133630000D01*
X144666891Y-133648804D01*
G37*
G36*
X126952691Y-131251404D02*
G01*
X127111213Y-131306873D01*
X127253417Y-131396226D01*
X127372174Y-131514983D01*
X127461527Y-131657187D01*
X127516996Y-131815709D01*
X127535800Y-131982600D01*
X127516996Y-132149491D01*
X127461527Y-132308013D01*
X127372174Y-132450217D01*
X127253417Y-132568974D01*
X127111213Y-132658327D01*
X126952691Y-132713796D01*
X126785800Y-132732600D01*
X126618909Y-132713796D01*
X126460387Y-132658327D01*
X126318183Y-132568974D01*
X126199426Y-132450217D01*
X126110073Y-132308013D01*
X126054604Y-132149491D01*
X126035800Y-131982600D01*
X126054604Y-131815709D01*
X126110073Y-131657187D01*
X126199426Y-131514983D01*
X126318183Y-131396226D01*
X126460387Y-131306873D01*
X126618909Y-131251404D01*
X126785800Y-131232600D01*
X126952691Y-131251404D01*
G37*
G36*
X144666891Y-131108804D02*
G01*
X144825413Y-131164273D01*
X144967617Y-131253626D01*
X145086374Y-131372383D01*
X145175727Y-131514587D01*
X145231196Y-131673109D01*
X145250000Y-131840000D01*
X145231196Y-132006891D01*
X145175727Y-132165413D01*
X145086374Y-132307617D01*
X144967617Y-132426374D01*
X144825413Y-132515727D01*
X144666891Y-132571196D01*
X144500000Y-132590000D01*
X144333109Y-132571196D01*
X144174587Y-132515727D01*
X144032383Y-132426374D01*
X143913626Y-132307617D01*
X143824273Y-132165413D01*
X143768804Y-132006891D01*
X143750000Y-131840000D01*
X143768804Y-131673109D01*
X143824273Y-131514587D01*
X143913626Y-131372383D01*
X144032383Y-131253626D01*
X144174587Y-131164273D01*
X144333109Y-131108804D01*
X144500000Y-131090000D01*
X144666891Y-131108804D01*
G37*
G36*
X171555893Y-128805119D02*
G01*
X171610722Y-128805119D01*
X171658959Y-128814136D01*
X171708337Y-128818456D01*
X171768942Y-128834695D01*
X171828396Y-128845809D01*
X171868721Y-128861431D01*
X171910344Y-128872584D01*
X171973358Y-128901967D01*
X172034886Y-128925804D01*
X172066644Y-128945467D01*
X172099889Y-128960970D01*
X172162599Y-129004880D01*
X172223162Y-129042379D01*
X172246376Y-129063541D01*
X172271195Y-129080920D01*
X172330564Y-129140289D01*
X172386811Y-129191565D01*
X172402143Y-129211868D01*
X172419079Y-129228804D01*
X172471904Y-129304246D01*
X172520261Y-129368281D01*
X172528924Y-129385680D01*
X172539032Y-129400115D01*
X172582075Y-129492421D01*
X172618967Y-129566510D01*
X172622634Y-129579401D01*
X172627414Y-129589650D01*
X172657534Y-129702059D01*
X172679568Y-129779501D01*
X172680246Y-129786823D01*
X172681543Y-129791662D01*
X172695881Y-129955554D01*
X172700000Y-130000000D01*
X172695881Y-130044448D01*
X172681543Y-130208337D01*
X172680246Y-130213174D01*
X172679568Y-130220499D01*
X172657527Y-130297965D01*
X172627415Y-130410344D01*
X172622637Y-130420589D01*
X172618967Y-130433490D01*
X172582052Y-130507625D01*
X172539029Y-130599889D01*
X172528925Y-130614318D01*
X172520261Y-130631719D01*
X172471897Y-130695762D01*
X172419079Y-130771195D01*
X172402146Y-130788127D01*
X172386811Y-130808435D01*
X172330552Y-130859721D01*
X172271195Y-130919079D01*
X172246381Y-130936453D01*
X172223162Y-130957621D01*
X172162587Y-130995127D01*
X172099889Y-131039029D01*
X172066650Y-131054528D01*
X172034886Y-131074196D01*
X171973345Y-131098037D01*
X171910344Y-131127415D01*
X171868729Y-131138565D01*
X171828396Y-131154191D01*
X171768930Y-131165307D01*
X171708337Y-131181543D01*
X171658969Y-131185862D01*
X171610722Y-131194881D01*
X171555882Y-131194881D01*
X171500000Y-131199770D01*
X171444118Y-131194881D01*
X171389278Y-131194881D01*
X171341031Y-131185862D01*
X171291662Y-131181543D01*
X171231066Y-131165306D01*
X171171604Y-131154191D01*
X171131272Y-131138566D01*
X171089655Y-131127415D01*
X171026648Y-131098034D01*
X170965114Y-131074196D01*
X170933352Y-131054530D01*
X170900110Y-131039029D01*
X170837404Y-130995121D01*
X170776838Y-130957621D01*
X170753621Y-130936456D01*
X170728804Y-130919079D01*
X170669435Y-130859710D01*
X170613189Y-130808435D01*
X170597856Y-130788131D01*
X170580920Y-130771195D01*
X170528088Y-130695743D01*
X170479739Y-130631719D01*
X170471076Y-130614323D01*
X170460970Y-130599889D01*
X170417932Y-130507593D01*
X170381033Y-130433490D01*
X170377364Y-130420594D01*
X170372584Y-130410344D01*
X170342455Y-130297904D01*
X170320432Y-130220499D01*
X170319753Y-130213180D01*
X170318456Y-130208337D01*
X170304100Y-130044255D01*
X170300000Y-130000000D01*
X170304100Y-129955748D01*
X170318456Y-129791662D01*
X170319754Y-129786817D01*
X170320432Y-129779501D01*
X170342448Y-129702120D01*
X170372585Y-129589650D01*
X170377366Y-129579395D01*
X170381033Y-129566510D01*
X170417909Y-129492452D01*
X170460967Y-129400115D01*
X170471077Y-129385675D01*
X170479739Y-129368281D01*
X170528081Y-129304264D01*
X170580920Y-129228804D01*
X170597859Y-129211864D01*
X170613189Y-129191565D01*
X170669424Y-129140299D01*
X170728804Y-129080920D01*
X170753626Y-129063539D01*
X170776838Y-129042379D01*
X170837395Y-129004883D01*
X170900115Y-128960967D01*
X170933364Y-128945462D01*
X170965114Y-128925804D01*
X171026621Y-128901975D01*
X171089650Y-128872585D01*
X171131283Y-128861429D01*
X171171604Y-128845809D01*
X171231053Y-128834696D01*
X171291662Y-128818456D01*
X171341041Y-128814135D01*
X171389278Y-128805119D01*
X171444106Y-128805119D01*
X171500000Y-128800229D01*
X171555893Y-128805119D01*
G37*
G36*
X152755893Y-128725119D02*
G01*
X152810722Y-128725119D01*
X152858959Y-128734136D01*
X152908337Y-128738456D01*
X152968942Y-128754695D01*
X153028396Y-128765809D01*
X153068721Y-128781431D01*
X153110344Y-128792584D01*
X153173358Y-128821967D01*
X153234886Y-128845804D01*
X153266644Y-128865467D01*
X153299889Y-128880970D01*
X153362599Y-128924880D01*
X153423162Y-128962379D01*
X153446376Y-128983541D01*
X153471195Y-129000920D01*
X153530564Y-129060289D01*
X153586811Y-129111565D01*
X153602143Y-129131868D01*
X153619079Y-129148804D01*
X153671904Y-129224246D01*
X153720261Y-129288281D01*
X153728924Y-129305680D01*
X153739032Y-129320115D01*
X153782075Y-129412421D01*
X153818967Y-129486510D01*
X153822634Y-129499401D01*
X153827414Y-129509650D01*
X153857534Y-129622059D01*
X153879568Y-129699501D01*
X153880246Y-129706823D01*
X153881543Y-129711662D01*
X153895881Y-129875554D01*
X153900000Y-129920000D01*
X153895881Y-129964448D01*
X153881543Y-130128337D01*
X153880246Y-130133174D01*
X153879568Y-130140499D01*
X153857527Y-130217965D01*
X153827415Y-130330344D01*
X153822637Y-130340589D01*
X153818967Y-130353490D01*
X153782052Y-130427625D01*
X153739029Y-130519889D01*
X153728925Y-130534318D01*
X153720261Y-130551719D01*
X153671897Y-130615762D01*
X153619079Y-130691195D01*
X153602146Y-130708127D01*
X153586811Y-130728435D01*
X153530552Y-130779721D01*
X153471195Y-130839079D01*
X153446381Y-130856453D01*
X153423162Y-130877621D01*
X153362587Y-130915127D01*
X153299889Y-130959029D01*
X153266650Y-130974528D01*
X153234886Y-130994196D01*
X153173345Y-131018037D01*
X153110344Y-131047415D01*
X153068729Y-131058565D01*
X153028396Y-131074191D01*
X152968930Y-131085307D01*
X152908337Y-131101543D01*
X152858969Y-131105862D01*
X152810722Y-131114881D01*
X152755882Y-131114881D01*
X152700000Y-131119770D01*
X152644118Y-131114881D01*
X152589278Y-131114881D01*
X152541031Y-131105862D01*
X152491662Y-131101543D01*
X152431066Y-131085306D01*
X152371604Y-131074191D01*
X152331272Y-131058566D01*
X152289655Y-131047415D01*
X152226648Y-131018034D01*
X152165114Y-130994196D01*
X152133352Y-130974530D01*
X152100110Y-130959029D01*
X152037404Y-130915121D01*
X151976838Y-130877621D01*
X151953621Y-130856456D01*
X151928804Y-130839079D01*
X151869435Y-130779710D01*
X151813189Y-130728435D01*
X151797856Y-130708131D01*
X151780920Y-130691195D01*
X151728088Y-130615743D01*
X151679739Y-130551719D01*
X151671076Y-130534323D01*
X151660970Y-130519889D01*
X151617932Y-130427593D01*
X151581033Y-130353490D01*
X151577364Y-130340594D01*
X151572584Y-130330344D01*
X151542455Y-130217904D01*
X151520432Y-130140499D01*
X151519753Y-130133180D01*
X151518456Y-130128337D01*
X151504100Y-129964255D01*
X151500000Y-129920000D01*
X151504100Y-129875748D01*
X151518456Y-129711662D01*
X151519754Y-129706817D01*
X151520432Y-129699501D01*
X151542448Y-129622120D01*
X151572585Y-129509650D01*
X151577366Y-129499395D01*
X151581033Y-129486510D01*
X151617909Y-129412452D01*
X151660967Y-129320115D01*
X151671077Y-129305675D01*
X151679739Y-129288281D01*
X151728081Y-129224264D01*
X151780920Y-129148804D01*
X151797859Y-129131864D01*
X151813189Y-129111565D01*
X151869424Y-129060299D01*
X151928804Y-129000920D01*
X151953626Y-128983539D01*
X151976838Y-128962379D01*
X152037395Y-128924883D01*
X152100115Y-128880967D01*
X152133364Y-128865462D01*
X152165114Y-128845804D01*
X152226621Y-128821975D01*
X152289650Y-128792585D01*
X152331283Y-128781429D01*
X152371604Y-128765809D01*
X152431053Y-128754696D01*
X152491662Y-128738456D01*
X152541041Y-128734135D01*
X152589278Y-128725119D01*
X152644106Y-128725119D01*
X152700000Y-128720229D01*
X152755893Y-128725119D01*
G37*
G36*
X162055893Y-128725119D02*
G01*
X162110722Y-128725119D01*
X162158959Y-128734136D01*
X162208337Y-128738456D01*
X162268942Y-128754695D01*
X162328396Y-128765809D01*
X162368721Y-128781431D01*
X162410344Y-128792584D01*
X162473358Y-128821967D01*
X162534886Y-128845804D01*
X162566644Y-128865467D01*
X162599889Y-128880970D01*
X162662599Y-128924880D01*
X162723162Y-128962379D01*
X162746376Y-128983541D01*
X162771195Y-129000920D01*
X162830564Y-129060289D01*
X162886811Y-129111565D01*
X162902143Y-129131868D01*
X162919079Y-129148804D01*
X162971904Y-129224246D01*
X163020261Y-129288281D01*
X163028924Y-129305680D01*
X163039032Y-129320115D01*
X163082075Y-129412421D01*
X163118967Y-129486510D01*
X163122634Y-129499401D01*
X163127414Y-129509650D01*
X163157534Y-129622059D01*
X163179568Y-129699501D01*
X163180246Y-129706823D01*
X163181543Y-129711662D01*
X163195881Y-129875554D01*
X163200000Y-129920000D01*
X163195881Y-129964448D01*
X163181543Y-130128337D01*
X163180246Y-130133174D01*
X163179568Y-130140499D01*
X163157527Y-130217965D01*
X163127415Y-130330344D01*
X163122637Y-130340589D01*
X163118967Y-130353490D01*
X163082052Y-130427625D01*
X163039029Y-130519889D01*
X163028925Y-130534318D01*
X163020261Y-130551719D01*
X162971897Y-130615762D01*
X162919079Y-130691195D01*
X162902146Y-130708127D01*
X162886811Y-130728435D01*
X162830552Y-130779721D01*
X162771195Y-130839079D01*
X162746381Y-130856453D01*
X162723162Y-130877621D01*
X162662587Y-130915127D01*
X162599889Y-130959029D01*
X162566650Y-130974528D01*
X162534886Y-130994196D01*
X162473345Y-131018037D01*
X162410344Y-131047415D01*
X162368729Y-131058565D01*
X162328396Y-131074191D01*
X162268930Y-131085307D01*
X162208337Y-131101543D01*
X162158969Y-131105862D01*
X162110722Y-131114881D01*
X162055882Y-131114881D01*
X162000000Y-131119770D01*
X161944118Y-131114881D01*
X161889278Y-131114881D01*
X161841031Y-131105862D01*
X161791662Y-131101543D01*
X161731066Y-131085306D01*
X161671604Y-131074191D01*
X161631272Y-131058566D01*
X161589655Y-131047415D01*
X161526648Y-131018034D01*
X161465114Y-130994196D01*
X161433352Y-130974530D01*
X161400110Y-130959029D01*
X161337404Y-130915121D01*
X161276838Y-130877621D01*
X161253621Y-130856456D01*
X161228804Y-130839079D01*
X161169435Y-130779710D01*
X161113189Y-130728435D01*
X161097856Y-130708131D01*
X161080920Y-130691195D01*
X161028088Y-130615743D01*
X160979739Y-130551719D01*
X160971076Y-130534323D01*
X160960970Y-130519889D01*
X160917932Y-130427593D01*
X160881033Y-130353490D01*
X160877364Y-130340594D01*
X160872584Y-130330344D01*
X160842455Y-130217904D01*
X160820432Y-130140499D01*
X160819753Y-130133180D01*
X160818456Y-130128337D01*
X160804100Y-129964255D01*
X160800000Y-129920000D01*
X160804100Y-129875748D01*
X160818456Y-129711662D01*
X160819754Y-129706817D01*
X160820432Y-129699501D01*
X160842448Y-129622120D01*
X160872585Y-129509650D01*
X160877366Y-129499395D01*
X160881033Y-129486510D01*
X160917909Y-129412452D01*
X160960967Y-129320115D01*
X160971077Y-129305675D01*
X160979739Y-129288281D01*
X161028081Y-129224264D01*
X161080920Y-129148804D01*
X161097859Y-129131864D01*
X161113189Y-129111565D01*
X161169424Y-129060299D01*
X161228804Y-129000920D01*
X161253626Y-128983539D01*
X161276838Y-128962379D01*
X161337395Y-128924883D01*
X161400115Y-128880967D01*
X161433364Y-128865462D01*
X161465114Y-128845804D01*
X161526621Y-128821975D01*
X161589650Y-128792585D01*
X161631283Y-128781429D01*
X161671604Y-128765809D01*
X161731053Y-128754696D01*
X161791662Y-128738456D01*
X161841041Y-128734135D01*
X161889278Y-128725119D01*
X161944106Y-128725119D01*
X162000000Y-128720229D01*
X162055893Y-128725119D01*
G37*
G36*
X126952691Y-128711404D02*
G01*
X127111213Y-128766873D01*
X127253417Y-128856226D01*
X127372174Y-128974983D01*
X127461527Y-129117187D01*
X127516996Y-129275709D01*
X127535800Y-129442600D01*
X127516996Y-129609491D01*
X127461527Y-129768013D01*
X127372174Y-129910217D01*
X127253417Y-130028974D01*
X127111213Y-130118327D01*
X126952691Y-130173796D01*
X126785800Y-130192600D01*
X126618909Y-130173796D01*
X126460387Y-130118327D01*
X126318183Y-130028974D01*
X126199426Y-129910217D01*
X126110073Y-129768013D01*
X126054604Y-129609491D01*
X126035800Y-129442600D01*
X126054604Y-129275709D01*
X126110073Y-129117187D01*
X126199426Y-128974983D01*
X126318183Y-128856226D01*
X126460387Y-128766873D01*
X126618909Y-128711404D01*
X126785800Y-128692600D01*
X126952691Y-128711404D01*
G37*
G36*
X144666891Y-128568804D02*
G01*
X144825413Y-128624273D01*
X144967617Y-128713626D01*
X145086374Y-128832383D01*
X145175727Y-128974587D01*
X145231196Y-129133109D01*
X145250000Y-129300000D01*
X145231196Y-129466891D01*
X145175727Y-129625413D01*
X145086374Y-129767617D01*
X144967617Y-129886374D01*
X144825413Y-129975727D01*
X144666891Y-130031196D01*
X144500000Y-130050000D01*
X144333109Y-130031196D01*
X144174587Y-129975727D01*
X144032383Y-129886374D01*
X143913626Y-129767617D01*
X143824273Y-129625413D01*
X143768804Y-129466891D01*
X143750000Y-129300000D01*
X143768804Y-129133109D01*
X143824273Y-128974587D01*
X143913626Y-128832383D01*
X144032383Y-128713626D01*
X144174587Y-128624273D01*
X144333109Y-128568804D01*
X144500000Y-128550000D01*
X144666891Y-128568804D01*
G37*
G36*
X126952691Y-126171404D02*
G01*
X127111213Y-126226873D01*
X127253417Y-126316226D01*
X127372174Y-126434983D01*
X127461527Y-126577187D01*
X127516996Y-126735709D01*
X127535800Y-126902600D01*
X127516996Y-127069491D01*
X127461527Y-127228013D01*
X127372174Y-127370217D01*
X127253417Y-127488974D01*
X127111213Y-127578327D01*
X126952691Y-127633796D01*
X126785800Y-127652600D01*
X126618909Y-127633796D01*
X126460387Y-127578327D01*
X126318183Y-127488974D01*
X126199426Y-127370217D01*
X126110073Y-127228013D01*
X126054604Y-127069491D01*
X126035800Y-126902600D01*
X126054604Y-126735709D01*
X126110073Y-126577187D01*
X126199426Y-126434983D01*
X126318183Y-126316226D01*
X126460387Y-126226873D01*
X126618909Y-126171404D01*
X126785800Y-126152600D01*
X126952691Y-126171404D01*
G37*
G36*
X144666891Y-126028804D02*
G01*
X144825413Y-126084273D01*
X144967617Y-126173626D01*
X145086374Y-126292383D01*
X145175727Y-126434587D01*
X145231196Y-126593109D01*
X145250000Y-126760000D01*
X145231196Y-126926891D01*
X145175727Y-127085413D01*
X145086374Y-127227617D01*
X144967617Y-127346374D01*
X144825413Y-127435727D01*
X144666891Y-127491196D01*
X144500000Y-127510000D01*
X144333109Y-127491196D01*
X144174587Y-127435727D01*
X144032383Y-127346374D01*
X143913626Y-127227617D01*
X143824273Y-127085413D01*
X143768804Y-126926891D01*
X143750000Y-126760000D01*
X143768804Y-126593109D01*
X143824273Y-126434587D01*
X143913626Y-126292383D01*
X144032383Y-126173626D01*
X144174587Y-126084273D01*
X144333109Y-126028804D01*
X144500000Y-126010000D01*
X144666891Y-126028804D01*
G37*
G36*
X126952691Y-123631404D02*
G01*
X127111213Y-123686873D01*
X127253417Y-123776226D01*
X127372174Y-123894983D01*
X127461527Y-124037187D01*
X127516996Y-124195709D01*
X127535800Y-124362600D01*
X127516996Y-124529491D01*
X127461527Y-124688013D01*
X127372174Y-124830217D01*
X127253417Y-124948974D01*
X127111213Y-125038327D01*
X126952691Y-125093796D01*
X126785800Y-125112600D01*
X126618909Y-125093796D01*
X126460387Y-125038327D01*
X126318183Y-124948974D01*
X126199426Y-124830217D01*
X126110073Y-124688013D01*
X126054604Y-124529491D01*
X126035800Y-124362600D01*
X126054604Y-124195709D01*
X126110073Y-124037187D01*
X126199426Y-123894983D01*
X126318183Y-123776226D01*
X126460387Y-123686873D01*
X126618909Y-123631404D01*
X126785800Y-123612600D01*
X126952691Y-123631404D01*
G37*
G36*
X144666891Y-123488804D02*
G01*
X144825413Y-123544273D01*
X144967617Y-123633626D01*
X145086374Y-123752383D01*
X145175727Y-123894587D01*
X145231196Y-124053109D01*
X145250000Y-124220000D01*
X145231196Y-124386891D01*
X145175727Y-124545413D01*
X145086374Y-124687617D01*
X144967617Y-124806374D01*
X144825413Y-124895727D01*
X144666891Y-124951196D01*
X144500000Y-124970000D01*
X144333109Y-124951196D01*
X144174587Y-124895727D01*
X144032383Y-124806374D01*
X143913626Y-124687617D01*
X143824273Y-124545413D01*
X143768804Y-124386891D01*
X143750000Y-124220000D01*
X143768804Y-124053109D01*
X143824273Y-123894587D01*
X143913626Y-123752383D01*
X144032383Y-123633626D01*
X144174587Y-123544273D01*
X144333109Y-123488804D01*
X144500000Y-123470000D01*
X144666891Y-123488804D01*
G37*
G36*
X115945090Y-121269215D02*
G01*
X116132683Y-121326120D01*
X116305570Y-121418530D01*
X116457107Y-121542893D01*
X116581470Y-121694430D01*
X116673880Y-121867317D01*
X116730785Y-122054910D01*
X116750000Y-122250000D01*
X116730785Y-122445090D01*
X116673880Y-122632683D01*
X116581470Y-122805570D01*
X116457107Y-122957107D01*
X116305570Y-123081470D01*
X116132683Y-123173880D01*
X115945090Y-123230785D01*
X115750000Y-123250000D01*
X115554910Y-123230785D01*
X115367317Y-123173880D01*
X115194430Y-123081470D01*
X115042893Y-122957107D01*
X114918530Y-122805570D01*
X114826120Y-122632683D01*
X114769215Y-122445090D01*
X114750000Y-122250000D01*
X114769215Y-122054910D01*
X114826120Y-121867317D01*
X114918530Y-121694430D01*
X115042893Y-121542893D01*
X115194430Y-121418530D01*
X115367317Y-121326120D01*
X115554910Y-121269215D01*
X115750000Y-121250000D01*
X115945090Y-121269215D01*
G37*
G36*
X122445090Y-121269215D02*
G01*
X122632683Y-121326120D01*
X122805570Y-121418530D01*
X122957107Y-121542893D01*
X123081470Y-121694430D01*
X123173880Y-121867317D01*
X123230785Y-122054910D01*
X123250000Y-122250000D01*
X123230785Y-122445090D01*
X123173880Y-122632683D01*
X123081470Y-122805570D01*
X122957107Y-122957107D01*
X122805570Y-123081470D01*
X122632683Y-123173880D01*
X122445090Y-123230785D01*
X122250000Y-123250000D01*
X122054910Y-123230785D01*
X121867317Y-123173880D01*
X121694430Y-123081470D01*
X121542893Y-122957107D01*
X121418530Y-122805570D01*
X121326120Y-122632683D01*
X121269215Y-122445090D01*
X121250000Y-122250000D01*
X121269215Y-122054910D01*
X121326120Y-121867317D01*
X121418530Y-121694430D01*
X121542893Y-121542893D01*
X121694430Y-121418530D01*
X121867317Y-121326120D01*
X122054910Y-121269215D01*
X122250000Y-121250000D01*
X122445090Y-121269215D01*
G37*
G36*
X126952691Y-121091404D02*
G01*
X127111213Y-121146873D01*
X127253417Y-121236226D01*
X127372174Y-121354983D01*
X127461527Y-121497187D01*
X127516996Y-121655709D01*
X127535800Y-121822600D01*
X127516996Y-121989491D01*
X127461527Y-122148013D01*
X127372174Y-122290217D01*
X127253417Y-122408974D01*
X127111213Y-122498327D01*
X126952691Y-122553796D01*
X126785800Y-122572600D01*
X126618909Y-122553796D01*
X126460387Y-122498327D01*
X126318183Y-122408974D01*
X126199426Y-122290217D01*
X126110073Y-122148013D01*
X126054604Y-121989491D01*
X126035800Y-121822600D01*
X126054604Y-121655709D01*
X126110073Y-121497187D01*
X126199426Y-121354983D01*
X126318183Y-121236226D01*
X126460387Y-121146873D01*
X126618909Y-121091404D01*
X126785800Y-121072600D01*
X126952691Y-121091404D01*
G37*
G36*
X144666891Y-120948804D02*
G01*
X144825413Y-121004273D01*
X144967617Y-121093626D01*
X145086374Y-121212383D01*
X145175727Y-121354587D01*
X145231196Y-121513109D01*
X145250000Y-121680000D01*
X145231196Y-121846891D01*
X145175727Y-122005413D01*
X145086374Y-122147617D01*
X144967617Y-122266374D01*
X144825413Y-122355727D01*
X144666891Y-122411196D01*
X144500000Y-122430000D01*
X144333109Y-122411196D01*
X144174587Y-122355727D01*
X144032383Y-122266374D01*
X143913626Y-122147617D01*
X143824273Y-122005413D01*
X143768804Y-121846891D01*
X143750000Y-121680000D01*
X143768804Y-121513109D01*
X143824273Y-121354587D01*
X143913626Y-121212383D01*
X144032383Y-121093626D01*
X144174587Y-121004273D01*
X144333109Y-120948804D01*
X144500000Y-120930000D01*
X144666891Y-120948804D01*
G37*
G36*
X126952691Y-118551404D02*
G01*
X127111213Y-118606873D01*
X127253417Y-118696226D01*
X127372174Y-118814983D01*
X127461527Y-118957187D01*
X127516996Y-119115709D01*
X127535800Y-119282600D01*
X127516996Y-119449491D01*
X127461527Y-119608013D01*
X127372174Y-119750217D01*
X127253417Y-119868974D01*
X127111213Y-119958327D01*
X126952691Y-120013796D01*
X126785800Y-120032600D01*
X126618909Y-120013796D01*
X126460387Y-119958327D01*
X126318183Y-119868974D01*
X126199426Y-119750217D01*
X126110073Y-119608013D01*
X126054604Y-119449491D01*
X126035800Y-119282600D01*
X126054604Y-119115709D01*
X126110073Y-118957187D01*
X126199426Y-118814983D01*
X126318183Y-118696226D01*
X126460387Y-118606873D01*
X126618909Y-118551404D01*
X126785800Y-118532600D01*
X126952691Y-118551404D01*
G37*
G36*
X144666891Y-118408804D02*
G01*
X144825413Y-118464273D01*
X144967617Y-118553626D01*
X145086374Y-118672383D01*
X145175727Y-118814587D01*
X145231196Y-118973109D01*
X145250000Y-119140000D01*
X145231196Y-119306891D01*
X145175727Y-119465413D01*
X145086374Y-119607617D01*
X144967617Y-119726374D01*
X144825413Y-119815727D01*
X144666891Y-119871196D01*
X144500000Y-119890000D01*
X144333109Y-119871196D01*
X144174587Y-119815727D01*
X144032383Y-119726374D01*
X143913626Y-119607617D01*
X143824273Y-119465413D01*
X143768804Y-119306891D01*
X143750000Y-119140000D01*
X143768804Y-118973109D01*
X143824273Y-118814587D01*
X143913626Y-118672383D01*
X144032383Y-118553626D01*
X144174587Y-118464273D01*
X144333109Y-118408804D01*
X144500000Y-118390000D01*
X144666891Y-118408804D01*
G37*
G36*
X115945090Y-116769215D02*
G01*
X116132683Y-116826120D01*
X116305570Y-116918530D01*
X116457107Y-117042893D01*
X116581470Y-117194430D01*
X116673880Y-117367317D01*
X116730785Y-117554910D01*
X116750000Y-117750000D01*
X116730785Y-117945090D01*
X116673880Y-118132683D01*
X116581470Y-118305570D01*
X116457107Y-118457107D01*
X116305570Y-118581470D01*
X116132683Y-118673880D01*
X115945090Y-118730785D01*
X115750000Y-118750000D01*
X115554910Y-118730785D01*
X115367317Y-118673880D01*
X115194430Y-118581470D01*
X115042893Y-118457107D01*
X114918530Y-118305570D01*
X114826120Y-118132683D01*
X114769215Y-117945090D01*
X114750000Y-117750000D01*
X114769215Y-117554910D01*
X114826120Y-117367317D01*
X114918530Y-117194430D01*
X115042893Y-117042893D01*
X115194430Y-116918530D01*
X115367317Y-116826120D01*
X115554910Y-116769215D01*
X115750000Y-116750000D01*
X115945090Y-116769215D01*
G37*
G36*
X122445090Y-116769215D02*
G01*
X122632683Y-116826120D01*
X122805570Y-116918530D01*
X122957107Y-117042893D01*
X123081470Y-117194430D01*
X123173880Y-117367317D01*
X123230785Y-117554910D01*
X123250000Y-117750000D01*
X123230785Y-117945090D01*
X123173880Y-118132683D01*
X123081470Y-118305570D01*
X122957107Y-118457107D01*
X122805570Y-118581470D01*
X122632683Y-118673880D01*
X122445090Y-118730785D01*
X122250000Y-118750000D01*
X122054910Y-118730785D01*
X121867317Y-118673880D01*
X121694430Y-118581470D01*
X121542893Y-118457107D01*
X121418530Y-118305570D01*
X121326120Y-118132683D01*
X121269215Y-117945090D01*
X121250000Y-117750000D01*
X121269215Y-117554910D01*
X121326120Y-117367317D01*
X121418530Y-117194430D01*
X121542893Y-117042893D01*
X121694430Y-116918530D01*
X121867317Y-116826120D01*
X122054910Y-116769215D01*
X122250000Y-116750000D01*
X122445090Y-116769215D01*
G37*
G36*
X126952691Y-116011404D02*
G01*
X127111213Y-116066873D01*
X127253417Y-116156226D01*
X127372174Y-116274983D01*
X127461527Y-116417187D01*
X127516996Y-116575709D01*
X127535800Y-116742600D01*
X127516996Y-116909491D01*
X127461527Y-117068013D01*
X127372174Y-117210217D01*
X127253417Y-117328974D01*
X127111213Y-117418327D01*
X126952691Y-117473796D01*
X126785800Y-117492600D01*
X126618909Y-117473796D01*
X126460387Y-117418327D01*
X126318183Y-117328974D01*
X126199426Y-117210217D01*
X126110073Y-117068013D01*
X126054604Y-116909491D01*
X126035800Y-116742600D01*
X126054604Y-116575709D01*
X126110073Y-116417187D01*
X126199426Y-116274983D01*
X126318183Y-116156226D01*
X126460387Y-116066873D01*
X126618909Y-116011404D01*
X126785800Y-115992600D01*
X126952691Y-116011404D01*
G37*
G36*
X144666891Y-115868804D02*
G01*
X144825413Y-115924273D01*
X144967617Y-116013626D01*
X145086374Y-116132383D01*
X145175727Y-116274587D01*
X145231196Y-116433109D01*
X145250000Y-116600000D01*
X145231196Y-116766891D01*
X145175727Y-116925413D01*
X145086374Y-117067617D01*
X144967617Y-117186374D01*
X144825413Y-117275727D01*
X144666891Y-117331196D01*
X144500000Y-117350000D01*
X144333109Y-117331196D01*
X144174587Y-117275727D01*
X144032383Y-117186374D01*
X143913626Y-117067617D01*
X143824273Y-116925413D01*
X143768804Y-116766891D01*
X143750000Y-116600000D01*
X143768804Y-116433109D01*
X143824273Y-116274587D01*
X143913626Y-116132383D01*
X144032383Y-116013626D01*
X144174587Y-115924273D01*
X144333109Y-115868804D01*
X144500000Y-115850000D01*
X144666891Y-115868804D01*
G37*
G36*
X171555893Y-113565119D02*
G01*
X171610722Y-113565119D01*
X171658959Y-113574136D01*
X171708337Y-113578456D01*
X171768942Y-113594695D01*
X171828396Y-113605809D01*
X171868721Y-113621431D01*
X171910344Y-113632584D01*
X171973358Y-113661967D01*
X172034886Y-113685804D01*
X172066644Y-113705467D01*
X172099889Y-113720970D01*
X172162599Y-113764880D01*
X172223162Y-113802379D01*
X172246376Y-113823541D01*
X172271195Y-113840920D01*
X172330564Y-113900289D01*
X172386811Y-113951565D01*
X172402143Y-113971868D01*
X172419079Y-113988804D01*
X172471904Y-114064246D01*
X172520261Y-114128281D01*
X172528924Y-114145680D01*
X172539032Y-114160115D01*
X172582075Y-114252421D01*
X172618967Y-114326510D01*
X172622634Y-114339401D01*
X172627414Y-114349650D01*
X172657534Y-114462059D01*
X172679568Y-114539501D01*
X172680246Y-114546823D01*
X172681543Y-114551662D01*
X172695881Y-114715554D01*
X172700000Y-114760000D01*
X172695881Y-114804448D01*
X172681543Y-114968337D01*
X172680246Y-114973174D01*
X172679568Y-114980499D01*
X172657527Y-115057965D01*
X172627415Y-115170344D01*
X172622637Y-115180589D01*
X172618967Y-115193490D01*
X172582052Y-115267625D01*
X172539029Y-115359889D01*
X172528925Y-115374318D01*
X172520261Y-115391719D01*
X172471897Y-115455762D01*
X172419079Y-115531195D01*
X172402146Y-115548127D01*
X172386811Y-115568435D01*
X172330552Y-115619721D01*
X172271195Y-115679079D01*
X172246381Y-115696453D01*
X172223162Y-115717621D01*
X172162587Y-115755127D01*
X172099889Y-115799029D01*
X172066650Y-115814528D01*
X172034886Y-115834196D01*
X171973345Y-115858037D01*
X171910344Y-115887415D01*
X171868729Y-115898565D01*
X171828396Y-115914191D01*
X171768930Y-115925307D01*
X171708337Y-115941543D01*
X171658969Y-115945862D01*
X171610722Y-115954881D01*
X171555882Y-115954881D01*
X171500000Y-115959770D01*
X171444118Y-115954881D01*
X171389278Y-115954881D01*
X171341031Y-115945862D01*
X171291662Y-115941543D01*
X171231066Y-115925306D01*
X171171604Y-115914191D01*
X171131272Y-115898566D01*
X171089655Y-115887415D01*
X171026648Y-115858034D01*
X170965114Y-115834196D01*
X170933352Y-115814530D01*
X170900110Y-115799029D01*
X170837404Y-115755121D01*
X170776838Y-115717621D01*
X170753621Y-115696456D01*
X170728804Y-115679079D01*
X170669435Y-115619710D01*
X170613189Y-115568435D01*
X170597856Y-115548131D01*
X170580920Y-115531195D01*
X170528088Y-115455743D01*
X170479739Y-115391719D01*
X170471076Y-115374323D01*
X170460970Y-115359889D01*
X170417932Y-115267593D01*
X170381033Y-115193490D01*
X170377364Y-115180594D01*
X170372584Y-115170344D01*
X170342455Y-115057904D01*
X170320432Y-114980499D01*
X170319753Y-114973180D01*
X170318456Y-114968337D01*
X170304100Y-114804255D01*
X170300000Y-114760000D01*
X170304100Y-114715748D01*
X170318456Y-114551662D01*
X170319754Y-114546817D01*
X170320432Y-114539501D01*
X170342448Y-114462120D01*
X170372585Y-114349650D01*
X170377366Y-114339395D01*
X170381033Y-114326510D01*
X170417909Y-114252452D01*
X170460967Y-114160115D01*
X170471077Y-114145675D01*
X170479739Y-114128281D01*
X170528081Y-114064264D01*
X170580920Y-113988804D01*
X170597859Y-113971864D01*
X170613189Y-113951565D01*
X170669424Y-113900299D01*
X170728804Y-113840920D01*
X170753626Y-113823539D01*
X170776838Y-113802379D01*
X170837395Y-113764883D01*
X170900115Y-113720967D01*
X170933364Y-113705462D01*
X170965114Y-113685804D01*
X171026621Y-113661975D01*
X171089650Y-113632585D01*
X171131283Y-113621429D01*
X171171604Y-113605809D01*
X171231053Y-113594696D01*
X171291662Y-113578456D01*
X171341041Y-113574135D01*
X171389278Y-113565119D01*
X171444106Y-113565119D01*
X171500000Y-113560229D01*
X171555893Y-113565119D01*
G37*
G36*
X152755893Y-113485119D02*
G01*
X152810722Y-113485119D01*
X152858959Y-113494136D01*
X152908337Y-113498456D01*
X152968942Y-113514695D01*
X153028396Y-113525809D01*
X153068721Y-113541431D01*
X153110344Y-113552584D01*
X153173358Y-113581967D01*
X153234886Y-113605804D01*
X153266644Y-113625467D01*
X153299889Y-113640970D01*
X153362599Y-113684880D01*
X153423162Y-113722379D01*
X153446376Y-113743541D01*
X153471195Y-113760920D01*
X153530564Y-113820289D01*
X153586811Y-113871565D01*
X153602143Y-113891868D01*
X153619079Y-113908804D01*
X153671904Y-113984246D01*
X153720261Y-114048281D01*
X153728924Y-114065680D01*
X153739032Y-114080115D01*
X153782075Y-114172421D01*
X153818967Y-114246510D01*
X153822634Y-114259401D01*
X153827414Y-114269650D01*
X153857534Y-114382059D01*
X153879568Y-114459501D01*
X153880246Y-114466823D01*
X153881543Y-114471662D01*
X153895881Y-114635554D01*
X153900000Y-114680000D01*
X153895881Y-114724448D01*
X153881543Y-114888337D01*
X153880246Y-114893174D01*
X153879568Y-114900499D01*
X153857527Y-114977965D01*
X153827415Y-115090344D01*
X153822637Y-115100589D01*
X153818967Y-115113490D01*
X153782052Y-115187625D01*
X153739029Y-115279889D01*
X153728925Y-115294318D01*
X153720261Y-115311719D01*
X153671897Y-115375762D01*
X153619079Y-115451195D01*
X153602146Y-115468127D01*
X153586811Y-115488435D01*
X153530552Y-115539721D01*
X153471195Y-115599079D01*
X153446381Y-115616453D01*
X153423162Y-115637621D01*
X153362587Y-115675127D01*
X153299889Y-115719029D01*
X153266650Y-115734528D01*
X153234886Y-115754196D01*
X153173345Y-115778037D01*
X153110344Y-115807415D01*
X153068729Y-115818565D01*
X153028396Y-115834191D01*
X152968930Y-115845307D01*
X152908337Y-115861543D01*
X152858969Y-115865862D01*
X152810722Y-115874881D01*
X152755882Y-115874881D01*
X152700000Y-115879770D01*
X152644118Y-115874881D01*
X152589278Y-115874881D01*
X152541031Y-115865862D01*
X152491662Y-115861543D01*
X152431066Y-115845306D01*
X152371604Y-115834191D01*
X152331272Y-115818566D01*
X152289655Y-115807415D01*
X152226648Y-115778034D01*
X152165114Y-115754196D01*
X152133352Y-115734530D01*
X152100110Y-115719029D01*
X152037404Y-115675121D01*
X151976838Y-115637621D01*
X151953621Y-115616456D01*
X151928804Y-115599079D01*
X151869435Y-115539710D01*
X151813189Y-115488435D01*
X151797856Y-115468131D01*
X151780920Y-115451195D01*
X151728088Y-115375743D01*
X151679739Y-115311719D01*
X151671076Y-115294323D01*
X151660970Y-115279889D01*
X151617932Y-115187593D01*
X151581033Y-115113490D01*
X151577364Y-115100594D01*
X151572584Y-115090344D01*
X151542455Y-114977904D01*
X151520432Y-114900499D01*
X151519753Y-114893180D01*
X151518456Y-114888337D01*
X151504100Y-114724255D01*
X151500000Y-114680000D01*
X151504100Y-114635748D01*
X151518456Y-114471662D01*
X151519754Y-114466817D01*
X151520432Y-114459501D01*
X151542448Y-114382120D01*
X151572585Y-114269650D01*
X151577366Y-114259395D01*
X151581033Y-114246510D01*
X151617909Y-114172452D01*
X151660967Y-114080115D01*
X151671077Y-114065675D01*
X151679739Y-114048281D01*
X151728081Y-113984264D01*
X151780920Y-113908804D01*
X151797859Y-113891864D01*
X151813189Y-113871565D01*
X151869424Y-113820299D01*
X151928804Y-113760920D01*
X151953626Y-113743539D01*
X151976838Y-113722379D01*
X152037395Y-113684883D01*
X152100115Y-113640967D01*
X152133364Y-113625462D01*
X152165114Y-113605804D01*
X152226621Y-113581975D01*
X152289650Y-113552585D01*
X152331283Y-113541429D01*
X152371604Y-113525809D01*
X152431053Y-113514696D01*
X152491662Y-113498456D01*
X152541041Y-113494135D01*
X152589278Y-113485119D01*
X152644106Y-113485119D01*
X152700000Y-113480229D01*
X152755893Y-113485119D01*
G37*
G36*
X162055893Y-113485119D02*
G01*
X162110722Y-113485119D01*
X162158959Y-113494136D01*
X162208337Y-113498456D01*
X162268942Y-113514695D01*
X162328396Y-113525809D01*
X162368721Y-113541431D01*
X162410344Y-113552584D01*
X162473358Y-113581967D01*
X162534886Y-113605804D01*
X162566644Y-113625467D01*
X162599889Y-113640970D01*
X162662599Y-113684880D01*
X162723162Y-113722379D01*
X162746376Y-113743541D01*
X162771195Y-113760920D01*
X162830564Y-113820289D01*
X162886811Y-113871565D01*
X162902143Y-113891868D01*
X162919079Y-113908804D01*
X162971904Y-113984246D01*
X163020261Y-114048281D01*
X163028924Y-114065680D01*
X163039032Y-114080115D01*
X163082075Y-114172421D01*
X163118967Y-114246510D01*
X163122634Y-114259401D01*
X163127414Y-114269650D01*
X163157534Y-114382059D01*
X163179568Y-114459501D01*
X163180246Y-114466823D01*
X163181543Y-114471662D01*
X163195881Y-114635554D01*
X163200000Y-114680000D01*
X163195881Y-114724448D01*
X163181543Y-114888337D01*
X163180246Y-114893174D01*
X163179568Y-114900499D01*
X163157527Y-114977965D01*
X163127415Y-115090344D01*
X163122637Y-115100589D01*
X163118967Y-115113490D01*
X163082052Y-115187625D01*
X163039029Y-115279889D01*
X163028925Y-115294318D01*
X163020261Y-115311719D01*
X162971897Y-115375762D01*
X162919079Y-115451195D01*
X162902146Y-115468127D01*
X162886811Y-115488435D01*
X162830552Y-115539721D01*
X162771195Y-115599079D01*
X162746381Y-115616453D01*
X162723162Y-115637621D01*
X162662587Y-115675127D01*
X162599889Y-115719029D01*
X162566650Y-115734528D01*
X162534886Y-115754196D01*
X162473345Y-115778037D01*
X162410344Y-115807415D01*
X162368729Y-115818565D01*
X162328396Y-115834191D01*
X162268930Y-115845307D01*
X162208337Y-115861543D01*
X162158969Y-115865862D01*
X162110722Y-115874881D01*
X162055882Y-115874881D01*
X162000000Y-115879770D01*
X161944118Y-115874881D01*
X161889278Y-115874881D01*
X161841031Y-115865862D01*
X161791662Y-115861543D01*
X161731066Y-115845306D01*
X161671604Y-115834191D01*
X161631272Y-115818566D01*
X161589655Y-115807415D01*
X161526648Y-115778034D01*
X161465114Y-115754196D01*
X161433352Y-115734530D01*
X161400110Y-115719029D01*
X161337404Y-115675121D01*
X161276838Y-115637621D01*
X161253621Y-115616456D01*
X161228804Y-115599079D01*
X161169435Y-115539710D01*
X161113189Y-115488435D01*
X161097856Y-115468131D01*
X161080920Y-115451195D01*
X161028088Y-115375743D01*
X160979739Y-115311719D01*
X160971076Y-115294323D01*
X160960970Y-115279889D01*
X160917932Y-115187593D01*
X160881033Y-115113490D01*
X160877364Y-115100594D01*
X160872584Y-115090344D01*
X160842455Y-114977904D01*
X160820432Y-114900499D01*
X160819753Y-114893180D01*
X160818456Y-114888337D01*
X160804100Y-114724255D01*
X160800000Y-114680000D01*
X160804100Y-114635748D01*
X160818456Y-114471662D01*
X160819754Y-114466817D01*
X160820432Y-114459501D01*
X160842448Y-114382120D01*
X160872585Y-114269650D01*
X160877366Y-114259395D01*
X160881033Y-114246510D01*
X160917909Y-114172452D01*
X160960967Y-114080115D01*
X160971077Y-114065675D01*
X160979739Y-114048281D01*
X161028081Y-113984264D01*
X161080920Y-113908804D01*
X161097859Y-113891864D01*
X161113189Y-113871565D01*
X161169424Y-113820299D01*
X161228804Y-113760920D01*
X161253626Y-113743539D01*
X161276838Y-113722379D01*
X161337395Y-113684883D01*
X161400115Y-113640967D01*
X161433364Y-113625462D01*
X161465114Y-113605804D01*
X161526621Y-113581975D01*
X161589650Y-113552585D01*
X161631283Y-113541429D01*
X161671604Y-113525809D01*
X161731053Y-113514696D01*
X161791662Y-113498456D01*
X161841041Y-113494135D01*
X161889278Y-113485119D01*
X161944106Y-113485119D01*
X162000000Y-113480229D01*
X162055893Y-113485119D01*
G37*
G36*
X126952691Y-113471404D02*
G01*
X127111213Y-113526873D01*
X127253417Y-113616226D01*
X127372174Y-113734983D01*
X127461527Y-113877187D01*
X127516996Y-114035709D01*
X127535800Y-114202600D01*
X127516996Y-114369491D01*
X127461527Y-114528013D01*
X127372174Y-114670217D01*
X127253417Y-114788974D01*
X127111213Y-114878327D01*
X126952691Y-114933796D01*
X126785800Y-114952600D01*
X126618909Y-114933796D01*
X126460387Y-114878327D01*
X126318183Y-114788974D01*
X126199426Y-114670217D01*
X126110073Y-114528013D01*
X126054604Y-114369491D01*
X126035800Y-114202600D01*
X126054604Y-114035709D01*
X126110073Y-113877187D01*
X126199426Y-113734983D01*
X126318183Y-113616226D01*
X126460387Y-113526873D01*
X126618909Y-113471404D01*
X126785800Y-113452600D01*
X126952691Y-113471404D01*
G37*
G36*
X144666891Y-113328804D02*
G01*
X144825413Y-113384273D01*
X144967617Y-113473626D01*
X145086374Y-113592383D01*
X145175727Y-113734587D01*
X145231196Y-113893109D01*
X145250000Y-114060000D01*
X145231196Y-114226891D01*
X145175727Y-114385413D01*
X145086374Y-114527617D01*
X144967617Y-114646374D01*
X144825413Y-114735727D01*
X144666891Y-114791196D01*
X144500000Y-114810000D01*
X144333109Y-114791196D01*
X144174587Y-114735727D01*
X144032383Y-114646374D01*
X143913626Y-114527617D01*
X143824273Y-114385413D01*
X143768804Y-114226891D01*
X143750000Y-114060000D01*
X143768804Y-113893109D01*
X143824273Y-113734587D01*
X143913626Y-113592383D01*
X144032383Y-113473626D01*
X144174587Y-113384273D01*
X144333109Y-113328804D01*
X144500000Y-113310000D01*
X144666891Y-113328804D01*
G37*
G36*
X126952691Y-110931404D02*
G01*
X127111213Y-110986873D01*
X127253417Y-111076226D01*
X127372174Y-111194983D01*
X127461527Y-111337187D01*
X127516996Y-111495709D01*
X127535800Y-111662600D01*
X127516996Y-111829491D01*
X127461527Y-111988013D01*
X127372174Y-112130217D01*
X127253417Y-112248974D01*
X127111213Y-112338327D01*
X126952691Y-112393796D01*
X126785800Y-112412600D01*
X126618909Y-112393796D01*
X126460387Y-112338327D01*
X126318183Y-112248974D01*
X126199426Y-112130217D01*
X126110073Y-111988013D01*
X126054604Y-111829491D01*
X126035800Y-111662600D01*
X126054604Y-111495709D01*
X126110073Y-111337187D01*
X126199426Y-111194983D01*
X126318183Y-111076226D01*
X126460387Y-110986873D01*
X126618909Y-110931404D01*
X126785800Y-110912600D01*
X126952691Y-110931404D01*
G37*
G36*
X144666891Y-110788804D02*
G01*
X144825413Y-110844273D01*
X144967617Y-110933626D01*
X145086374Y-111052383D01*
X145175727Y-111194587D01*
X145231196Y-111353109D01*
X145250000Y-111520000D01*
X145231196Y-111686891D01*
X145175727Y-111845413D01*
X145086374Y-111987617D01*
X144967617Y-112106374D01*
X144825413Y-112195727D01*
X144666891Y-112251196D01*
X144500000Y-112270000D01*
X144333109Y-112251196D01*
X144174587Y-112195727D01*
X144032383Y-112106374D01*
X143913626Y-111987617D01*
X143824273Y-111845413D01*
X143768804Y-111686891D01*
X143750000Y-111520000D01*
X143768804Y-111353109D01*
X143824273Y-111194587D01*
X143913626Y-111052383D01*
X144032383Y-110933626D01*
X144174587Y-110844273D01*
X144333109Y-110788804D01*
X144500000Y-110770000D01*
X144666891Y-110788804D01*
G37*
G36*
X126952691Y-108391404D02*
G01*
X127111213Y-108446873D01*
X127253417Y-108536226D01*
X127372174Y-108654983D01*
X127461527Y-108797187D01*
X127516996Y-108955709D01*
X127535800Y-109122600D01*
X127516996Y-109289491D01*
X127461527Y-109448013D01*
X127372174Y-109590217D01*
X127253417Y-109708974D01*
X127111213Y-109798327D01*
X126952691Y-109853796D01*
X126785800Y-109872600D01*
X126618909Y-109853796D01*
X126460387Y-109798327D01*
X126318183Y-109708974D01*
X126199426Y-109590217D01*
X126110073Y-109448013D01*
X126054604Y-109289491D01*
X126035800Y-109122600D01*
X126054604Y-108955709D01*
X126110073Y-108797187D01*
X126199426Y-108654983D01*
X126318183Y-108536226D01*
X126460387Y-108446873D01*
X126618909Y-108391404D01*
X126785800Y-108372600D01*
X126952691Y-108391404D01*
G37*
G36*
X144666891Y-108248804D02*
G01*
X144825413Y-108304273D01*
X144967617Y-108393626D01*
X145086374Y-108512383D01*
X145175727Y-108654587D01*
X145231196Y-108813109D01*
X145250000Y-108980000D01*
X145231196Y-109146891D01*
X145175727Y-109305413D01*
X145086374Y-109447617D01*
X144967617Y-109566374D01*
X144825413Y-109655727D01*
X144666891Y-109711196D01*
X144500000Y-109730000D01*
X144333109Y-109711196D01*
X144174587Y-109655727D01*
X144032383Y-109566374D01*
X143913626Y-109447617D01*
X143824273Y-109305413D01*
X143768804Y-109146891D01*
X143750000Y-108980000D01*
X143768804Y-108813109D01*
X143824273Y-108654587D01*
X143913626Y-108512383D01*
X144032383Y-108393626D01*
X144174587Y-108304273D01*
X144333109Y-108248804D01*
X144500000Y-108230000D01*
X144666891Y-108248804D01*
G37*
G36*
X126952691Y-105851404D02*
G01*
X127111213Y-105906873D01*
X127253417Y-105996226D01*
X127372174Y-106114983D01*
X127461527Y-106257187D01*
X127516996Y-106415709D01*
X127535800Y-106582600D01*
X127516996Y-106749491D01*
X127461527Y-106908013D01*
X127372174Y-107050217D01*
X127253417Y-107168974D01*
X127111213Y-107258327D01*
X126952691Y-107313796D01*
X126785800Y-107332600D01*
X126618909Y-107313796D01*
X126460387Y-107258327D01*
X126318183Y-107168974D01*
X126199426Y-107050217D01*
X126110073Y-106908013D01*
X126054604Y-106749491D01*
X126035800Y-106582600D01*
X126054604Y-106415709D01*
X126110073Y-106257187D01*
X126199426Y-106114983D01*
X126318183Y-105996226D01*
X126460387Y-105906873D01*
X126618909Y-105851404D01*
X126785800Y-105832600D01*
X126952691Y-105851404D01*
G37*
G36*
X144666891Y-105708804D02*
G01*
X144825413Y-105764273D01*
X144967617Y-105853626D01*
X145086374Y-105972383D01*
X145175727Y-106114587D01*
X145231196Y-106273109D01*
X145250000Y-106440000D01*
X145231196Y-106606891D01*
X145175727Y-106765413D01*
X145086374Y-106907617D01*
X144967617Y-107026374D01*
X144825413Y-107115727D01*
X144666891Y-107171196D01*
X144500000Y-107190000D01*
X144333109Y-107171196D01*
X144174587Y-107115727D01*
X144032383Y-107026374D01*
X143913626Y-106907617D01*
X143824273Y-106765413D01*
X143768804Y-106606891D01*
X143750000Y-106440000D01*
X143768804Y-106273109D01*
X143824273Y-106114587D01*
X143913626Y-105972383D01*
X144032383Y-105853626D01*
X144174587Y-105764273D01*
X144333109Y-105708804D01*
X144500000Y-105690000D01*
X144666891Y-105708804D01*
G37*
G36*
X163195090Y-103019215D02*
G01*
X163382683Y-103076120D01*
X163555570Y-103168530D01*
X163707107Y-103292893D01*
X163831470Y-103444430D01*
X163923880Y-103617317D01*
X163980785Y-103804910D01*
X164000000Y-104000000D01*
X163980785Y-104195090D01*
X163923880Y-104382683D01*
X163831470Y-104555570D01*
X163707107Y-104707107D01*
X163555570Y-104831470D01*
X163382683Y-104923880D01*
X163195090Y-104980785D01*
X163000000Y-105000000D01*
X162804910Y-104980785D01*
X162617317Y-104923880D01*
X162444430Y-104831470D01*
X162292893Y-104707107D01*
X162168530Y-104555570D01*
X162076120Y-104382683D01*
X162019215Y-104195090D01*
X162000000Y-104000000D01*
X162019215Y-103804910D01*
X162076120Y-103617317D01*
X162168530Y-103444430D01*
X162292893Y-103292893D01*
X162444430Y-103168530D01*
X162617317Y-103076120D01*
X162804910Y-103019215D01*
X163000000Y-103000000D01*
X163195090Y-103019215D01*
G37*
G36*
X126952691Y-103311404D02*
G01*
X127111213Y-103366873D01*
X127253417Y-103456226D01*
X127372174Y-103574983D01*
X127461527Y-103717187D01*
X127516996Y-103875709D01*
X127535800Y-104042600D01*
X127516996Y-104209491D01*
X127461527Y-104368013D01*
X127372174Y-104510217D01*
X127253417Y-104628974D01*
X127111213Y-104718327D01*
X126952691Y-104773796D01*
X126785800Y-104792600D01*
X126618909Y-104773796D01*
X126460387Y-104718327D01*
X126318183Y-104628974D01*
X126199426Y-104510217D01*
X126110073Y-104368013D01*
X126054604Y-104209491D01*
X126035800Y-104042600D01*
X126054604Y-103875709D01*
X126110073Y-103717187D01*
X126199426Y-103574983D01*
X126318183Y-103456226D01*
X126460387Y-103366873D01*
X126618909Y-103311404D01*
X126785800Y-103292600D01*
X126952691Y-103311404D01*
G37*
G36*
X144666891Y-103168804D02*
G01*
X144825413Y-103224273D01*
X144967617Y-103313626D01*
X145086374Y-103432383D01*
X145175727Y-103574587D01*
X145231196Y-103733109D01*
X145250000Y-103900000D01*
X145231196Y-104066891D01*
X145175727Y-104225413D01*
X145086374Y-104367617D01*
X144967617Y-104486374D01*
X144825413Y-104575727D01*
X144666891Y-104631196D01*
X144500000Y-104650000D01*
X144333109Y-104631196D01*
X144174587Y-104575727D01*
X144032383Y-104486374D01*
X143913626Y-104367617D01*
X143824273Y-104225413D01*
X143768804Y-104066891D01*
X143750000Y-103900000D01*
X143768804Y-103733109D01*
X143824273Y-103574587D01*
X143913626Y-103432383D01*
X144032383Y-103313626D01*
X144174587Y-103224273D01*
X144333109Y-103168804D01*
X144500000Y-103150000D01*
X144666891Y-103168804D01*
G37*
G36*
X126952691Y-100771404D02*
G01*
X127111213Y-100826873D01*
X127253417Y-100916226D01*
X127372174Y-101034983D01*
X127461527Y-101177187D01*
X127516996Y-101335709D01*
X127535800Y-101502600D01*
X127516996Y-101669491D01*
X127461527Y-101828013D01*
X127372174Y-101970217D01*
X127253417Y-102088974D01*
X127111213Y-102178327D01*
X126952691Y-102233796D01*
X126785800Y-102252600D01*
X126618909Y-102233796D01*
X126460387Y-102178327D01*
X126318183Y-102088974D01*
X126199426Y-101970217D01*
X126110073Y-101828013D01*
X126054604Y-101669491D01*
X126035800Y-101502600D01*
X126054604Y-101335709D01*
X126110073Y-101177187D01*
X126199426Y-101034983D01*
X126318183Y-100916226D01*
X126460387Y-100826873D01*
X126618909Y-100771404D01*
X126785800Y-100752600D01*
X126952691Y-100771404D01*
G37*
G36*
X144666891Y-100628804D02*
G01*
X144825413Y-100684273D01*
X144967617Y-100773626D01*
X145086374Y-100892383D01*
X145175727Y-101034587D01*
X145231196Y-101193109D01*
X145250000Y-101360000D01*
X145231196Y-101526891D01*
X145175727Y-101685413D01*
X145086374Y-101827617D01*
X144967617Y-101946374D01*
X144825413Y-102035727D01*
X144666891Y-102091196D01*
X144500000Y-102110000D01*
X144333109Y-102091196D01*
X144174587Y-102035727D01*
X144032383Y-101946374D01*
X143913626Y-101827617D01*
X143824273Y-101685413D01*
X143768804Y-101526891D01*
X143750000Y-101360000D01*
X143768804Y-101193109D01*
X143824273Y-101034587D01*
X143913626Y-100892383D01*
X144032383Y-100773626D01*
X144174587Y-100684273D01*
X144333109Y-100628804D01*
X144500000Y-100610000D01*
X144666891Y-100628804D01*
G37*
G36*
X126952691Y-98231404D02*
G01*
X127111213Y-98286873D01*
X127253417Y-98376226D01*
X127372174Y-98494983D01*
X127461527Y-98637187D01*
X127516996Y-98795709D01*
X127535800Y-98962600D01*
X127516996Y-99129491D01*
X127461527Y-99288013D01*
X127372174Y-99430217D01*
X127253417Y-99548974D01*
X127111213Y-99638327D01*
X126952691Y-99693796D01*
X126785800Y-99712600D01*
X126618909Y-99693796D01*
X126460387Y-99638327D01*
X126318183Y-99548974D01*
X126199426Y-99430217D01*
X126110073Y-99288013D01*
X126054604Y-99129491D01*
X126035800Y-98962600D01*
X126054604Y-98795709D01*
X126110073Y-98637187D01*
X126199426Y-98494983D01*
X126318183Y-98376226D01*
X126460387Y-98286873D01*
X126618909Y-98231404D01*
X126785800Y-98212600D01*
X126952691Y-98231404D01*
G37*
G36*
X144666891Y-98088804D02*
G01*
X144825413Y-98144273D01*
X144967617Y-98233626D01*
X145086374Y-98352383D01*
X145175727Y-98494587D01*
X145231196Y-98653109D01*
X145250000Y-98820000D01*
X145231196Y-98986891D01*
X145175727Y-99145413D01*
X145086374Y-99287617D01*
X144967617Y-99406374D01*
X144825413Y-99495727D01*
X144666891Y-99551196D01*
X144500000Y-99570000D01*
X144333109Y-99551196D01*
X144174587Y-99495727D01*
X144032383Y-99406374D01*
X143913626Y-99287617D01*
X143824273Y-99145413D01*
X143768804Y-98986891D01*
X143750000Y-98820000D01*
X143768804Y-98653109D01*
X143824273Y-98494587D01*
X143913626Y-98352383D01*
X144032383Y-98233626D01*
X144174587Y-98144273D01*
X144333109Y-98088804D01*
X144500000Y-98070000D01*
X144666891Y-98088804D01*
G37*
G36*
X119450295Y-94419699D02*
G01*
X119694427Y-94478310D01*
X119926385Y-94574390D01*
X120140456Y-94705573D01*
X120331371Y-94868629D01*
X120494427Y-95059544D01*
X120625610Y-95273615D01*
X120721690Y-95505573D01*
X120780301Y-95749705D01*
X120800000Y-96000000D01*
X120780301Y-96250295D01*
X120721690Y-96494427D01*
X120625610Y-96726385D01*
X120494427Y-96940456D01*
X120331371Y-97131371D01*
X120140456Y-97294427D01*
X119926385Y-97425610D01*
X119694427Y-97521690D01*
X119450295Y-97580301D01*
X119200000Y-97600000D01*
X118949705Y-97580301D01*
X118705573Y-97521690D01*
X118473615Y-97425610D01*
X118259544Y-97294427D01*
X118068629Y-97131371D01*
X117905573Y-96940456D01*
X117774390Y-96726385D01*
X117678310Y-96494427D01*
X117619699Y-96250295D01*
X117600000Y-96000000D01*
X117619699Y-95749705D01*
X117678310Y-95505573D01*
X117774390Y-95273615D01*
X117905573Y-95059544D01*
X118068629Y-94868629D01*
X118259544Y-94705573D01*
X118473615Y-94574390D01*
X118705573Y-94478310D01*
X118949705Y-94419699D01*
X119200000Y-94400000D01*
X119450295Y-94419699D01*
G37*
G36*
X164000000Y-97400000D02*
G01*
X162000000Y-97400000D01*
X162000000Y-95400000D01*
X164000000Y-95400000D01*
X164000000Y-97400000D01*
G37*
G36*
X126952691Y-95691404D02*
G01*
X127111213Y-95746873D01*
X127253417Y-95836226D01*
X127372174Y-95954983D01*
X127461527Y-96097187D01*
X127516996Y-96255709D01*
X127535800Y-96422600D01*
X127516996Y-96589491D01*
X127461527Y-96748013D01*
X127372174Y-96890217D01*
X127253417Y-97008974D01*
X127111213Y-97098327D01*
X126952691Y-97153796D01*
X126785800Y-97172600D01*
X126618909Y-97153796D01*
X126460387Y-97098327D01*
X126318183Y-97008974D01*
X126199426Y-96890217D01*
X126110073Y-96748013D01*
X126054604Y-96589491D01*
X126035800Y-96422600D01*
X126054604Y-96255709D01*
X126110073Y-96097187D01*
X126199426Y-95954983D01*
X126318183Y-95836226D01*
X126460387Y-95746873D01*
X126618909Y-95691404D01*
X126785800Y-95672600D01*
X126952691Y-95691404D01*
G37*
G36*
X144666891Y-95548804D02*
G01*
X144825413Y-95604273D01*
X144967617Y-95693626D01*
X145086374Y-95812383D01*
X145175727Y-95954587D01*
X145231196Y-96113109D01*
X145250000Y-96280000D01*
X145231196Y-96446891D01*
X145175727Y-96605413D01*
X145086374Y-96747617D01*
X144967617Y-96866374D01*
X144825413Y-96955727D01*
X144666891Y-97011196D01*
X144500000Y-97030000D01*
X144333109Y-97011196D01*
X144174587Y-96955727D01*
X144032383Y-96866374D01*
X143913626Y-96747617D01*
X143824273Y-96605413D01*
X143768804Y-96446891D01*
X143750000Y-96280000D01*
X143768804Y-96113109D01*
X143824273Y-95954587D01*
X143913626Y-95812383D01*
X144032383Y-95693626D01*
X144174587Y-95604273D01*
X144333109Y-95548804D01*
X144500000Y-95530000D01*
X144666891Y-95548804D01*
G37*
G36*
X171750295Y-93319699D02*
G01*
X171994427Y-93378310D01*
X172226385Y-93474390D01*
X172440456Y-93605573D01*
X172631371Y-93768629D01*
X172794427Y-93959544D01*
X172925610Y-94173615D01*
X173021690Y-94405573D01*
X173080301Y-94649705D01*
X173100000Y-94900000D01*
X173080301Y-95150295D01*
X173021690Y-95394427D01*
X172925610Y-95626385D01*
X172794427Y-95840456D01*
X172631371Y-96031371D01*
X172440456Y-96194427D01*
X172226385Y-96325610D01*
X171994427Y-96421690D01*
X171750295Y-96480301D01*
X171500000Y-96500000D01*
X171249705Y-96480301D01*
X171005573Y-96421690D01*
X170773615Y-96325610D01*
X170559544Y-96194427D01*
X170368629Y-96031371D01*
X170205573Y-95840456D01*
X170074390Y-95626385D01*
X169978310Y-95394427D01*
X169919699Y-95150295D01*
X169900000Y-94900000D01*
X169919699Y-94649705D01*
X169978310Y-94405573D01*
X170074390Y-94173615D01*
X170205573Y-93959544D01*
X170368629Y-93768629D01*
X170559544Y-93605573D01*
X170773615Y-93474390D01*
X171005573Y-93378310D01*
X171249705Y-93319699D01*
X171500000Y-93300000D01*
X171750295Y-93319699D01*
G37*
G36*
X127882000Y-92162000D02*
G01*
X126358000Y-92162000D01*
X126358000Y-90638000D01*
X127882000Y-90638000D01*
X127882000Y-92162000D01*
G37*
G36*
X129829561Y-90657105D02*
G01*
X129990619Y-90713462D01*
X130135099Y-90804244D01*
X130255756Y-90924901D01*
X130346538Y-91069381D01*
X130402895Y-91230439D01*
X130422000Y-91400000D01*
X130402895Y-91569561D01*
X130346538Y-91730619D01*
X130255756Y-91875099D01*
X130135099Y-91995756D01*
X129990619Y-92086538D01*
X129829561Y-92142895D01*
X129660000Y-92162000D01*
X129490439Y-92142895D01*
X129329381Y-92086538D01*
X129184901Y-91995756D01*
X129064244Y-91875099D01*
X128973462Y-91730619D01*
X128917105Y-91569561D01*
X128898000Y-91400000D01*
X128917105Y-91230439D01*
X128973462Y-91069381D01*
X129064244Y-90924901D01*
X129184901Y-90804244D01*
X129329381Y-90713462D01*
X129490439Y-90657105D01*
X129660000Y-90638000D01*
X129829561Y-90657105D01*
G37*
G36*
X132369561Y-90657105D02*
G01*
X132530619Y-90713462D01*
X132675099Y-90804244D01*
X132795756Y-90924901D01*
X132886538Y-91069381D01*
X132942895Y-91230439D01*
X132962000Y-91400000D01*
X132942895Y-91569561D01*
X132886538Y-91730619D01*
X132795756Y-91875099D01*
X132675099Y-91995756D01*
X132530619Y-92086538D01*
X132369561Y-92142895D01*
X132200000Y-92162000D01*
X132030439Y-92142895D01*
X131869381Y-92086538D01*
X131724901Y-91995756D01*
X131604244Y-91875099D01*
X131513462Y-91730619D01*
X131457105Y-91569561D01*
X131438000Y-91400000D01*
X131457105Y-91230439D01*
X131513462Y-91069381D01*
X131604244Y-90924901D01*
X131724901Y-90804244D01*
X131869381Y-90713462D01*
X132030439Y-90657105D01*
X132200000Y-90638000D01*
X132369561Y-90657105D01*
G37*
G36*
X134909561Y-90657105D02*
G01*
X135070619Y-90713462D01*
X135215099Y-90804244D01*
X135335756Y-90924901D01*
X135426538Y-91069381D01*
X135482895Y-91230439D01*
X135502000Y-91400000D01*
X135482895Y-91569561D01*
X135426538Y-91730619D01*
X135335756Y-91875099D01*
X135215099Y-91995756D01*
X135070619Y-92086538D01*
X134909561Y-92142895D01*
X134740000Y-92162000D01*
X134570439Y-92142895D01*
X134409381Y-92086538D01*
X134264901Y-91995756D01*
X134144244Y-91875099D01*
X134053462Y-91730619D01*
X133997105Y-91569561D01*
X133978000Y-91400000D01*
X133997105Y-91230439D01*
X134053462Y-91069381D01*
X134144244Y-90924901D01*
X134264901Y-90804244D01*
X134409381Y-90713462D01*
X134570439Y-90657105D01*
X134740000Y-90638000D01*
X134909561Y-90657105D01*
G37*
G36*
X137449561Y-90657105D02*
G01*
X137610619Y-90713462D01*
X137755099Y-90804244D01*
X137875756Y-90924901D01*
X137966538Y-91069381D01*
X138022895Y-91230439D01*
X138042000Y-91400000D01*
X138022895Y-91569561D01*
X137966538Y-91730619D01*
X137875756Y-91875099D01*
X137755099Y-91995756D01*
X137610619Y-92086538D01*
X137449561Y-92142895D01*
X137280000Y-92162000D01*
X137110439Y-92142895D01*
X136949381Y-92086538D01*
X136804901Y-91995756D01*
X136684244Y-91875099D01*
X136593462Y-91730619D01*
X136537105Y-91569561D01*
X136518000Y-91400000D01*
X136537105Y-91230439D01*
X136593462Y-91069381D01*
X136684244Y-90924901D01*
X136804901Y-90804244D01*
X136949381Y-90713462D01*
X137110439Y-90657105D01*
X137280000Y-90638000D01*
X137449561Y-90657105D01*
G37*
G36*
X139989561Y-90657105D02*
G01*
X140150619Y-90713462D01*
X140295099Y-90804244D01*
X140415756Y-90924901D01*
X140506538Y-91069381D01*
X140562895Y-91230439D01*
X140582000Y-91400000D01*
X140562895Y-91569561D01*
X140506538Y-91730619D01*
X140415756Y-91875099D01*
X140295099Y-91995756D01*
X140150619Y-92086538D01*
X139989561Y-92142895D01*
X139820000Y-92162000D01*
X139650439Y-92142895D01*
X139489381Y-92086538D01*
X139344901Y-91995756D01*
X139224244Y-91875099D01*
X139133462Y-91730619D01*
X139077105Y-91569561D01*
X139058000Y-91400000D01*
X139077105Y-91230439D01*
X139133462Y-91069381D01*
X139224244Y-90924901D01*
X139344901Y-90804244D01*
X139489381Y-90713462D01*
X139650439Y-90657105D01*
X139820000Y-90638000D01*
X139989561Y-90657105D01*
G37*
G36*
X142529561Y-90657105D02*
G01*
X142690619Y-90713462D01*
X142835099Y-90804244D01*
X142955756Y-90924901D01*
X143046538Y-91069381D01*
X143102895Y-91230439D01*
X143122000Y-91400000D01*
X143102895Y-91569561D01*
X143046538Y-91730619D01*
X142955756Y-91875099D01*
X142835099Y-91995756D01*
X142690619Y-92086538D01*
X142529561Y-92142895D01*
X142360000Y-92162000D01*
X142190439Y-92142895D01*
X142029381Y-92086538D01*
X141884901Y-91995756D01*
X141764244Y-91875099D01*
X141673462Y-91730619D01*
X141617105Y-91569561D01*
X141598000Y-91400000D01*
X141617105Y-91230439D01*
X141673462Y-91069381D01*
X141764244Y-90924901D01*
X141884901Y-90804244D01*
X142029381Y-90713462D01*
X142190439Y-90657105D01*
X142360000Y-90638000D01*
X142529561Y-90657105D01*
G37*
G36*
X145069561Y-90657105D02*
G01*
X145230619Y-90713462D01*
X145375099Y-90804244D01*
X145495756Y-90924901D01*
X145586538Y-91069381D01*
X145642895Y-91230439D01*
X145662000Y-91400000D01*
X145642895Y-91569561D01*
X145586538Y-91730619D01*
X145495756Y-91875099D01*
X145375099Y-91995756D01*
X145230619Y-92086538D01*
X145069561Y-92142895D01*
X144900000Y-92162000D01*
X144730439Y-92142895D01*
X144569381Y-92086538D01*
X144424901Y-91995756D01*
X144304244Y-91875099D01*
X144213462Y-91730619D01*
X144157105Y-91569561D01*
X144138000Y-91400000D01*
X144157105Y-91230439D01*
X144213462Y-91069381D01*
X144304244Y-90924901D01*
X144424901Y-90804244D01*
X144569381Y-90713462D01*
X144730439Y-90657105D01*
X144900000Y-90638000D01*
X145069561Y-90657105D01*
G37*
M02*
