G04 #@! TF.GenerationSoftware,KiCad,Pcbnew,8.0.6*
G04 #@! TF.CreationDate,2026-03-19T20:18:12+01:00*
G04 #@! TF.ProjectId,RFC522_PICO,52464335-3232-45f5-9049-434f2e6b6963,rev?*
G04 #@! TF.SameCoordinates,Original*
G04 #@! TF.FileFunction,Legend,Bot*
G04 #@! TF.FilePolarity,Positive*
%FSLAX46Y46*%
G04 Gerber Fmt 4.6, Leading zero omitted, Abs format (unit mm)*
G04 Created by KiCad (PCBNEW 8.0.6) date 2026-03-19 20:18:12*
%MOMM*%
%LPD*%
G01*
G04 APERTURE LIST*
%ADD10R,1.524000X1.524000*%
%ADD11C,1.524000*%
%ADD12C,2.400000*%
%ADD13O,2.400000X2.400000*%
%ADD14R,2.000000X2.000000*%
%ADD15C,2.000000*%
%ADD16R,1.800000X1.800000*%
%ADD17C,1.800000*%
%ADD18R,1.500000X1.500000*%
%ADD19C,1.500000*%
%ADD20C,3.200000*%
G04 APERTURE END LIST*
%LPC*%
D10*
X127120000Y-91400000D03*
D11*
X129660000Y-91400000D03*
X132200000Y-91400000D03*
X134740000Y-91400000D03*
X137280000Y-91400000D03*
X139820000Y-91400000D03*
X142360000Y-91400000D03*
X144900000Y-91400000D03*
D12*
X152700000Y-114680000D03*
D13*
X152700000Y-129920000D03*
D14*
X163000000Y-96400000D03*
D15*
X163000000Y-104000000D03*
D16*
X152600000Y-137240000D03*
D17*
X152600000Y-134700000D03*
D16*
X162000000Y-137340000D03*
D17*
X162000000Y-134800000D03*
D15*
X122250000Y-122250000D03*
X115750000Y-122250000D03*
X122250000Y-117750000D03*
X115750000Y-117750000D03*
D12*
X162000000Y-114680000D03*
D13*
X162000000Y-129920000D03*
D18*
X144500000Y-144540000D03*
D19*
X144500000Y-142000000D03*
X144500000Y-139460000D03*
X144500000Y-136920000D03*
X144500000Y-134380000D03*
X144500000Y-131840000D03*
X144500000Y-129300000D03*
X144500000Y-126760000D03*
X144500000Y-124220000D03*
X144500000Y-121680000D03*
X144500000Y-119140000D03*
X144500000Y-116600000D03*
X144500000Y-114060000D03*
X144500000Y-111520000D03*
X144500000Y-108980000D03*
X144500000Y-106440000D03*
X144500000Y-103900000D03*
X144500000Y-101360000D03*
X144500000Y-98820000D03*
X144500000Y-96280000D03*
X126735800Y-144627600D03*
X126785800Y-142142600D03*
X126785800Y-139602600D03*
X126785800Y-137062600D03*
X126785800Y-134522600D03*
X126785800Y-131982600D03*
X126785800Y-129442600D03*
X126785800Y-126902600D03*
X126785800Y-124362600D03*
X126785800Y-121822600D03*
X126785800Y-119282600D03*
X126785800Y-116742600D03*
X126785800Y-114202600D03*
X126785800Y-111662600D03*
X126785800Y-109122600D03*
X126785800Y-106582600D03*
X126785800Y-104042600D03*
X126785800Y-101502600D03*
X126785800Y-98962600D03*
X126785800Y-96422600D03*
D20*
X119200000Y-96000000D03*
D16*
X171600000Y-137440000D03*
D17*
X171600000Y-134900000D03*
D12*
X171500000Y-114760000D03*
D13*
X171500000Y-130000000D03*
D20*
X171500000Y-144780000D03*
X119100000Y-144780000D03*
X171500000Y-94900000D03*
%LPD*%
M02*
